<svg width="44" height="34" viewBox="0 0 44 34" fill="none" xmlns="http://www.w3.org/2000/svg">
<path d="M18.4512 24.8065H28.3867V17.7097H18.4512V24.8065ZM19.8705 19.1291H26.9673V23.3871H19.8705V19.1291Z" fill="#3F3F3F"/>
<path d="M4.9679 13.4517C6.14171 13.4517 7.09693 12.4964 7.09693 11.3226C7.09693 10.1488 6.14171 9.1936 4.9679 9.1936C3.79409 9.1936 2.83887 10.1488 2.83887 11.3226C2.83887 12.4964 3.79409 13.4517 4.9679 13.4517ZM4.9679 10.613C5.35893 10.613 5.67758 10.9316 5.67758 11.3226C5.67758 11.7137 5.35893 12.0323 4.9679 12.0323C4.57687 12.0323 4.25822 11.7137 4.25822 11.3226C4.25822 10.9316 4.57687 10.613 4.9679 10.613Z" fill="#3F3F3F"/>
<path d="M40.4516 6.35491H38.3226V5.64523C38.3226 4.47143 37.3674 3.5162 36.1935 3.5162H33.3548C32.181 3.5162 31.2258 4.47143 31.2258 5.64523V6.35491H29.651L28.9037 3.36575C28.5077 1.78317 27.0926 0.67749 25.4611 0.67749H18.5389C16.9074 0.67749 15.4923 1.78317 15.0963 3.36504L14.349 6.35491H12.7742V4.93555C12.7742 4.15278 12.1376 3.5162 11.3548 3.5162H9.93548C9.15271 3.5162 8.51613 4.15278 8.51613 4.93555V6.35491H7.09677V4.93555C7.09677 4.15278 6.46019 3.5162 5.67742 3.5162H4.25806C3.47529 3.5162 2.83871 4.15278 2.83871 4.93555V6.42659C1.22135 6.75659 0 8.19014 0 9.9033V11.3227V12.742V29.7743C0 31.7308 1.59181 33.3227 3.54839 33.3227H40.4516C42.4082 33.3227 44 31.7308 44 29.7743V9.9033C44 7.94672 42.4082 6.35491 40.4516 6.35491ZM36.9032 5.64523V6.35491H35.4839V4.93555H36.1935C36.5846 4.93555 36.9032 5.2542 36.9032 5.64523ZM32.6452 5.64523C32.6452 5.2542 32.9638 4.93555 33.3548 4.93555H34.0645V6.35491H32.6452V5.64523ZM9.93548 4.93555H11.3548V6.35491H9.93548V4.93555ZM5.67742 4.93555V6.35491H4.96774H4.25806V4.93555H5.67742ZM1.41935 9.9033C1.41935 8.72949 2.37458 7.77426 3.54839 7.77426H4.96774H6.3871C7.5609 7.77426 8.51613 8.72949 8.51613 9.9033V11.3227V12.742C8.51613 13.9158 7.5609 14.871 6.3871 14.871H3.54839C2.37458 14.871 1.41935 13.9158 1.41935 12.742V11.3227V9.9033ZM1.41935 29.7743V15.5623C2.01406 16.0129 2.74645 16.2904 3.54839 16.2904H6.3871C7.18903 16.2904 7.92142 16.0129 8.51613 15.5623V31.9033H3.54839C2.37458 31.9033 1.41935 30.9481 1.41935 29.7743ZM34.3825 26.2649C35.0119 26.4097 35.4839 26.9717 35.4839 27.6452C35.4839 28.428 34.8473 29.0646 34.0645 29.0646C33.6494 29.0646 33.2605 28.8772 32.9943 28.5685C33.5386 27.8574 34.0056 27.0867 34.3825 26.2649ZM23.4194 31.9033C17.5496 31.9033 12.7742 27.1279 12.7742 21.2581C12.7742 15.3884 17.5496 10.613 23.4194 10.613C29.2891 10.613 34.0645 15.3884 34.0645 21.2581C34.0645 27.1279 29.2891 31.9033 23.4194 31.9033ZM32.0703 29.6487C32.5941 30.1696 33.3052 30.4839 34.0645 30.4839C35.6301 30.4839 36.9032 29.2108 36.9032 27.6452C36.9032 26.3735 36.0566 25.3068 34.9019 24.947C35.2766 23.7832 35.4839 22.5448 35.4839 21.2581C35.4839 14.6056 30.0719 9.19362 23.4194 9.19362C16.7668 9.19362 11.3548 14.6056 11.3548 21.2581C11.3548 25.8632 13.9508 29.8708 17.754 31.9033H9.93548V12.742V11.3227V9.9033C9.93548 9.10136 9.658 8.36897 9.20735 7.77426H15.4568L16.473 3.70923C16.7108 2.76039 17.5603 2.09685 18.5389 2.09685H25.4611C26.4397 2.09685 27.2892 2.76039 27.5263 3.70923L28.5425 7.77426H40.4516C41.6254 7.77426 42.5806 8.72949 42.5806 9.9033V10.613H41.1613C39.5957 10.613 38.3226 11.8861 38.3226 13.4517V31.9033H29.0847C30.1961 31.3093 31.2003 30.5457 32.0703 29.6487ZM40.4516 31.9033H39.7419V13.4517C39.7419 12.6689 40.3785 12.0323 41.1613 12.0323H42.5806V29.7743C42.5806 30.9481 41.6254 31.9033 40.4516 31.9033Z" fill="#3F3F3F"/>
<path d="M6.38741 30.4841C6.77935 30.4841 7.09709 30.1663 7.09709 29.7744C7.09709 29.3824 6.77935 29.0647 6.38741 29.0647C5.99547 29.0647 5.67773 29.3824 5.67773 29.7744C5.67773 30.1663 5.99547 30.4841 6.38741 30.4841Z" fill="#3F3F3F"/>
<path d="M3.54855 30.4841C3.94049 30.4841 4.25822 30.1663 4.25822 29.7744C4.25822 29.3824 3.94049 29.0647 3.54855 29.0647C3.1566 29.0647 2.83887 29.3824 2.83887 29.7744C2.83887 30.1663 3.1566 30.4841 3.54855 30.4841Z" fill="#3F3F3F"/>
<path d="M3.54855 27.6452C3.94049 27.6452 4.25822 27.3274 4.25822 26.9355C4.25822 26.5436 3.94049 26.2258 3.54855 26.2258C3.1566 26.2258 2.83887 26.5436 2.83887 26.9355C2.83887 27.3274 3.1566 27.6452 3.54855 27.6452Z" fill="#3F3F3F"/>
</svg>
