<svg width="154" height="60" viewBox="0 0 154 60" fill="none" xmlns="http://www.w3.org/2000/svg">
<g filter="url(#filter0_d_7_1158)">
<path d="M143.333 40.9904C143.341 41.5089 143.248 42.024 143.06 42.5061C142.871 42.9883 142.591 43.4281 142.234 43.8005C141.877 44.1728 141.452 44.4704 140.982 44.6762C140.512 44.882 140.006 44.992 139.494 44.9999H13.8451C12.8102 44.9841 11.8239 44.5528 11.103 43.801C10.382 43.0491 9.98544 42.0382 10.0004 40.9904V9.01514C10.0033 8.26531 10.2094 7.53068 10.5963 6.89129C10.9832 6.2519 11.536 5.73228 12.1944 5.38906C12.7056 5.12661 13.2719 4.99322 13.8451 5.00026H139.493C140.528 5.01731 141.513 5.44985 142.233 6.20276C142.953 6.95567 143.349 7.96729 143.332 9.01514V40.9904H143.333Z" fill="black"/>
</g>
<path d="M39.7563 24.7838C39.7687 23.806 40.0252 22.8472 40.502 21.9968C40.9787 21.1463 41.6602 20.4318 42.483 19.9197C41.9601 19.164 41.2706 18.5419 40.469 18.1029C39.6674 17.6639 38.7759 17.42 37.865 17.3905C35.9223 17.1833 34.0377 18.5677 33.0483 18.5677C32.039 18.5677 30.515 17.4108 28.8724 17.4445C27.8105 17.4792 26.7756 17.7918 25.8686 18.3519C24.9616 18.9121 24.2135 19.7006 23.697 20.6406C21.459 24.5637 23.1284 30.3289 25.2724 33.4993C26.345 35.0518 27.5984 36.7865 29.239 36.7251C30.8437 36.6576 31.4437 35.689 33.3803 35.689C35.2997 35.689 35.8623 36.7251 37.5357 36.686C39.2583 36.6583 40.3423 35.1261 41.3776 33.5587C42.1485 32.4526 42.7416 31.2299 43.135 29.936C42.1345 29.5078 41.2807 28.7909 40.6799 27.8747C40.0791 26.9585 39.7579 25.8835 39.7563 24.7838Z" fill="white"/>
<path d="M36.5957 15.306C37.5343 14.1647 37.9963 12.6977 37.8837 11.2169C36.4495 11.3707 35.125 12.0654 34.1737 13.1629C33.7083 13.699 33.3519 14.3228 33.1248 14.9985C32.8977 15.6742 32.8045 16.3886 32.8503 17.1009C33.5681 17.1083 34.2781 16.9505 34.9269 16.6396C35.5757 16.3287 36.1463 15.8727 36.5957 15.306Z" fill="white"/>
<path d="M62.9829 36.5043H60.7402L59.5116 32.5947H55.2409L54.0703 36.5036H51.8869L56.1183 23.1987H58.7316L62.9829 36.5043ZM59.1409 30.9551L58.0296 27.4802C57.9122 27.1252 57.6914 26.2895 57.3669 24.9733H57.3276C57.1982 25.5394 56.9902 26.375 56.7036 27.4802L55.6136 30.9551H59.1409Z" fill="white"/>
<path d="M73.8642 31.5877C73.9408 33.0002 73.4722 34.3875 72.5575 35.4568C72.1904 35.8654 71.7411 36.1896 71.2398 36.4077C70.7386 36.6258 70.197 36.7326 69.6515 36.7211C69.1229 36.7644 68.5926 36.6603 68.1182 36.4202C67.6437 36.1801 67.2433 35.8131 66.9602 35.3589H66.9235V40.414H64.8156V30.0669C64.8156 29.0409 64.7896 27.9879 64.7376 26.908H66.5902L66.7075 28.4287H66.7469C67.066 27.9342 67.4949 27.522 67.9992 27.2249C68.5035 26.9278 69.0694 26.7541 69.6517 26.7176C70.234 26.6811 70.8168 26.7828 71.3534 27.0146C71.8901 27.2464 72.3659 27.6019 72.7429 28.0527C73.5265 29.055 73.9248 30.3109 73.8642 31.5877ZM71.7189 31.666C71.7519 30.8492 71.5339 30.0422 71.0949 29.3562C70.8912 29.0565 70.6169 28.813 70.2967 28.648C69.9765 28.483 69.6207 28.4015 69.2615 28.4112C68.7442 28.411 68.2435 28.5964 67.8482 28.9343C67.4258 29.2832 67.1335 29.7675 67.0195 30.3072C66.9625 30.5189 66.9303 30.7366 66.9235 30.9559V32.5556C66.9062 33.2049 67.1328 33.8367 67.5575 34.3235C67.7626 34.5593 68.0166 34.7462 68.3014 34.8709C68.5862 34.9955 68.8948 35.0547 69.2049 35.0444C69.5658 35.0589 69.9245 34.9814 70.2481 34.819C70.5717 34.6566 70.8498 34.4145 71.0569 34.1149C71.5291 33.3906 71.7612 32.5329 71.7195 31.666H71.7189Z" fill="white"/>
<path d="M84.7648 31.5878C84.8416 33.0004 84.3728 34.3879 83.4575 35.4568C83.0906 35.8654 82.6416 36.1897 82.1405 36.4078C81.6395 36.6258 81.0981 36.7327 80.5528 36.7211C80.0242 36.7646 79.494 36.6606 79.0196 36.4205C78.5453 36.1803 78.145 35.8132 77.8622 35.359H77.8228V40.414H75.7169V30.067C75.7169 29.041 75.6909 27.988 75.6389 26.908H77.4908L77.6082 28.4288H77.6475C77.9667 27.9336 78.3957 27.5208 78.9004 27.2233C79.405 26.9258 79.9714 26.7519 80.5543 26.7154C81.1371 26.6789 81.7203 26.7808 82.2574 27.013C82.7945 27.2452 83.2705 27.6013 83.6475 28.0528C84.4285 29.0563 84.8252 30.3116 84.7648 31.5878ZM82.6195 31.6661C82.6521 30.8491 82.4336 30.0421 81.9942 29.3562C81.7909 29.0565 81.5168 28.813 81.1968 28.648C80.8768 28.4829 80.5212 28.4015 80.1622 28.4112C79.645 28.4102 79.1442 28.5943 78.7482 28.931C78.3262 29.28 78.0343 29.7643 77.9209 30.3039C77.8635 30.516 77.8306 30.7342 77.8228 30.9539V32.5537C77.8056 33.2026 78.0314 33.8341 78.4548 34.3215C78.6603 34.5574 78.9146 34.7443 79.1998 34.8689C79.4849 34.9936 79.7938 35.0528 80.1042 35.0424C80.4649 35.0571 80.8236 34.9798 81.1471 34.8176C81.4707 34.6555 81.7489 34.4136 81.9562 34.1143C82.4285 33.3903 82.6608 32.5327 82.6195 31.6661Z" fill="white"/>
<path d="M96.9521 32.7723C96.9694 33.2915 96.8737 33.8082 96.672 34.2858C96.4703 34.7634 96.1674 35.1904 95.7848 35.5364C94.778 36.3656 93.5002 36.7815 92.2048 36.7015C91.0145 36.7587 89.8328 36.4712 88.7981 35.8726L89.2861 34.0953C90.2028 34.6605 91.2569 34.9557 92.3301 34.9478C92.9916 34.988 93.6464 34.7958 94.1841 34.4038C94.3992 34.2308 94.5711 34.0091 94.6861 33.7566C94.801 33.5041 94.8559 33.2277 94.8461 32.9498C94.8519 32.6968 94.8065 32.4452 94.7126 32.2105C94.6187 31.9759 94.4783 31.7633 94.3001 31.5857C93.7722 31.1198 93.1548 30.7696 92.4868 30.557C90.1855 29.688 89.0353 28.4161 89.0361 26.7412C89.0232 26.2294 89.1254 25.7213 89.335 25.2554C89.5446 24.7895 89.8562 24.378 90.2461 24.052C91.1556 23.3156 92.2997 22.9416 93.4628 23.0004C94.4928 22.964 95.5162 23.1807 96.4454 23.6322L95.9188 25.3703C95.145 24.9539 94.2796 24.7433 93.4035 24.7581C92.7782 24.7202 92.1611 24.917 91.6701 25.3109C91.5019 25.4615 91.3677 25.6472 91.2769 25.8551C91.186 26.0631 91.1405 26.2884 91.1435 26.5158C91.1386 26.7652 91.1905 27.0125 91.2951 27.2384C91.3998 27.4643 91.5543 27.6628 91.7468 27.8185C92.3261 28.2616 92.9716 28.6082 93.6588 28.8452C94.6031 29.1829 95.4574 29.7374 96.1548 30.4652C96.6955 31.1066 96.9799 31.9295 96.9521 32.7723Z" fill="white"/>
<path d="M103.913 28.5085H101.593V33.1659C101.593 34.3508 102.003 34.9432 102.822 34.9432C103.136 34.9499 103.45 34.9165 103.755 34.844L103.813 36.464C103.285 36.6386 102.731 36.7186 102.176 36.7002C101.815 36.7204 101.455 36.6622 101.118 36.5293C100.782 36.3965 100.477 36.1921 100.225 35.93C99.6868 35.1835 99.4371 34.2631 99.5234 33.3428V28.5064H98.1428V26.9067H99.5254V25.1517L101.592 24.5199V26.9087H103.913V28.5085Z" fill="white"/>
<path d="M114.386 31.6269C114.437 32.9539 113.991 34.2515 113.137 35.2597C112.699 35.7447 112.161 36.1267 111.561 36.379C110.961 36.6313 110.314 36.7478 109.665 36.7204C109.043 36.7481 108.423 36.637 107.849 36.3948C107.274 36.1526 106.76 35.7853 106.341 35.3191C105.5 34.3429 105.058 33.0794 105.103 31.7848C105.049 30.4466 105.507 29.139 106.38 28.1331C106.817 27.6573 107.351 27.2836 107.946 27.038C108.54 26.7924 109.18 26.6807 109.821 26.7109C110.447 26.6848 111.071 26.7967 111.65 27.0388C112.229 27.2808 112.749 27.6473 113.175 28.1128C114.006 29.085 114.439 30.342 114.386 31.6269ZM112.201 31.6944C112.225 30.8972 112.029 30.1091 111.637 29.4176C111.459 29.0662 111.188 28.7723 110.854 28.5694C110.52 28.3665 110.136 28.2628 109.746 28.2701C109.35 28.2584 108.959 28.3598 108.617 28.5627C108.275 28.7656 107.996 29.0619 107.813 29.4176C107.417 30.1226 107.222 30.9245 107.248 31.7349C107.225 32.5318 107.42 33.3197 107.813 34.0109C107.998 34.359 108.273 34.6495 108.609 34.8514C108.945 35.0532 109.328 35.1587 109.719 35.1566C110.109 35.1545 110.492 35.0449 110.825 34.8395C111.159 34.6342 111.431 34.3407 111.613 33.9907C112.015 33.297 112.219 32.5035 112.201 31.6991V31.6944Z" fill="white"/>
<path d="M121.231 28.7831C121.011 28.7429 120.788 28.7233 120.564 28.7244C120.23 28.7087 119.898 28.7784 119.598 28.9269C119.298 29.0754 119.04 29.298 118.847 29.5742C118.479 30.1339 118.295 30.797 118.321 31.4689V36.5037H116.216L116.236 29.9299C116.236 28.8238 116.21 27.8167 116.157 26.9086H117.991L118.068 28.7446H118.126C118.325 28.1459 118.691 27.6181 119.179 27.2245C119.618 26.8917 120.152 26.7115 120.701 26.7109C120.877 26.71 121.053 26.7231 121.227 26.75L121.231 28.7831Z" fill="white"/>
<path d="M130.648 31.2521C130.653 31.5763 130.627 31.9003 130.571 32.2194H124.253C124.239 32.6274 124.314 33.0336 124.473 33.4091C124.631 33.7846 124.869 34.1202 125.17 34.3922C125.758 34.8583 126.491 35.0963 127.237 35.0631C128.109 35.0746 128.976 34.9206 129.793 34.6089L130.123 36.0891C129.115 36.5064 128.034 36.7084 126.945 36.6824C126.31 36.7181 125.674 36.6198 125.078 36.3938C124.482 36.1678 123.939 35.819 123.483 35.3696C123.053 34.896 122.72 34.3405 122.504 33.7354C122.288 33.1304 122.194 32.4879 122.225 31.8454C122.179 30.5383 122.594 29.2572 123.397 28.2322C123.791 27.7304 124.296 27.3296 124.872 27.0623C125.448 26.7949 126.077 26.6685 126.71 26.6932C127.314 26.6594 127.916 26.7832 128.459 27.0527C129.003 27.3222 129.468 27.7283 129.812 28.2322C130.392 29.1274 130.684 30.1823 130.648 31.2521ZM128.64 30.6993C128.668 30.124 128.525 29.5534 128.231 29.0604C128.058 28.7721 127.81 28.537 127.514 28.3804C127.218 28.2239 126.886 28.1516 126.553 28.1714C126.225 28.1658 125.9 28.2421 125.608 28.3936C125.316 28.5451 125.065 28.7672 124.877 29.0401C124.519 29.5217 124.302 30.0967 124.254 30.6979H128.64V30.6993Z" fill="white"/>
<path d="M58.4442 15.0098C58.4795 15.504 58.4039 15.9998 58.223 16.4602C58.0421 16.9205 57.7606 17.3334 57.3996 17.668C56.6089 18.2641 55.6347 18.5562 54.6509 18.4921C54.1452 18.4965 53.6396 18.4703 53.1369 18.4138V11.9825C53.7266 11.8893 54.3228 11.8442 54.9196 11.8475C55.8329 11.78 56.7401 12.045 57.4776 12.5947C57.8067 12.8986 58.0643 13.2733 58.2316 13.6912C58.3989 14.1091 58.4715 14.5597 58.4442 15.0098ZM57.3529 15.0389C57.3736 14.7206 57.3312 14.4014 57.2282 14.0999C57.1251 13.7985 56.9635 13.5211 56.7529 13.2839C56.517 13.0679 56.2405 12.9025 55.9399 12.7975C55.6393 12.6926 55.3208 12.6502 55.0036 12.673C54.7243 12.6685 54.4453 12.6911 54.1703 12.7405V17.6295C54.4025 17.6543 54.6361 17.664 54.8696 17.6585C55.2042 17.6801 55.5397 17.6319 55.8552 17.5169C56.1707 17.4018 56.4594 17.2223 56.7036 16.9896C56.9335 16.7238 57.1092 16.4147 57.2207 16.0799C57.3321 15.7451 57.3771 15.3913 57.3529 15.0389Z" fill="white"/>
<path d="M64.2309 16.0378C64.2561 16.6897 64.037 17.3272 63.6176 17.8224C63.4021 18.0608 63.1377 18.2486 62.8431 18.3727C62.5484 18.4967 62.2304 18.5541 61.9116 18.5406C61.606 18.5544 61.3012 18.4997 61.0189 18.3806C60.7366 18.2615 60.4837 18.0808 60.2782 17.8515C59.8658 17.3716 59.6487 16.7511 59.6709 16.1154C59.6445 15.4579 59.8692 14.8154 60.2982 14.3212C60.5133 14.0878 60.7758 13.9045 61.0677 13.784C61.3597 13.6635 61.674 13.6086 61.9889 13.6233C62.2965 13.6105 62.6031 13.6653 62.8878 13.7841C63.1724 13.9028 63.4282 14.0826 63.6376 14.3111C64.0445 14.7896 64.2566 15.4068 64.2309 16.0378ZM63.1576 16.0715C63.1685 15.6797 63.0725 15.2925 62.8802 14.9524C62.7932 14.7797 62.66 14.6352 62.4958 14.5354C62.3316 14.4356 62.143 14.3846 61.9516 14.3881C61.757 14.3825 61.5648 14.4325 61.3969 14.5323C61.2291 14.6321 61.0923 14.7776 61.0022 14.9524C60.808 15.2986 60.712 15.6924 60.7249 16.0904C60.714 16.4822 60.81 16.8694 61.0022 17.2095C61.0921 17.3822 61.2275 17.5263 61.3933 17.6259C61.559 17.7255 61.7488 17.7767 61.9416 17.7738C62.1338 17.7752 62.3225 17.7222 62.4866 17.6208C62.6506 17.5195 62.7835 17.3738 62.8702 17.2001C63.0683 16.8585 63.1679 16.4675 63.1576 16.0715Z" fill="white"/>
<path d="M71.9902 13.7192L70.5329 18.4314H69.5849L68.9816 16.3841C68.8313 15.8833 68.7065 15.3751 68.6076 14.8613H68.5889C68.4997 15.3772 68.3747 15.886 68.2149 16.3841L67.5729 18.4314H66.6142L65.2442 13.7192H66.3109L66.8376 15.9602C66.9651 16.4903 67.0704 16.9945 67.1536 17.4729H67.1722C67.2491 17.0769 67.3764 16.576 67.5542 15.9704L68.2142 13.7199H69.0576L69.6909 15.9218C69.8438 16.4586 69.9682 16.9761 70.0642 17.4742H70.0929C70.1708 16.9514 70.2763 16.4332 70.4089 15.9218L70.9735 13.7199H71.9895L71.9902 13.7192Z" fill="white"/>
<path d="M77.3555 18.4333H76.3209V15.7333C76.3209 14.9013 76.0082 14.4852 75.3829 14.4852C75.2407 14.481 75.0995 14.5097 74.97 14.5691C74.8405 14.6285 74.7261 14.7171 74.6355 14.8281C74.4453 15.0536 74.3432 15.3417 74.3482 15.6381V18.434H73.3122V15.0664C73.3122 14.6524 73.2998 14.2024 73.2749 13.7164H74.1842L74.2309 14.4549H74.2595C74.3848 14.221 74.5688 14.0248 74.7929 13.8858C75.0744 13.7093 75.3997 13.6173 75.7309 13.6206C75.9305 13.6144 76.1294 13.6491 76.3155 13.7225C76.5016 13.7959 76.6712 13.9066 76.8142 14.0478C77.004 14.2573 77.1493 14.504 77.2411 14.7727C77.3328 15.0414 77.369 15.3263 77.3475 15.6098L77.3555 18.4333Z" fill="white"/>
<path d="M80.2102 18.4333H79.1762V11.5564H80.2102V18.4333Z" fill="white"/>
<path d="M86.3042 16.0378C86.3294 16.6897 86.1103 17.3272 85.6908 17.8225C85.4751 18.0609 85.2105 18.2486 84.9156 18.3725C84.6206 18.4965 84.3025 18.5536 83.9835 18.54C83.6779 18.5539 83.3731 18.4994 83.0908 18.3803C82.8084 18.2611 82.5555 18.0803 82.3502 17.8508C81.9377 17.371 81.7206 16.7505 81.7428 16.1148C81.7165 15.4573 81.9411 14.8148 82.3702 14.3206C82.5851 14.0872 82.8475 13.904 83.1393 13.7834C83.4312 13.6629 83.7453 13.6081 84.0602 13.6227C84.3678 13.61 84.6745 13.6649 84.9592 13.7837C85.2439 13.9024 85.4999 14.0821 85.7095 14.3105C86.1171 14.789 86.3297 15.4065 86.3042 16.0378ZM85.2295 16.0716C85.2404 15.6798 85.1444 15.2926 84.9522 14.9524C84.8654 14.7798 84.7324 14.6354 84.5684 14.5356C84.4045 14.4358 84.2161 14.3847 84.0248 14.3881C83.8302 14.3823 83.6379 14.4322 83.47 14.532C83.3021 14.6318 83.1654 14.7775 83.0755 14.9524C82.8812 15.2986 82.7852 15.6925 82.7982 16.0905C82.7873 16.4822 82.8832 16.8694 83.0755 17.2096C83.1654 17.3822 83.3007 17.5263 83.4665 17.6259C83.6323 17.7255 83.8221 17.7767 84.0148 17.7739C84.2068 17.7751 84.3954 17.7221 84.5592 17.6207C84.723 17.5194 84.8557 17.3737 84.9422 17.2001C85.1407 16.8587 85.2403 16.4676 85.2295 16.0716Z" fill="white"/>
<path d="M91.3135 18.4334H90.3848L90.3075 17.8934H90.2788C90.1225 18.1067 89.9165 18.2776 89.6793 18.391C89.442 18.5044 89.1808 18.5567 88.9188 18.5434C88.722 18.5517 88.5256 18.5179 88.3426 18.4443C88.1595 18.3707 87.9937 18.2589 87.8561 18.1161C87.7359 17.9884 87.6417 17.8378 87.5791 17.6731C87.5166 17.5083 87.4868 17.3327 87.4915 17.1563C87.4812 16.8913 87.5422 16.6284 87.668 16.3958C87.7937 16.1631 87.9795 15.9694 88.2055 15.8353C88.8199 15.4978 89.516 15.3431 90.2135 15.3891V15.3014C90.2135 14.6804 89.8913 14.3701 89.2468 14.3706C88.8169 14.3623 88.3943 14.4837 88.0328 14.7195L87.8221 14.0317C88.3074 13.7473 88.8618 13.6069 89.4221 13.6267C90.639 13.6267 91.2481 14.2767 91.2495 15.5768V17.3129C91.2426 17.6875 91.264 18.0621 91.3135 18.4334ZM90.2388 16.8134V16.0864C89.097 16.0666 88.5261 16.3832 88.5261 17.0361C88.5185 17.1374 88.5324 17.2391 88.5669 17.3345C88.6014 17.4299 88.6557 17.5166 88.7261 17.5889C88.8652 17.7139 89.0464 17.7798 89.2321 17.7732C89.4611 17.7727 89.6836 17.6961 89.8655 17.5552C89.9829 17.4716 90.0784 17.3603 90.1438 17.2309C90.2092 17.1015 90.2425 16.958 90.2408 16.8127L90.2388 16.8134Z" fill="white"/>
<path d="M97.1955 18.4333H96.2768L96.2275 17.6766H96.1988C96.0621 17.9544 95.847 18.1848 95.5808 18.3386C95.3145 18.4924 95.0092 18.5627 94.7035 18.5406C94.4351 18.5451 94.1693 18.4872 93.9265 18.3712C93.6838 18.2552 93.4706 18.0843 93.3035 17.8717C92.9178 17.3796 92.7205 16.7631 92.7481 16.1356C92.7173 15.4638 92.9321 14.8041 93.3515 14.2827C93.5284 14.0724 93.7489 13.9043 93.9973 13.7902C94.2458 13.6761 94.516 13.6188 94.7888 13.6226C95.0444 13.5967 95.302 13.6427 95.5334 13.7556C95.7648 13.8686 95.9609 14.0439 96.1001 14.2625H96.1201V11.5564H97.1608V17.1636C97.1608 17.6226 97.1723 18.0458 97.1955 18.4333ZM96.1228 16.4461V15.6597C96.125 15.549 96.1154 15.4383 96.0941 15.3296C96.039 15.0831 95.9081 14.8607 95.7201 14.6945C95.5291 14.524 95.282 14.4322 95.0275 14.4373C94.8492 14.4313 94.6724 14.4708 94.5133 14.5522C94.3541 14.6336 94.2178 14.7542 94.1168 14.903C93.8836 15.2547 93.7668 15.6724 93.7835 16.0957C93.7652 16.4989 93.8768 16.8971 94.1015 17.2304C94.2023 17.3779 94.3377 17.4976 94.4957 17.5788C94.6536 17.66 94.829 17.7001 95.0061 17.6955C95.163 17.7003 95.3188 17.6677 95.4609 17.6003C95.603 17.5329 95.7274 17.4325 95.8241 17.3074C96.0239 17.0666 96.1301 16.7604 96.1228 16.4461Z" fill="white"/>
<path d="M106.047 16.0378C106.073 16.6897 105.854 17.3272 105.434 17.8225C105.219 18.061 104.954 18.2488 104.66 18.3729C104.365 18.497 104.047 18.5543 103.728 18.5407C103.423 18.5542 103.118 18.4995 102.836 18.3804C102.553 18.2613 102.3 18.0807 102.095 17.8515C101.682 17.3717 101.465 16.7511 101.487 16.1154C101.461 15.458 101.686 14.8155 102.115 14.3213C102.33 14.0877 102.593 13.9043 102.885 13.7838C103.177 13.6633 103.492 13.6085 103.807 13.6233C104.114 13.6106 104.421 13.6655 104.705 13.7842C104.989 13.9029 105.245 14.0827 105.454 14.3112C105.861 14.7897 106.073 15.4069 106.047 16.0378ZM104.975 16.0716C104.986 15.6798 104.89 15.2926 104.697 14.9524C104.61 14.7797 104.477 14.6352 104.313 14.5355C104.148 14.4357 103.96 14.3847 103.768 14.3881C103.574 14.3829 103.382 14.433 103.214 14.5328C103.046 14.6325 102.909 14.7779 102.819 14.9524C102.624 15.2986 102.528 15.6925 102.541 16.0905C102.531 16.4822 102.626 16.8694 102.819 17.2096C102.91 17.3803 103.045 17.5228 103.21 17.6217C103.375 17.7206 103.563 17.7723 103.755 17.7713C103.947 17.7703 104.135 17.7165 104.298 17.6158C104.462 17.5151 104.596 17.3712 104.685 17.1995C104.884 16.8581 104.984 16.4675 104.975 16.0716Z" fill="white"/>
<path d="M111.613 18.4333H110.579V15.7333C110.579 14.9013 110.266 14.4852 109.639 14.4852C109.497 14.4811 109.356 14.5098 109.227 14.5692C109.098 14.6287 108.983 14.7172 108.893 14.8281C108.703 15.0536 108.6 15.3417 108.605 15.6381V18.434H107.569V15.0664C107.569 14.6524 107.557 14.2024 107.533 13.7164H108.441L108.49 14.4535H108.519C108.645 14.2201 108.828 14.024 109.052 13.8845C109.334 13.7079 109.66 13.6159 109.991 13.6192C110.191 13.6131 110.39 13.6478 110.576 13.7212C110.762 13.7946 110.931 13.9053 111.074 14.0465C111.264 14.2558 111.41 14.5025 111.501 14.7713C111.593 15.04 111.629 15.325 111.607 15.6084L111.613 18.4333Z" fill="white"/>
<path d="M118.579 14.5043H117.439V16.7945C117.439 17.3764 117.639 17.6673 118.042 17.6673C118.197 17.6708 118.352 17.6543 118.503 17.618L118.53 18.4132C118.271 18.4995 117.999 18.5391 117.726 18.5299C117.549 18.5401 117.372 18.5115 117.207 18.4463C117.042 18.3811 116.892 18.2807 116.769 18.1519C116.503 17.7857 116.38 17.3333 116.423 16.8809V14.5043H115.742V13.7192H116.423V12.8525L117.437 12.5427V13.7186H118.577V14.5043H118.579Z" fill="white"/>
<path d="M124.058 18.4333H123.021V15.7535C123.021 14.9084 122.709 14.4857 122.084 14.4852C121.862 14.4773 121.643 14.5456 121.464 14.679C121.285 14.8124 121.156 15.0031 121.097 15.2203C121.063 15.343 121.046 15.4701 121.048 15.5976V18.4326H120.015V11.5564H121.049V14.3975H121.069C121.212 14.153 121.418 13.9521 121.664 13.8158C121.91 13.6794 122.188 13.6127 122.469 13.6226C122.666 13.6161 122.862 13.6507 123.046 13.7242C123.229 13.7977 123.396 13.9085 123.535 14.0498C123.723 14.2644 123.866 14.5148 123.957 14.7863C124.047 15.0578 124.083 15.3449 124.062 15.6307L124.058 18.4333Z" fill="white"/>
<path d="M129.711 15.8536C129.712 16.012 129.699 16.1702 129.672 16.3261H126.568C126.562 16.5264 126.598 16.7257 126.676 16.9101C126.754 17.0944 126.87 17.2593 127.017 17.3933C127.306 17.6222 127.667 17.7393 128.033 17.7234C128.462 17.7292 128.888 17.6536 129.289 17.5006L129.451 18.2289C128.955 18.4335 128.423 18.5325 127.888 18.5199C127.576 18.5373 127.264 18.489 126.971 18.3779C126.678 18.2669 126.412 18.0954 126.188 17.8746C125.977 17.6421 125.813 17.3693 125.707 17.0722C125.601 16.775 125.555 16.4594 125.571 16.1439C125.548 15.5017 125.751 14.8723 126.145 14.3686C126.339 14.122 126.587 13.925 126.87 13.7937C127.153 13.6623 127.462 13.6003 127.773 13.6126C128.069 13.5961 128.365 13.657 128.631 13.7894C128.898 13.9217 129.126 14.1212 129.295 14.3686C129.584 14.8073 129.729 15.3267 129.711 15.8536ZM128.723 15.5836C128.738 15.301 128.668 15.0204 128.523 14.7783C128.438 14.6368 128.316 14.5214 128.171 14.4445C128.026 14.3675 127.863 14.332 127.699 14.3416C127.538 14.3388 127.378 14.3763 127.235 14.4509C127.091 14.5254 126.967 14.6346 126.875 14.7689C126.7 15.0061 126.593 15.2883 126.568 15.5836H128.723Z" fill="white"/>
<defs>
<filter id="filter0_d_7_1158" x="0" y="0" width="153.334" height="59.9999" filterUnits="userSpaceOnUse" color-interpolation-filters="sRGB">
<feFlood flood-opacity="0" result="BackgroundImageFix"/>
<feColorMatrix in="SourceAlpha" type="matrix" values="0 0 0 0 0 0 0 0 0 0 0 0 0 0 0 0 0 0 127 0" result="hardAlpha"/>
<feOffset dy="5"/>
<feGaussianBlur stdDeviation="5"/>
<feColorMatrix type="matrix" values="0 0 0 0 0 0 0 0 0 0 0 0 0 0 0 0 0 0 0.161 0"/>
<feBlend mode="normal" in2="BackgroundImageFix" result="effect1_dropShadow_7_1158"/>
<feBlend mode="normal" in="SourceGraphic" in2="effect1_dropShadow_7_1158" result="shape"/>
</filter>
</defs>
</svg>
