<svg width="154" height="60" viewBox="0 0 154 60" fill="none" xmlns="http://www.w3.org/2000/svg">
<g filter="url(#filter0_d_7_1190)">
<path fill-rule="evenodd" clip-rule="evenodd" d="M138.727 45H15.2738C13.9676 44.9993 12.7148 44.473 11.7892 43.5361C10.8635 42.5992 10.3403 41.3279 10.3338 40V10C10.3378 8.67131 10.8603 7.39856 11.7865 6.46113C12.7127 5.5237 13.9669 4.9982 15.2738 5H138.727C140.034 4.99946 141.287 5.52535 142.213 6.46251C143.139 7.39967 143.662 8.6717 143.667 10V40C143.66 41.3278 143.137 42.5989 142.211 43.5357C141.286 44.4725 140.033 44.9989 138.727 45Z" fill="black"/>
</g>
<path d="M80.5744 18.2317C80.1581 18.2416 79.7443 18.1632 79.3596 18.0013C78.9748 17.8394 78.6274 17.5977 78.3398 17.2916C78.0473 16.9891 77.8168 16.6304 77.6619 16.2366C77.5069 15.8427 77.4305 15.4215 77.4371 14.9973C77.427 14.5731 77.5017 14.1512 77.6569 13.7572C77.8121 13.3633 78.0444 13.0056 78.3398 12.7057C78.6268 12.3995 78.9736 12.1577 79.358 11.9958C79.7424 11.8339 80.1559 11.7555 80.5718 11.7656C80.9878 11.7576 81.401 11.837 81.7855 11.9988C82.17 12.1605 82.5176 12.4012 82.8064 12.7057C83.3857 13.3234 83.709 14.1442 83.709 14.9977C83.709 15.8512 83.3857 16.6719 82.8064 17.2896C82.5202 17.597 82.1735 17.8397 81.789 18.002C81.4045 18.1643 80.9906 18.2426 80.5744 18.2317ZM54.0811 18.2317C53.6648 18.238 53.2517 18.159 52.8661 17.9996C52.4804 17.8402 52.1303 17.6036 51.8364 17.3038C51.3855 16.8531 51.077 16.2759 50.9505 15.6459C50.8239 15.016 50.8851 14.3621 51.1261 13.7677C51.3671 13.1733 51.777 12.6655 52.3034 12.3092C52.8298 11.9529 53.4487 11.7644 54.0811 11.7677C54.5123 11.767 54.939 11.857 55.3344 12.032C55.7014 12.1841 56.0281 12.4216 56.2884 12.7254L56.3471 12.7979L55.6804 13.4615L55.6138 13.3794C55.4255 13.1531 55.1883 12.9742 54.9207 12.8566C54.653 12.739 54.3622 12.686 54.0711 12.7017C53.7857 12.6981 53.5026 12.7528 53.2385 12.8624C52.9743 12.9721 52.7345 13.1345 52.5331 13.3401C52.1174 13.7897 51.8859 14.3836 51.8859 15.0007C51.8859 15.6178 52.1174 16.2117 52.5331 16.6613C52.9521 17.071 53.5108 17.2999 54.0921 17.2999C54.6735 17.2999 55.2322 17.071 55.6511 16.6613C55.9126 16.3763 56.0716 16.0099 56.1025 15.6216H53.9691V14.6889H57.0158L57.0278 14.7736C57.053 14.9288 57.0678 15.0855 57.0718 15.2427C57.0893 15.6221 57.0309 16.0011 56.9002 16.3569C56.7694 16.7127 56.5691 17.0379 56.3111 17.3126C56.0231 17.6156 55.6759 17.8539 55.2918 18.0122C54.9078 18.1705 54.4953 18.2453 54.0811 18.2317ZM89.3071 18.0961H88.3678L85.4904 13.4154L85.5151 14.2585V18.0941H84.5785V11.9012H85.6504L85.6798 11.9487L88.3851 16.3542L88.3604 15.5138V11.9012H89.3097L89.3071 18.0961ZM73.5158 18.0961H72.5637V12.8291H70.9118V11.9012H75.1624V12.8338H73.5117V18.1009L73.5158 18.0961ZM70.1384 18.0961H69.1891V11.9012H70.1384V18.0961ZM64.8051 18.0961H63.8557V12.8291H62.2051V11.9012H66.4557V12.8338H64.8051V18.0961ZM61.6051 18.086H57.9651V11.9012H61.6051V12.8338H58.9118V14.5344H61.3377V15.4569H58.9118V17.1574H61.6004L61.6051 18.086ZM79.0405 16.647C79.2398 16.8561 79.479 17.0214 79.7435 17.133C80.008 17.2445 80.2922 17.2999 80.5785 17.2957C80.8652 17.3032 81.1503 17.2493 81.4152 17.1376C81.6802 17.0258 81.9191 16.8587 82.1165 16.647C82.5198 16.195 82.7431 15.6066 82.7431 14.9963C82.7431 14.386 82.5198 13.7976 82.1165 13.3456C81.917 13.1367 81.6777 12.9715 81.4133 12.86C81.1488 12.7484 80.8647 12.693 80.5785 12.6969C80.2924 12.6896 80.008 12.7436 79.7438 12.8553C79.4797 12.9671 79.2416 13.1341 79.0451 13.3456C78.642 13.7974 78.4184 14.3854 78.4175 14.9954C78.4166 15.6054 78.6386 16.194 79.0405 16.647Z" fill="white"/>
<path fill-rule="evenodd" clip-rule="evenodd" d="M77.3484 26.7561C76.5215 26.7592 75.7139 27.0113 75.0277 27.4807C74.3416 27.95 73.8076 28.6156 73.4932 29.3932C73.1788 30.1709 73.0982 31.0258 73.2614 31.8501C73.4246 32.6743 73.8244 33.4309 74.4102 34.0244C74.996 34.6178 75.7417 35.0214 76.553 35.1843C77.3644 35.3472 78.205 35.2621 78.9687 34.9396C79.7325 34.6172 80.3851 34.0719 80.8442 33.3726C81.3034 32.6733 81.5485 31.8513 81.5485 31.0105C81.5574 30.448 81.4547 29.8895 81.2466 29.3682C81.0384 28.8469 80.7291 28.3736 80.3371 27.9765C79.9451 27.5795 79.4785 27.2668 78.965 27.0571C78.4515 26.8474 77.9017 26.745 77.3484 26.7561ZM77.3484 33.5794C76.839 33.6167 76.3302 33.4971 75.8886 33.2362C75.4469 32.9754 75.0927 32.5853 74.8722 32.1169C74.6517 31.6485 74.5751 31.1234 74.6523 30.61C74.7296 30.0967 74.9571 29.6189 75.3053 29.2389C75.6535 28.859 76.1062 28.5944 76.6044 28.4797C77.1026 28.365 77.6232 28.4056 78.0984 28.5961C78.5736 28.7865 78.9813 29.1181 79.2685 29.5475C79.5557 29.977 79.709 30.4845 79.7085 31.0038C79.7234 31.3313 79.6738 31.6585 79.5626 31.9662C79.4515 32.274 79.281 32.5561 79.0612 32.7959C78.8413 33.0358 78.5766 33.2285 78.2824 33.363C77.9883 33.4974 77.6708 33.5707 77.3484 33.5787V33.5794ZM68.1918 26.7561C67.3648 26.7592 66.5572 27.0113 65.8711 27.4807C65.1849 27.95 64.6509 28.6156 64.3366 29.3932C64.0222 30.1709 63.9415 31.0258 64.1047 31.8501C64.2679 32.6743 64.6677 33.4309 65.2536 34.0244C65.8394 34.6178 66.585 35.0214 67.3964 35.1843C68.2077 35.3472 69.0483 35.2621 69.8121 34.9396C70.5758 34.6172 71.2284 34.0719 71.6876 33.3726C72.1467 32.6733 72.3917 31.8513 72.3917 31.0105C72.4007 30.448 72.2981 29.8894 72.0901 29.3681C71.882 28.8468 71.5727 28.3734 71.1806 27.9763C70.7886 27.5792 70.3219 27.2665 69.8084 27.0569C69.2949 26.8472 68.7451 26.7449 68.1918 26.7561ZM68.1918 33.5794C67.6823 33.6168 67.1735 33.4973 66.7317 33.2366C66.29 32.9758 65.9357 32.5858 65.7151 32.1174C65.4945 31.649 65.4178 31.1239 65.4949 30.6105C65.5721 30.0971 65.7996 29.6193 66.1478 29.2392C66.4959 28.8592 66.9485 28.5945 67.4467 28.4798C67.945 28.3651 68.4656 28.4056 68.9408 28.596C69.416 28.7865 69.8238 29.118 70.1111 29.5475C70.3983 29.977 70.5516 30.4845 70.5511 31.0038C70.566 31.3312 70.5164 31.6584 70.4053 31.9661C70.2942 32.2738 70.1238 32.5558 69.904 32.7957C69.6843 33.0355 69.4197 33.2283 69.1256 33.3628C68.8316 33.4972 68.5141 33.5706 68.1918 33.5787V33.5794ZM57.2958 28.0554V29.8563H61.5464C61.4835 30.6998 61.1451 31.4978 60.5851 32.1235C60.1601 32.5651 59.6485 32.9109 59.0835 33.1386C58.5186 33.3663 57.913 33.4707 57.3058 33.4452C56.0633 33.4302 54.8766 32.9178 54.0031 32.0191C53.1297 31.1205 52.6399 29.9081 52.6399 28.6448C52.6399 27.3814 53.1297 26.169 54.0031 25.2704C54.8766 24.3717 56.0633 23.8594 57.3058 23.8444C58.4974 23.8297 59.6468 24.2923 60.5057 25.1322L61.7618 23.8552C61.1775 23.2652 60.4831 22.8 59.7193 22.4868C58.9555 22.1737 58.1378 22.0191 57.3144 22.032C56.454 22.0195 55.5996 22.1809 54.8011 22.507C54.0025 22.8331 53.2757 23.3174 52.6629 23.9316C52.0501 24.5458 51.5634 25.2777 51.2313 26.0847C50.8991 26.8918 50.7281 27.758 50.7281 28.6329C50.7281 29.5078 50.8991 30.374 51.2313 31.1811C51.5634 31.9882 52.0501 32.7201 52.6629 33.3343C53.2757 33.9484 54.0025 34.4327 54.8011 34.7588C55.5996 35.0849 56.454 35.2463 57.3144 35.2338C58.1562 35.2689 58.9958 35.1216 59.7773 34.8018C60.5589 34.482 61.2646 33.9969 61.8478 33.3787C62.8833 32.2296 63.4361 30.7145 63.3884 29.1568C63.3931 28.7803 63.3603 28.4042 63.2904 28.0344H57.2904L57.2964 28.0548L57.2958 28.0554ZM101.862 29.4571C101.611 28.6856 101.132 28.0114 100.491 27.5263C99.85 27.0412 99.0774 26.7687 98.2785 26.7459C97.7409 26.7494 97.2096 26.8637 96.7167 27.0819C96.2238 27.3 95.7796 27.6175 95.4109 28.0152C95.0421 28.4129 94.7566 28.8825 94.5714 29.3956C94.3863 29.9087 94.3055 30.4546 94.3338 31.0004C94.321 31.5599 94.4193 32.1163 94.6231 32.6362C94.8268 33.1561 95.1317 33.6289 95.5195 34.0261C95.9073 34.4234 96.3699 34.7369 96.8797 34.9481C97.3895 35.1592 97.936 35.2636 98.4865 35.2548C99.1759 35.259 99.8555 35.0886 100.464 34.7591C101.072 34.4296 101.591 33.9512 101.972 33.3672L100.552 32.3993C100.339 32.7602 100.038 33.0587 99.6777 33.2651C99.3173 33.4716 98.9102 33.5789 98.4965 33.5766C98.0698 33.593 97.648 33.4791 97.2856 33.2496C96.9232 33.0201 96.6367 32.6855 96.4631 32.2889L102.058 29.9322L101.862 29.4564L101.862 29.4571ZM96.1565 30.8804C96.1374 30.5712 96.1789 30.2613 96.2789 29.9686C96.3788 29.6759 96.535 29.4064 96.7384 29.1757C96.9418 28.945 97.1883 28.7578 97.4636 28.6249C97.7389 28.492 98.0374 28.4162 98.3418 28.4018C98.659 28.3795 98.9757 28.4531 99.2519 28.6132C99.5282 28.7734 99.7517 29.013 99.8944 29.3019L96.1565 30.8804ZM91.6111 35.0027H93.4485V22.5017H91.6111V35.0027ZM88.5938 27.7037H88.5271C88.2475 27.3935 87.9059 27.1478 87.5252 26.9831C87.1445 26.8183 86.7335 26.7384 86.3198 26.7487C85.2412 26.7946 84.2218 27.2625 83.4746 28.0547C82.7274 28.8468 82.3103 29.9019 82.3103 30.9994C82.3103 32.0969 82.7274 33.152 83.4746 33.9441C84.2218 34.7362 85.2412 35.2041 86.3198 35.2501C86.7345 35.2592 87.1462 35.1775 87.5271 35.0105C87.9079 34.8435 88.249 34.5951 88.5271 34.2822H88.5938V34.8922C88.5938 36.5189 87.7397 37.3912 86.3637 37.3912C85.9045 37.3799 85.4588 37.2302 85.0833 36.9612C84.7078 36.6921 84.4193 36.3157 84.2544 35.8797L82.6544 36.5575C82.957 37.3026 83.4707 37.9393 84.1303 38.3865C84.79 38.8337 85.5656 39.0712 86.3584 39.0687C88.5118 39.0687 90.3371 37.7809 90.3371 34.6347V27.0001H88.6004V27.7009L88.5938 27.7037ZM86.4844 33.5814C85.849 33.5269 85.2569 33.2318 84.8253 32.7545C84.3938 32.2772 84.1543 31.6525 84.1543 31.0041C84.1543 30.3558 84.3938 29.7311 84.8253 29.2538C85.2569 28.7765 85.849 28.4814 86.4844 28.4269C86.7999 28.4425 87.109 28.5225 87.3934 28.6622C87.6777 28.8019 87.9315 28.9984 88.1395 29.24C88.3476 29.4815 88.5056 29.7632 88.6043 30.0682C88.703 30.3733 88.7402 30.6953 88.7138 31.0153C88.7408 31.334 88.7039 31.655 88.6053 31.9587C88.5066 32.2625 88.3484 32.5427 88.14 32.7824C87.9317 33.0221 87.6776 33.2162 87.3933 33.3531C87.1089 33.49 86.8001 33.5667 86.4857 33.5787L86.4844 33.5814ZM110.464 22.5037H106.07V35.0027H107.908V30.2698H110.466C110.985 30.2985 111.504 30.2194 111.992 30.0373C112.48 29.8551 112.926 29.5738 113.304 29.2104C113.681 28.8471 113.982 28.4093 114.187 27.9239C114.393 27.4384 114.499 26.9155 114.499 26.3871C114.499 25.8586 114.393 25.3357 114.187 24.8503C113.982 24.3648 113.681 23.9271 113.304 23.5637C112.926 23.2003 112.48 22.919 111.992 22.7369C111.504 22.5547 110.985 22.4756 110.466 22.5044L110.464 22.5037ZM110.518 28.5238H107.905V24.2348H110.518C110.799 24.2276 111.079 24.2777 111.341 24.3823C111.603 24.4868 111.842 24.6436 112.044 24.8434C112.245 25.0433 112.406 25.2822 112.515 25.5459C112.624 25.8097 112.681 26.093 112.681 26.3793C112.681 26.6655 112.624 26.9489 112.515 27.2126C112.406 27.4764 112.245 27.7153 112.044 27.9151C111.842 28.1149 111.603 28.2717 111.341 28.3763C111.079 28.4808 110.799 28.531 110.518 28.5238ZM121.862 26.7358C121.193 26.6966 120.526 26.8563 119.944 27.1954C119.361 27.5345 118.889 28.0384 118.583 28.6458L120.212 29.3337C120.373 29.0319 120.617 28.7841 120.914 28.6204C121.211 28.4567 121.548 28.384 121.885 28.4113C122.351 28.366 122.816 28.51 123.178 28.8118C123.54 29.1136 123.771 29.5488 123.818 30.0224V30.1545C123.228 29.8398 122.572 29.6756 121.905 29.676C120.146 29.676 118.363 30.6534 118.363 32.4868C118.363 34.165 119.805 35.2426 121.412 35.2426C121.873 35.2701 122.333 35.1714 122.744 34.9569C123.155 34.7423 123.502 34.4197 123.749 34.0226H123.816V34.9905H125.592V30.2027C125.592 27.968 123.96 26.7331 121.864 26.7331L121.862 26.7358ZM121.632 33.5814C121.032 33.5814 120.19 33.2818 120.19 32.5139C120.19 31.546 121.24 31.18 122.134 31.18C122.72 31.1617 123.299 31.3075 123.808 31.6016C123.743 32.1433 123.487 32.6425 123.086 33.0063C122.686 33.37 122.17 33.5734 121.633 33.5787L121.632 33.5814ZM132.049 27.0028L129.94 32.4251H129.873L127.688 27.0028H125.711L128.99 34.5811L127.124 38.7929H129.037L134.082 26.9994L132.049 27.0028ZM115.512 35.0007H117.349V22.5017H115.512V35.0007Z" fill="white"/>
<path fill-rule="evenodd" clip-rule="evenodd" d="M20.5965 12.5342C20.2768 12.93 20.1165 13.4342 20.1478 13.9454V36.0573C20.1123 36.567 20.2773 37.0701 20.6064 37.4563L20.6825 37.524L32.8684 25.1349V24.8583L20.6724 12.4664L20.5965 12.5342Z" fill="url(#paint0_linear_7_1190)"/>
<path fill-rule="evenodd" clip-rule="evenodd" d="M36.9251 29.2769L32.8584 25.1424V24.8577L36.9251 20.7233L37.0138 20.7782L41.8211 23.5571C43.1971 24.3454 43.1971 25.6467 41.8211 26.4451L37.0138 29.224L36.9251 29.2769Z" fill="url(#paint1_linear_7_1190)"/>
<path fill-rule="evenodd" clip-rule="evenodd" d="M37.0111 29.2219L32.8584 25L20.5964 37.4664C21.0451 37.9551 21.7964 38.0087 22.6398 37.5342L37.0111 29.2226" fill="url(#paint2_linear_7_1190)"/>
<path fill-rule="evenodd" clip-rule="evenodd" d="M37.0111 20.7781L22.6398 12.4787C21.7984 11.99 21.0398 12.0571 20.5964 12.5464L32.8584 25.0007L37.0111 20.7781Z" fill="url(#paint3_linear_7_1190)"/>
<path opacity="0.2" fill-rule="evenodd" clip-rule="evenodd" d="M36.9231 29.1323L22.6498 37.3769C22.3684 37.5978 22.0233 37.7185 21.6678 37.7203C21.3123 37.7221 20.966 37.6051 20.6824 37.387L20.6064 37.4643L20.6824 37.5321C20.9662 37.7496 21.3124 37.8664 21.6678 37.8645C22.0232 37.8627 22.3682 37.7423 22.6498 37.5219L37.0211 29.2225L36.9231 29.1323Z" fill="black"/>
<path opacity="0.12" fill-rule="evenodd" clip-rule="evenodd" d="M41.8191 26.2994L36.9104 29.1325L36.9984 29.222L41.8064 26.4431C42.0892 26.318 42.3338 26.1181 42.5146 25.8641C42.6954 25.6102 42.8058 25.3115 42.8344 24.9994C42.7803 25.283 42.6598 25.5492 42.483 25.7755C42.3063 26.0018 42.0786 26.1815 41.8191 26.2994Z" fill="black"/>
<path opacity="0.25" fill-rule="evenodd" clip-rule="evenodd" d="M22.6398 12.623L41.8191 23.7007C42.0791 23.8195 42.3078 23.9991 42.4864 24.225C42.6651 24.4508 42.7887 24.7163 42.8471 25C42.8185 24.6878 42.7081 24.3892 42.5272 24.1353C42.3464 23.8813 42.1019 23.6814 41.8191 23.5563L22.6398 12.4786C21.2638 11.6782 20.1478 12.3465 20.1478 13.9447V14.0891C20.1478 12.4888 21.2638 11.8327 22.6398 12.623Z" fill="white"/>
<defs>
<filter id="filter0_d_7_1190" x="0.333771" y="0" width="153.333" height="60" filterUnits="userSpaceOnUse" color-interpolation-filters="sRGB">
<feFlood flood-opacity="0" result="BackgroundImageFix"/>
<feColorMatrix in="SourceAlpha" type="matrix" values="0 0 0 0 0 0 0 0 0 0 0 0 0 0 0 0 0 0 127 0" result="hardAlpha"/>
<feOffset dy="5"/>
<feGaussianBlur stdDeviation="5"/>
<feColorMatrix type="matrix" values="0 0 0 0 0 0 0 0 0 0 0 0 0 0 0 0 0 0 0.161 0"/>
<feBlend mode="normal" in2="BackgroundImageFix" result="effect1_dropShadow_7_1190"/>
<feBlend mode="normal" in="SourceGraphic" in2="effect1_dropShadow_7_1190" result="shape"/>
</filter>
<linearGradient id="paint0_linear_7_1190" x1="51.6002" y1="38.4011" x2="50.1125" y2="38.1969" gradientUnits="userSpaceOnUse">
<stop stop-color="#00A0FF"/>
<stop offset="0.007" stop-color="#00A1FF"/>
<stop offset="0.26" stop-color="#00BEFF"/>
<stop offset="0.512" stop-color="#00D2FF"/>
<stop offset="0.76" stop-color="#00DFFF"/>
<stop offset="1" stop-color="#00E3FF"/>
</linearGradient>
<linearGradient id="paint1_linear_7_1190" x1="52.3481" y1="36.7955" x2="49.7494" y2="36.7955" gradientUnits="userSpaceOnUse">
<stop stop-color="#FFE000"/>
<stop offset="0.409" stop-color="#FFBD00"/>
<stop offset="0.775" stop-color="#FFA500"/>
<stop offset="1" stop-color="#FF9C00"/>
</linearGradient>
<linearGradient id="paint2_linear_7_1190" x1="52.2111" y1="37.1683" x2="51.191" y2="34.9796" gradientUnits="userSpaceOnUse">
<stop stop-color="#FF3A44"/>
<stop offset="1" stop-color="#C31162"/>
</linearGradient>
<linearGradient id="paint3_linear_7_1190" x1="51.0621" y1="39.053" x2="51.5224" y2="38.0783" gradientUnits="userSpaceOnUse">
<stop stop-color="#32A071"/>
<stop offset="0.068" stop-color="#2DA771"/>
<stop offset="0.476" stop-color="#15CF74"/>
<stop offset="0.801" stop-color="#06E775"/>
<stop offset="1" stop-color="#00F076"/>
</linearGradient>
</defs>
</svg>
