<svg width="200" height="60" viewBox="0 0 200 60" fill="none" xmlns="http://www.w3.org/2000/svg">
<g clip-path="url(#clip0_7_963)">
<path d="M23.5621 28.2863C24.0867 27.1819 24.3605 25.9747 24.3636 24.7515V22.743C24.3646 21.7987 24.1797 20.8633 23.8195 19.9907C23.4594 19.118 22.9311 18.3251 22.2648 17.6573C21.5986 16.9895 20.8075 16.46 19.9369 16.099C19.0662 15.7381 18.1331 15.5527 17.1909 15.5537H2.38419e-06V19.7712H17.1909C17.5805 19.7704 17.9664 19.8467 18.3266 19.9957C18.6867 20.1447 19.014 20.3636 19.2895 20.6397C19.5651 20.9158 19.7835 21.2438 19.9323 21.6047C20.081 21.9657 20.1572 22.3525 20.1565 22.743V24.7515C20.1654 25.5616 19.862 26.3438 19.3094 26.935C18.7569 27.5262 17.9979 27.8807 17.1909 27.9246H2.38419e-06V44.1512H21.3987C23.2995 44.1463 25.121 43.3873 26.4651 42.0401C27.8092 40.6929 28.5665 38.8671 28.5714 36.9619V35.1146C28.5799 33.5678 28.0878 32.0599 27.169 30.8171C26.2496 29.6274 24.992 28.745 23.5621 28.2863ZM24.3636 36.9619C24.3644 37.3524 24.2882 37.7392 24.1394 38.1002C23.9906 38.4611 23.7722 38.7891 23.4967 39.0652C23.2211 39.3413 22.8939 39.5602 22.5338 39.7092C22.1736 39.8583 21.7877 39.9346 21.398 39.9337H4.20524V32.1427H21.3961C21.7858 32.1419 22.1718 32.2182 22.532 32.3673C22.8922 32.5164 23.2194 32.7353 23.495 33.0115C23.7705 33.2876 23.9889 33.6157 24.1377 33.9767C24.2864 34.3377 24.3625 34.7246 24.3617 35.1152L24.3636 36.9619Z" fill="url(#paint0_linear_7_963)"/>
<path d="M120.935 15.5542L101.941 38.9297V27.9251H97.7736V44.1092L97.7337 44.1498H103.063L111.76 33.5063C118.25 41.1374 114.764 37.081 120.855 44.1498H126.387L114.447 30.1728L126.387 15.5529L120.935 15.5542Z" fill="url(#paint1_linear_7_963)"/>
<path d="M134.199 15.5542H129.991V44.1518H134.199V15.5542Z" fill="url(#paint2_linear_7_963)"/>
<path d="M162.569 37.6446L142.413 15.5542H138.205V19.7717H140.61L162.849 44.1518H166.773V15.5542H162.567L162.569 37.6446Z" fill="url(#paint3_linear_7_963)"/>
<path d="M142.413 27.9251H138.206V44.1518H142.413V27.9251Z" fill="url(#paint4_linear_7_963)"/>
<path d="M185.09 27.9251V32.1426H195.149V44.1518H199.355V27.9251H185.09Z" fill="url(#paint5_linear_7_963)"/>
<path d="M174.992 36.9624V22.7835C174.988 22.3869 175.063 21.9935 175.213 21.6264C175.362 21.2592 175.583 20.9256 175.863 20.645C176.143 20.3645 176.475 20.1428 176.842 19.9927C177.208 19.8426 177.6 19.7673 177.996 19.7711H192.183C192.573 19.7669 192.961 19.8409 193.322 19.9887C193.684 20.1366 194.012 20.3553 194.289 20.6321C194.565 20.9089 194.783 21.2382 194.931 21.6007C195.078 21.9631 195.152 22.3515 195.148 22.7429H199.316V22.6643C199.31 20.7735 198.556 18.9624 197.218 17.6292C195.88 16.296 194.069 15.5499 192.183 15.5548H177.996C176.089 15.5516 174.259 16.3067 172.906 17.6545C171.554 19.0024 170.791 20.8328 170.783 22.7442V36.963C170.783 37.9075 170.968 38.8428 171.328 39.7155C171.688 40.5881 172.216 41.3811 172.883 42.0488C173.549 42.7166 174.34 43.2461 175.211 43.6071C176.081 43.968 177.015 44.1534 177.957 44.1524H190.941V39.9749H177.957C177.166 39.9675 176.41 39.6465 175.854 39.082C175.298 38.5175 174.988 37.7554 174.992 36.9624Z" fill="url(#paint6_linear_7_963)"/>
<path d="M86.6188 15.5542H77.6126C77.5407 13.7354 76.7881 12.0105 75.5046 10.7228C74.221 9.43509 72.5008 8.67911 70.6862 8.60533H56.2185C54.3573 8.60353 52.5685 9.3278 51.2308 10.6248C49.8931 11.9218 49.1115 13.6897 49.0515 15.5542H39.8144C38.8722 15.5533 37.939 15.7386 37.0684 16.0996C36.1977 16.4605 35.4066 16.9901 34.7404 17.6578C34.0741 18.3256 33.5458 19.1185 33.1857 19.9912C32.8256 20.8639 32.6407 21.7992 32.6416 22.7436V36.9624C32.6407 37.9068 32.8256 38.8421 33.1857 39.7148C33.5458 40.5875 34.0741 41.3804 34.7404 42.0482C35.4066 42.7159 36.1977 43.2455 37.0684 43.6064C37.939 43.9674 38.8722 44.1527 39.8144 44.1518H54.2802C54.4003 44.1466 54.5197 44.1387 54.6385 44.1279C54.6752 44.1247 54.7112 44.1189 54.7485 44.115C54.8302 44.106 54.9113 44.0983 54.9917 44.0867C55.0387 44.0802 55.0843 44.0712 55.1306 44.0641C55.2001 44.0531 55.2696 44.0428 55.3384 44.0293C55.3893 44.0196 55.4388 44.008 55.4883 43.9977C55.5527 43.9842 55.617 43.9713 55.6813 43.9558C55.7341 43.9435 55.7855 43.9281 55.8376 43.9145C55.8897 43.901 55.9566 43.8836 56.0152 43.8668C56.0737 43.85 56.1233 43.8326 56.1767 43.8152C56.2301 43.7978 56.2879 43.781 56.342 43.7623C56.396 43.7436 56.4526 43.7217 56.5073 43.7011C56.562 43.6804 56.6109 43.663 56.6623 43.643C56.7138 43.6231 56.7736 43.596 56.8296 43.5721C56.8856 43.5483 56.9267 43.5315 56.9743 43.5076C57.0219 43.4838 57.0876 43.4541 57.1435 43.4264C57.1886 43.4045 57.2336 43.3832 57.2786 43.3619C57.3365 43.3323 57.3925 43.3013 57.4497 43.2697C57.4916 43.2472 57.5334 43.2246 57.5739 43.2014C57.6318 43.1678 57.6891 43.133 57.7463 43.0982C57.7849 43.075 57.8229 43.0518 57.8608 43.0279C57.9187 42.9905 57.976 42.9525 58.0332 42.9138L58.1387 42.8422C58.1972 42.801 58.2539 42.7584 58.3111 42.7133C58.3426 42.6894 58.3754 42.6662 58.4057 42.6423C58.4636 42.5972 58.5215 42.5501 58.5781 42.5031C58.6064 42.4799 58.6353 42.4566 58.663 42.4328C58.7209 42.3831 58.7781 42.3322 58.8348 42.2813C58.8598 42.2587 58.8856 42.2361 58.91 42.2129C58.9679 42.1594 59.0245 42.1039 59.0805 42.0485L59.1448 41.984C59.2015 41.926 59.2574 41.8667 59.3121 41.8067L59.3706 41.7422C59.4264 41.6799 59.4811 41.6165 59.5347 41.552L59.5849 41.4914C59.6393 41.4248 59.6927 41.3569 59.745 41.2877L59.7868 41.2322C59.8402 41.1606 59.8917 41.0891 59.9425 41.0156C59.9541 40.9981 59.9663 40.9807 59.9779 40.9633C60.0289 40.8881 60.0787 40.8118 60.1271 40.7344L60.1561 40.6867C60.205 40.6072 60.2522 40.5266 60.2976 40.4449L60.3214 40.4023C60.3677 40.3185 60.4128 40.2334 60.4552 40.1444L60.4739 40.1071C60.5168 40.0189 60.5584 39.9299 60.5987 39.8401C60.6032 39.8291 60.6083 39.8182 60.6128 39.8079C60.6534 39.7157 60.6913 39.6228 60.728 39.5293L60.7389 39.5016C60.7758 39.4057 60.8103 39.309 60.8425 39.2114L60.8502 39.1882C60.8832 39.0889 60.9139 38.989 60.9422 38.8884C60.9422 38.8819 60.9454 38.8755 60.948 38.8691C60.9763 38.7665 61.0033 38.6634 61.0271 38.5589L61.0303 38.5447C61.0544 38.4385 61.0758 38.3311 61.0947 38.2223C61.0947 38.2191 61.0947 38.2152 61.0947 38.212C61.114 38.1033 61.1309 37.9939 61.1455 37.8838C61.1455 37.8838 61.1455 37.8793 61.1455 37.8774C61.1601 37.766 61.1721 37.6541 61.1815 37.5414V37.5369C61.1912 37.4234 61.1976 37.3093 61.2015 37.1945C61.2015 37.1146 61.2079 37.0346 61.2079 36.954V27.9244H57.0084V36.9618C57.0084 37.043 57.0026 37.123 56.9962 37.2023C56.9898 37.2816 56.9776 37.3699 56.9628 37.4525C56.9628 37.4608 56.9628 37.4692 56.9589 37.4776C56.9448 37.555 56.9267 37.6304 56.9068 37.7052C56.9029 37.7188 56.9004 37.7323 56.8965 37.7458C56.8766 37.8168 56.8528 37.8858 56.8277 37.9547C56.8212 37.9715 56.8161 37.9889 56.809 38.0057C56.7839 38.0702 56.7556 38.1346 56.726 38.1991C56.717 38.2191 56.708 38.2391 56.6984 38.2584C56.6688 38.3178 56.634 38.3751 56.6038 38.4325C56.5909 38.4545 56.5787 38.4757 56.5652 38.497C56.5324 38.5505 56.497 38.6028 56.461 38.6537C56.4449 38.6769 56.4282 38.7001 56.4108 38.7227C56.3748 38.7708 56.3375 38.8175 56.2989 38.8626C56.2783 38.8871 56.2571 38.9103 56.2346 38.9342C56.1968 38.9772 56.1578 39.0184 56.1175 39.058C56.0924 39.0825 56.0673 39.1063 56.0416 39.1302C56.0017 39.1669 55.9618 39.2031 55.92 39.2379C55.8904 39.2624 55.8608 39.2856 55.8299 39.3088C55.799 39.332 55.7489 39.3733 55.707 39.4004C55.6652 39.4274 55.6376 39.4461 55.6022 39.4687C55.5668 39.4913 55.5211 39.5209 55.4787 39.5448C55.4362 39.5686 55.3996 39.5873 55.3597 39.6093C55.3198 39.6312 55.2793 39.6512 55.2374 39.6737C55.1956 39.6963 55.1474 39.7112 55.1023 39.7292C55.0573 39.7473 55.0239 39.7621 54.9833 39.7763C54.9332 39.7937 54.8817 39.8085 54.8302 39.8233C54.7929 39.8343 54.7563 39.8466 54.719 39.8562C54.6591 39.8711 54.5986 39.8814 54.5375 39.893C54.5067 39.8988 54.4732 39.9065 54.4443 39.911C54.3516 39.9252 54.2571 39.9349 54.1619 39.9394H39.8163C39.4267 39.9402 39.0408 39.8638 38.6807 39.7147C38.3207 39.5657 37.9935 39.3468 37.7181 39.0707C37.4426 38.7946 37.2242 38.4667 37.0755 38.1057C36.9268 37.7448 36.8506 37.3581 36.8513 36.9676V22.7436C36.8505 22.353 36.9266 21.9662 37.0753 21.6052C37.224 21.2442 37.4423 20.9162 37.7178 20.6401C37.9933 20.3639 38.3205 20.145 38.6806 19.9958C39.0407 19.8467 39.4267 19.7703 39.8163 19.7711H62.2571C62.6467 19.7703 63.0327 19.8467 63.3928 19.9958C63.7529 20.145 64.0801 20.3639 64.3556 20.6401C64.6311 20.9162 64.8494 21.2442 64.9981 21.6052C65.1468 21.9662 65.2229 22.353 65.2221 22.7436V36.9624C65.2221 37.1591 65.2324 37.3545 65.2484 37.5479C65.2579 37.6614 65.2699 37.7742 65.2845 37.8864V37.8909C65.2993 38.0018 65.316 38.1121 65.3359 38.221C65.3359 38.221 65.3359 38.2268 65.3359 38.2294C65.3557 38.3377 65.3771 38.4452 65.4003 38.5518V38.5641C65.4247 38.6689 65.4513 38.773 65.48 38.8761L65.4852 38.8936C65.5135 38.9954 65.545 39.096 65.5778 39.196L65.5849 39.2172C65.6175 39.3152 65.6522 39.4122 65.6891 39.508C65.693 39.5171 65.6962 39.5261 65.6994 39.5358C65.7363 39.6299 65.7749 39.723 65.8152 39.815L65.8287 39.8459C65.8686 39.9362 65.911 40.0258 65.9541 40.1141L65.9722 40.1509C66.015 40.2369 66.0599 40.3228 66.1066 40.4088L66.1298 40.4507C66.1756 40.5324 66.223 40.6134 66.2719 40.6938L66.3009 40.7409C66.3491 40.8182 66.3993 40.8956 66.4501 40.9711L66.4849 41.022C66.5357 41.0955 66.5871 41.1684 66.6412 41.2393L66.6824 41.2941C66.7351 41.3633 66.7887 41.4314 66.8432 41.4985L66.8927 41.5578C66.9467 41.6223 67.0014 41.6868 67.0574 41.7513L67.1146 41.8157C67.17 41.8757 67.2259 41.9357 67.2832 41.9937L67.3475 42.0582C67.4035 42.1136 67.4601 42.1691 67.518 42.2226L67.5933 42.2916C67.6499 42.3425 67.7065 42.3935 67.765 42.4425C67.7933 42.4663 67.8216 42.4895 67.8499 42.5127C67.9072 42.5598 67.9645 42.6062 68.023 42.652C68.0539 42.6759 68.0873 42.6991 68.1163 42.7223C68.1735 42.7655 68.2314 42.8081 68.29 42.8513C68.324 42.8751 68.3594 42.899 68.3942 42.9222C68.4508 42.9609 68.5087 42.9995 68.5666 43.0369C68.6045 43.0608 68.6425 43.084 68.6811 43.1072C68.7383 43.1421 68.7949 43.1769 68.8535 43.2104C68.8947 43.2336 68.9358 43.2555 68.977 43.2781C69.0343 43.3091 69.0909 43.3426 69.1488 43.3709C69.1925 43.3935 69.2375 43.4142 69.2813 43.4354C69.3379 43.4632 69.3945 43.4915 69.4524 43.5173C69.4994 43.5386 69.5476 43.5586 69.5952 43.5818C69.6428 43.605 69.7072 43.6302 69.7644 43.6534C69.8217 43.6766 69.8667 43.6921 69.9181 43.7114C69.9696 43.7308 70.0288 43.7533 70.0841 43.7759C70.1394 43.7984 70.1935 43.8113 70.2482 43.8287C70.3028 43.8462 70.3569 43.8642 70.4116 43.8803C70.4662 43.8965 70.5293 43.9126 70.5885 43.9281C70.6476 43.9435 70.6927 43.9571 70.7454 43.9693C70.8098 43.9848 70.8741 43.997 70.9384 44.0106C70.9892 44.0215 71.0388 44.0331 71.0896 44.0428C71.1578 44.0557 71.2273 44.066 71.2955 44.0776C71.3424 44.0854 71.3887 44.0938 71.4363 44.1009C71.5161 44.1118 71.5965 44.1202 71.6769 44.1286C71.7142 44.1325 71.7516 44.1383 71.7889 44.1415C71.9077 44.1518 72.0271 44.1597 72.1472 44.1653H86.613C86.7353 44.1653 86.8575 44.1653 86.9784 44.1563C87.0177 44.1563 87.0562 44.1505 87.0948 44.1479C87.1765 44.1428 87.2589 44.1376 87.34 44.1292C87.3863 44.1247 87.4313 44.1176 87.477 44.1118C87.5497 44.1034 87.623 44.0951 87.6951 44.0841C87.7465 44.0764 87.7973 44.066 87.8488 44.057C87.9131 44.046 87.9775 44.0351 88.0418 44.0222C88.0965 44.0112 88.1505 43.9977 88.2046 43.9854C88.2586 43.9732 88.3255 43.959 88.3853 43.9442C88.4452 43.9293 88.4972 43.9132 88.5525 43.8978C88.6079 43.8823 88.6664 43.8668 88.7224 43.8494C88.7784 43.832 88.8369 43.812 88.8935 43.7926C88.9501 43.7733 88.999 43.7578 89.0511 43.7391C89.1032 43.7204 89.1688 43.694 89.2274 43.6708C89.2859 43.6476 89.3252 43.6334 89.3728 43.6134C89.4339 43.5882 89.4931 43.5612 89.5522 43.5341C89.5973 43.5141 89.643 43.4941 89.6873 43.4735C89.7485 43.4445 89.8083 43.4135 89.8681 43.3826C89.9093 43.3613 89.9511 43.3406 89.9923 43.3181C90.0566 43.2852 90.1145 43.2504 90.175 43.2156C90.2129 43.1936 90.2515 43.1724 90.2888 43.1511C90.3532 43.1137 90.411 43.075 90.4722 43.0363C90.5063 43.0144 90.541 42.9925 90.5757 42.9718C90.6401 42.9299 90.6999 42.8867 90.761 42.8429L90.853 42.7784C90.9173 42.7326 90.9771 42.6842 91.0383 42.6365C91.0653 42.6153 91.093 42.594 91.12 42.5721C91.1843 42.5211 91.2435 42.4689 91.3046 42.4167C91.3284 42.3954 91.3535 42.3754 91.3766 42.3522C91.441 42.2967 91.5002 42.24 91.56 42.182L91.6243 42.122C91.6886 42.0614 91.7459 42.0001 91.8051 41.9376L91.8591 41.8815C91.9196 41.817 91.9788 41.7525 92.036 41.6829L92.0817 41.6294C92.1409 41.5597 92.1981 41.4888 92.2547 41.4172L92.2933 41.3683C92.3506 41.2935 92.4066 41.2174 92.4613 41.1406L92.4921 41.0974C92.5474 41.0179 92.6013 40.9373 92.6536 40.8556L92.6787 40.817C92.7314 40.7331 92.7822 40.648 92.8324 40.559L92.8524 40.5249C92.9021 40.4363 92.9503 40.3467 92.9971 40.256L93.0119 40.227C93.0589 40.1341 93.1039 40.04 93.147 39.9446L93.1579 39.9207C93.2008 39.8236 93.2422 39.7253 93.2821 39.626L93.2898 39.6067C93.3297 39.5057 93.367 39.4036 93.4017 39.3004L93.4069 39.2849C93.4421 39.1801 93.4751 39.0743 93.506 38.9677V38.9567C93.5368 38.8484 93.5651 38.739 93.5909 38.6285V38.6208C93.617 38.5095 93.6404 38.3971 93.661 38.2836V38.2791C93.6816 38.1647 93.6996 38.0495 93.715 37.9335C93.7305 37.817 93.7431 37.6994 93.753 37.5808C93.7691 37.3828 93.7793 37.1829 93.7793 36.9811V22.7436C93.7803 21.8002 93.5958 20.8659 93.2364 19.9941C92.8771 19.1222 92.3498 18.3298 91.6849 17.6622C91.02 16.9946 90.2303 16.4648 89.3611 16.1031C88.4918 15.7414 87.56 15.5549 86.6188 15.5542ZM56.2185 12.8229H70.564C71.2831 12.8656 71.9633 13.1642 72.4822 13.6649C73.0012 14.1656 73.3247 14.8356 73.3945 15.5542V19.7711H73.4087V30.0129C73.4077 30.9573 73.5926 31.8926 73.9528 32.7653C74.3129 33.6379 74.8412 34.4309 75.5075 35.0986C76.1737 35.7664 76.9648 36.2959 77.8355 36.6569C78.7061 37.0179 79.6392 37.2032 80.5814 37.2023H89.5709C89.5709 37.1791 89.5709 37.1559 89.5741 37.1326C89.5741 37.1559 89.5741 37.1791 89.5709 37.2023C89.5638 37.2938 89.5516 37.3835 89.5368 37.4724C89.5368 37.4782 89.5368 37.4847 89.5368 37.4898C89.522 37.5743 89.5027 37.6562 89.4809 37.7381C89.4809 37.7484 89.4757 37.7587 89.4731 37.769C89.4513 37.8464 89.4262 37.9219 89.3992 37.9967C89.394 38.0108 89.3889 38.0244 89.3837 38.0386C89.3567 38.1089 89.3265 38.1785 89.2937 38.2462C89.2859 38.2629 89.2782 38.2797 89.2692 38.2965C89.2375 38.3605 89.2032 38.4231 89.1663 38.4841L89.1322 38.5409C89.0961 38.5982 89.0582 38.6543 89.019 38.7091L88.972 38.7736C88.9328 38.8246 88.8929 38.8742 88.8504 38.9219C88.8311 38.9445 88.8112 38.9664 88.7906 38.9864C88.7494 39.0309 88.707 39.0741 88.6619 39.1154C88.6375 39.1386 88.6124 39.1611 88.588 39.1831C88.5455 39.2211 88.5024 39.2585 88.4593 39.2933C88.4297 39.3165 88.3995 39.3385 88.3692 39.3578C88.3261 39.3894 88.2824 39.4223 88.2406 39.45C88.2058 39.4726 88.1705 39.4932 88.1344 39.5145C88.0984 39.5358 88.0476 39.5661 88.0058 39.5899C87.9639 39.6138 87.9247 39.6299 87.8835 39.6486C87.8424 39.6673 87.798 39.6892 87.7549 39.7079C87.7118 39.7266 87.6622 39.7421 87.6159 39.7589C87.5696 39.7756 87.5323 39.7898 87.4873 39.8027C87.4423 39.8156 87.3818 39.8304 87.3284 39.8433C87.2891 39.853 87.2505 39.864 87.21 39.8723C87.1457 39.8846 87.0814 39.893 87.017 39.9014C86.9842 39.9059 86.9527 39.9123 86.9192 39.9155C86.8214 39.9254 86.7226 39.9304 86.6227 39.9304H72.2771C72.1819 39.9252 72.088 39.9155 71.9947 39.902C71.9632 39.8975 71.9304 39.8891 71.9014 39.8839C71.841 39.873 71.7805 39.862 71.7207 39.8472C71.6827 39.8382 71.6461 39.8253 71.6087 39.8143C71.5579 39.7995 71.5058 39.7847 71.4556 39.7672C71.4158 39.7531 71.3765 39.7363 71.3366 39.7202C71.2967 39.7041 71.2459 39.6847 71.2022 39.6641C71.1584 39.6434 71.1205 39.6234 71.0799 39.5996C71.0394 39.5757 70.9995 39.559 70.9609 39.5351C70.9223 39.5113 70.878 39.4855 70.8374 39.459C70.7969 39.4326 70.7673 39.4145 70.7326 39.3907C70.6978 39.3668 70.6502 39.3307 70.6097 39.2991C70.5795 39.2759 70.5492 39.2521 70.5196 39.2276C70.4785 39.1934 70.4379 39.1566 70.3987 39.1199C70.373 39.096 70.3472 39.0722 70.3228 39.0477C70.2829 39.0077 70.2437 38.9664 70.2057 38.9239L70.1414 38.8523C70.1028 38.8067 70.0655 38.7599 70.0294 38.7117L69.9793 38.6434C69.9432 38.5918 69.9079 38.5396 69.8744 38.4861C69.8609 38.4648 69.8487 38.4428 69.8365 38.4216C69.803 38.3642 69.7721 38.3068 69.7412 38.2475C69.7316 38.2281 69.7226 38.2088 69.7136 38.1888C69.684 38.1243 69.6557 38.0598 69.6299 37.9954C69.6235 37.9786 69.6184 37.9618 69.6119 37.9457C69.5862 37.8767 69.5631 37.8071 69.5425 37.7355L69.5328 37.6968C69.5122 37.6214 69.4942 37.5453 69.4801 37.4673C69.4801 37.4596 69.4801 37.4518 69.4762 37.4441C69.4614 37.3609 69.4498 37.2771 69.4428 37.1926V32.9751H69.4286V22.7436C69.4295 21.7992 69.2446 20.8639 68.8845 19.9912C68.5244 19.1185 67.9961 18.3256 67.3298 17.6578C66.6636 16.9901 65.8725 16.4605 65.0018 16.0996C64.1312 15.7386 63.198 15.5533 62.2558 15.5542H53.2651C53.324 14.8099 53.6608 14.1153 54.2083 13.609C54.7558 13.1027 55.4736 12.822 56.2185 12.8229ZM80.5827 32.9854C80.1931 32.9862 79.807 32.9099 79.4469 32.7608C79.0867 32.6118 78.7594 32.3928 78.4839 32.1166C78.2083 31.8405 77.9899 31.5124 77.8411 31.1514C77.6924 30.7904 77.6163 30.4035 77.6171 30.0129V19.7711H86.6188C87.0084 19.7703 87.3944 19.8467 87.7545 19.9958C88.1146 20.145 88.4418 20.3639 88.7173 20.6401C88.9928 20.9162 89.2111 21.2442 89.3598 21.6052C89.5085 21.9662 89.5846 22.353 89.5838 22.7436V32.9854H80.5827Z" fill="url(#paint7_linear_7_963)"/>
<path style="mix-blend-mode:multiply" d="M32.6879 35.168C32.6879 37.5872 34.9021 39.9039 39.1923 39.8678C38.6569 39.7533 38.1638 39.492 37.7679 39.113C37.372 38.734 37.089 38.2522 36.9504 37.7213V37.713C36.933 37.6446 36.9163 37.5763 36.9034 37.506C36.8938 37.4576 36.8874 37.408 36.8809 37.3583C36.8758 37.3209 36.8693 37.2835 36.8661 37.2461C36.8571 37.1533 36.852 37.0591 36.852 36.9618V22.7436H32.6905L32.6879 35.168Z" fill="url(#paint8_linear_7_963)"/>
<path style="mix-blend-mode:multiply" d="M41.5796 15.6116C39.1653 15.6116 36.8539 17.8316 36.8906 22.131C36.9105 22.0769 36.9324 22.024 36.9549 21.9711C37.1234 21.3398 37.4953 20.7819 38.0128 20.3841C38.5302 19.9864 39.1642 19.7711 39.8163 19.7718H53.9766V15.6116H41.5796Z" fill="url(#paint9_linear_7_963)"/>
<path style="mix-blend-mode:multiply" d="M65.2607 36.974H69.4209V24.5496C69.4209 22.1317 67.2092 19.8162 62.9236 19.8498C63.3126 19.9399 63.6793 20.1081 64.0016 20.3442C64.3239 20.5804 64.5951 20.8796 64.7988 21.2238C65.1028 21.676 65.2628 22.21 65.2574 22.7552L65.2607 36.974Z" fill="url(#paint10_linear_7_963)"/>
<path style="mix-blend-mode:multiply" d="M93.7491 35.168V22.7436H89.5876V36.9618C89.5865 37.1614 89.565 37.3604 89.5233 37.5556C89.5233 37.564 89.5181 37.573 89.5162 37.5821C89.502 37.6465 89.486 37.711 89.468 37.7755C89.322 38.2929 89.0384 38.7607 88.6476 39.1291C88.2568 39.4974 87.7734 39.7523 87.2493 39.8665H87.2422C91.5343 39.9072 93.7491 37.5859 93.7491 35.168Z" fill="url(#paint11_linear_7_963)"/>
<path d="M46.9923 12.2432H40.5921C39.856 12.2432 39.2592 12.8414 39.2592 13.5792V13.5799C39.2592 14.3177 39.856 14.9159 40.5921 14.9159H46.9923C47.7284 14.9159 48.3252 14.3177 48.3252 13.5799V13.5792C48.3252 12.8414 47.7284 12.2432 46.9923 12.2432Z" fill="url(#paint12_linear_7_963)"/>
<path d="M46.9582 21.8389C45.9501 21.8385 44.9517 22.0372 44.0203 22.4237C43.0888 22.8102 42.2425 23.3769 41.5296 24.0914C40.8168 24.8059 40.2514 25.6542 39.8658 26.5878C39.4802 27.5214 39.2819 28.5221 39.2824 29.5325C39.2822 29.8342 39.3 30.1357 39.3358 30.4352C39.5101 31.9077 40.1053 33.2984 41.0497 34.4397C41.9942 35.5811 43.2476 36.4246 44.6591 36.8686C46.0707 37.3126 47.5802 37.3383 49.0059 36.9426C50.4317 36.5468 51.713 35.7464 52.6955 34.6379C53.678 33.5293 54.32 32.1597 54.5441 30.694C54.7682 29.2282 54.5649 27.7288 53.9586 26.3762C53.3524 25.0236 52.369 23.8754 51.1269 23.0699C49.8849 22.2643 48.4369 21.8357 46.9575 21.8357L46.9582 21.8389ZM51.1396 30.4385C50.9073 31.5138 50.2722 32.4588 49.3653 33.0787C48.4585 33.6987 47.3489 33.9463 46.2653 33.7706C45.1817 33.595 44.2066 33.0093 43.5409 32.1344C42.8753 31.2595 42.5699 30.162 42.6876 29.0681C42.8053 27.9742 43.3372 26.9673 44.1736 26.2547C45.0101 25.5422 46.0873 25.1785 47.1834 25.2384C48.2795 25.2984 49.3109 25.7775 50.065 26.577C50.8191 27.3765 51.2385 28.4355 51.2368 29.5358C51.2363 29.8395 51.2033 30.1424 51.1383 30.4391L51.1396 30.4385Z" fill="url(#paint13_linear_7_963)"/>
<g style="mix-blend-mode:multiply">
<path d="M43.5165 25.2453C44.1093 25.2446 44.6958 25.3682 45.238 25.6084C45.8186 25.3523 46.4487 25.2288 47.0827 25.247C47.7168 25.2652 48.3388 25.4246 48.9038 25.7136C49.4688 26.0026 49.9625 26.414 50.3492 26.918C50.7359 27.4219 51.0059 28.0058 51.1396 28.6273C50.9512 27.0536 50.2835 25.5764 49.2275 24.3967C48.1715 23.217 46.7785 22.3921 45.238 22.0343C43.6976 22.3921 42.3045 23.217 41.2485 24.3967C40.1925 25.5764 39.5248 27.0536 39.3364 28.6273C39.5439 27.6702 40.0715 26.8131 40.8319 26.1979C41.5922 25.5828 42.5394 25.2467 43.5165 25.2453Z" fill="url(#paint14_linear_7_963)"/>
</g>
<g style="mix-blend-mode:multiply">
<path d="M50.4005 33.8191C49.8582 33.5795 49.272 33.4558 48.6793 33.4558C48.0866 33.4558 47.5005 33.5795 46.9582 33.8191C45.9809 33.8179 45.0334 33.4819 44.2728 32.8667C43.5122 32.2516 42.9844 31.3943 42.7767 30.4372C42.6871 31.2677 42.773 32.1078 43.0287 32.9028C43.2845 33.6979 43.7044 34.43 44.2611 35.0517C44.8178 35.6733 45.499 36.1705 46.2601 36.5108C47.0212 36.8512 47.8453 37.027 48.6787 37.027C49.5121 37.027 50.3362 36.8512 51.0973 36.5108C51.8584 36.1705 52.5395 35.6733 53.0962 35.0517C53.6529 34.43 54.0729 33.6979 54.3286 32.9028C54.5844 32.1078 54.6702 31.2677 54.5806 30.4372C54.373 31.3941 53.8453 32.2512 53.085 32.8664C52.3247 33.4815 51.3775 33.8176 50.4005 33.8191Z" fill="url(#paint15_linear_7_963)"/>
</g>
<g style="mix-blend-mode:multiply">
<path d="M51.6826 26.7303C51.5988 27.3185 51.3931 27.8825 51.0785 28.3861C51.2484 28.9987 51.2801 29.6415 51.1715 30.2679C51.0628 30.8943 50.8164 31.4886 50.4503 32.0078C50.0841 32.5269 49.6073 32.9579 49.0544 33.2696C48.5014 33.5812 47.8863 33.7656 47.2535 33.8094C48.8344 33.8473 50.3886 33.3961 51.7045 32.517C53.0204 31.638 54.0341 30.3739 54.6076 28.8968C54.4744 27.3175 53.8589 25.8178 52.8449 24.6016C51.831 23.3855 50.4678 22.512 48.9409 22.1001C49.8563 22.4425 50.6274 23.0885 51.1261 23.9307C51.6248 24.7729 51.8212 25.7608 51.6826 26.7303Z" fill="url(#paint16_linear_7_963)"/>
</g>
<g style="mix-blend-mode:multiply">
<path d="M42.2325 32.3316C42.3167 31.7434 42.5227 31.1794 42.8372 30.6758C42.6775 30.1038 42.6391 29.5045 42.7246 28.9168C42.8657 27.9475 43.3331 27.0556 44.0492 26.3892C44.7654 25.7227 45.6874 25.3216 46.6623 25.2524C45.0813 25.2143 43.527 25.6655 42.2111 26.5446C40.8951 27.4236 39.8814 28.6879 39.3081 30.1651C39.4413 31.7443 40.0567 33.244 41.0706 34.4601C42.0844 35.6762 43.4475 36.5497 44.9743 36.9618C44.0591 36.6189 43.2883 35.9729 42.7896 35.1308C42.291 34.2886 42.0944 33.301 42.2325 32.3316Z" fill="url(#paint17_linear_7_963)"/>
</g>
<path d="M112 49.7575C112.731 49.827 113.429 50.0945 114.02 50.5313C114.055 50.5542 114.083 50.5863 114.1 50.6241C114.118 50.6619 114.125 50.7039 114.12 50.7454C114.119 50.7874 114.108 50.8286 114.088 50.8657C114.068 50.9027 114.04 50.9346 114.006 50.9588L113.324 51.4302C113.282 51.4612 113.232 51.4807 113.181 51.4869C113.13 51.488 113.08 51.4731 113.038 51.4443C112.678 51.2311 112.275 51.0991 111.858 51.0575C111.749 51.0459 111.64 51.0411 111.531 51.0433C111.358 51.0421 111.186 51.0566 111.016 51.0865C110.777 51.1367 110.55 51.2335 110.348 51.3715C110.191 51.4807 110.06 51.6228 109.964 51.788C109.868 51.9532 109.809 52.1373 109.792 52.3277C109.692 53.3542 110.959 53.9106 111.714 54.2814C113.094 54.952 114.416 55.5658 114.416 57.3055C114.428 57.9346 114.204 58.5454 113.789 59.0173C113.334 59.4994 112.735 59.8196 112.082 59.9297C111.41 60.0451 110.722 60.0209 110.061 59.8588C109.336 59.6872 108.662 59.3448 108.096 58.86C108.068 58.8319 108.046 58.7985 108.031 58.7617C108.017 58.7249 108.01 58.6856 108.01 58.646C108.013 58.6062 108.025 58.5675 108.044 58.5329C108.064 58.4983 108.091 58.4686 108.124 58.4461L108.808 57.9902C108.856 57.9626 108.909 57.9478 108.964 57.947C109.02 57.9554 109.073 57.9747 109.121 58.0037C109.491 58.2807 109.912 58.4798 110.36 58.5892C110.653 58.6618 110.954 58.6999 111.256 58.7027C111.452 58.6981 111.647 58.6789 111.839 58.6453C112.213 58.5825 112.557 58.4018 112.822 58.1295C113.014 57.8976 113.115 57.6035 113.107 57.3022C113.107 56.3467 111.868 55.8192 111.142 55.462C109.648 54.7205 108.295 54.1079 108.495 52.1955C108.521 51.8127 108.635 51.4411 108.827 51.1095C109.02 50.7779 109.286 50.4953 109.605 50.2837C109.952 50.0571 110.338 49.8972 110.744 49.8124C111.015 49.7556 111.291 49.7269 111.568 49.7266C111.715 49.7292 111.857 49.7434 112 49.7575Z" fill="#575755"/>
<path d="M128.31 59.8569H127.538C127.472 59.854 127.41 59.8254 127.364 59.7773C127.319 59.7291 127.295 59.6651 127.296 59.5989V51.1413H124.635C124.57 51.1402 124.507 51.1146 124.46 51.0697C124.412 51.0247 124.383 50.9635 124.378 50.8982V50.1264C124.38 50.0586 124.407 49.994 124.455 49.946C124.503 49.898 124.567 49.8703 124.635 49.8685H131.21C131.244 49.8685 131.278 49.8751 131.309 49.8881C131.34 49.9011 131.368 49.9201 131.392 49.944C131.416 49.968 131.435 49.9964 131.448 50.0277C131.461 50.059 131.468 50.0925 131.468 50.1264V50.9001C131.465 50.9664 131.437 51.029 131.389 51.0744C131.34 51.1199 131.276 51.1446 131.21 51.1432H128.563V59.6022C128.562 59.6693 128.535 59.7335 128.488 59.7811C128.441 59.8287 128.377 59.8559 128.31 59.8569Z" fill="#575755"/>
<path d="M149.273 50.1264V56.1035C149.267 57.1324 148.864 58.119 148.149 58.8568C147.793 59.2174 147.37 59.5039 146.904 59.6998C146.437 59.8957 145.936 59.9971 145.43 59.9981C144.924 59.9997 144.423 59.8995 143.956 59.7034C143.489 59.5074 143.066 59.2195 142.712 58.8568C141.987 58.1242 141.578 57.1355 141.573 56.1035V50.1264C141.573 50.0925 141.58 50.059 141.593 50.0277C141.606 49.9964 141.625 49.968 141.649 49.944C141.672 49.9201 141.701 49.9011 141.732 49.8881C141.763 49.8751 141.797 49.8685 141.83 49.8685H142.614C142.682 49.8685 142.748 49.8957 142.796 49.944C142.844 49.9924 142.871 50.058 142.871 50.1264V56.1035C142.864 56.4446 142.924 56.7838 143.049 57.1011C143.174 57.4185 143.361 57.7076 143.599 57.9516C143.837 58.1955 144.121 58.3893 144.435 58.5216C144.749 58.6539 145.085 58.7221 145.426 58.7221C145.766 58.7221 146.103 58.6539 146.417 58.5216C146.731 58.3893 147.015 58.1955 147.253 57.9516C147.491 57.7076 147.678 57.4185 147.803 57.1011C147.928 56.7838 147.988 56.4446 147.98 56.1035V50.1264C147.983 50.0567 148.013 49.9908 148.063 49.9427C148.113 49.8945 148.18 49.8679 148.25 49.8685H149.022C149.089 49.87 149.153 49.8978 149.2 49.946C149.247 49.9942 149.274 50.059 149.273 50.1264Z" fill="#575755"/>
<path d="M159.862 49.8685H163.308C164.461 49.8741 165.565 50.3358 166.38 51.1531C167.195 51.9704 167.656 53.0773 167.661 54.233V55.4884C167.656 56.6443 167.196 57.7513 166.38 58.5688C165.565 59.3863 164.461 59.8481 163.308 59.8537H159.862C159.794 59.8537 159.728 59.8265 159.68 59.7781C159.632 59.7297 159.605 59.6641 159.605 59.5957V50.1135C159.607 50.0469 159.635 49.9838 159.683 49.9379C159.731 49.8921 159.796 49.8671 159.862 49.8685ZM160.888 51.1381V58.5841H163.307C164.124 58.5777 164.906 58.2495 165.483 57.6705C166.061 57.0915 166.388 56.3079 166.395 55.4891V54.2337C166.388 53.4148 166.061 52.6313 165.483 52.0523C164.906 51.4732 164.124 51.1451 163.307 51.1387L160.888 51.1381Z" fill="#575755"/>
<path d="M179.244 50.1135V59.5996C179.244 59.668 179.217 59.7336 179.169 59.7819C179.12 59.8303 179.055 59.8575 178.987 59.8575H178.215C178.149 59.8545 178.087 59.8259 178.042 59.7777C177.997 59.7296 177.972 59.6656 177.973 59.5996V50.1135C177.975 50.05 178.001 49.9896 178.046 49.9448C178.091 49.8999 178.151 49.8738 178.215 49.8717H178.987C179.053 49.8701 179.117 49.8946 179.165 49.9398C179.213 49.985 179.241 50.0474 179.244 50.1135Z" fill="#575755"/>
<path d="M197.919 51.2412C198.841 52.2212 199.355 53.5174 199.355 54.8646C199.355 56.2117 198.841 57.508 197.919 58.488C197.47 58.9655 196.928 59.346 196.327 59.6061C195.726 59.8662 195.079 60.0003 194.424 60.0003C193.769 60.0003 193.122 59.8662 192.521 59.6061C191.92 59.346 191.378 58.9655 190.929 58.488C190.007 57.508 189.493 56.2118 189.493 54.8646C189.493 53.5174 190.007 52.2211 190.929 51.2412C191.378 50.7637 191.92 50.3833 192.521 50.1233C193.122 49.8633 193.769 49.7291 194.424 49.7291C195.079 49.7291 195.726 49.8633 196.327 50.1233C196.928 50.3833 197.47 50.7637 197.919 51.2412ZM194.417 51.0413C193.939 51.0416 193.466 51.1406 193.027 51.3321C192.589 51.5235 192.195 51.8034 191.869 52.1542C191.183 52.8895 190.802 53.8582 190.802 54.8646C190.802 55.871 191.183 56.8397 191.869 57.575C192.196 57.926 192.591 58.2059 193.031 58.3972C193.47 58.5886 193.944 58.6873 194.424 58.6873C194.903 58.6873 195.377 58.5886 195.816 58.3972C196.256 58.2059 196.651 57.926 196.979 57.575C197.664 56.8396 198.045 55.8709 198.045 54.8646C198.045 53.8583 197.664 52.8896 196.979 52.1542C196.651 51.8019 196.254 51.5211 195.814 51.3296C195.373 51.1381 194.897 51.0399 194.417 51.0413Z" fill="#575755"/>
<path d="M35.4862 2.2703H41.3493V-0.00128174H34.5657C34.138 -0.00128174 33.7278 0.169026 33.4253 0.472175C33.1229 0.775324 32.9529 1.18648 32.9529 1.6152V9.21917H35.4862V2.2703Z" fill="#575755"/>
<path d="M90.815 2.2703H84.9482V-0.00128161H91.7343C91.9461 -0.00136634 92.1559 0.0403878 92.3516 0.121593C92.5473 0.202799 92.7251 0.321862 92.8749 0.471983C93.0247 0.622104 93.1434 0.800338 93.2244 0.996497C93.3054 1.19266 93.3472 1.40289 93.3471 1.6152V9.21917H90.815V2.2703Z" fill="#575755"/>
<path d="M35.4862 57.7278H41.3493V60H34.5657C34.138 60 33.7278 59.8297 33.4253 59.5266C33.1229 59.2234 32.9529 58.8123 32.9529 58.3835V50.7795H35.4862V57.7278Z" fill="#575755"/>
<path d="M90.815 57.7278H84.9482V60H91.7343C91.9461 60.0001 92.1559 59.9583 92.3516 59.8771C92.5473 59.7959 92.7251 59.6769 92.8749 59.5268C93.0247 59.3766 93.1434 59.1984 93.2244 59.0022C93.3054 58.8061 93.3472 58.5958 93.3471 58.3835V50.7795H90.815V57.7278Z" fill="#575755"/>
<g opacity="0.5">
<g style="mix-blend-mode:multiply" opacity="0.3">
<path d="M62.7762 54.8598C72.0761 54.8598 79.6152 54.4914 79.6152 54.037C79.6152 53.5826 72.0761 53.2143 62.7762 53.2143C53.4763 53.2143 45.9373 53.5826 45.9373 54.037C45.9373 54.4914 53.4763 54.8598 62.7762 54.8598Z" fill="#575755"/>
</g>
</g>
</g>
<defs>
<linearGradient id="paint0_linear_7_963" x1="-3.40001" y1="37.488" x2="25.2966" y2="22.8672" gradientUnits="userSpaceOnUse">
<stop stop-color="#C1272D"/>
<stop offset="1" stop-color="#FF0000"/>
</linearGradient>
<linearGradient id="paint1_linear_7_963" x1="97.3039" y1="43.3205" x2="131.574" y2="25.7354" gradientUnits="userSpaceOnUse">
<stop stop-color="#C1272D"/>
<stop offset="1" stop-color="#FF0000"/>
</linearGradient>
<linearGradient id="paint2_linear_7_963" x1="124.656" y1="33.6565" x2="139.617" y2="33.4909" gradientUnits="userSpaceOnUse">
<stop stop-color="#C1272D"/>
<stop offset="1" stop-color="#FF0000"/>
</linearGradient>
<linearGradient id="paint3_linear_7_963" x1="145.204" y1="33.5707" x2="169.612" y2="21.1224" gradientUnits="userSpaceOnUse">
<stop stop-color="#C1272D"/>
<stop offset="1" stop-color="#FF0000"/>
</linearGradient>
<linearGradient id="paint4_linear_7_963" x1="135.365" y1="38.5698" x2="145.416" y2="38.2238" gradientUnits="userSpaceOnUse">
<stop stop-color="#C1272D"/>
<stop offset="1" stop-color="#FF0000"/>
</linearGradient>
<linearGradient id="paint5_linear_7_963" x1="188.128" y1="38.1317" x2="201.669" y2="32.7858" gradientUnits="userSpaceOnUse">
<stop stop-color="#C1272D"/>
<stop offset="1" stop-color="#FF0000"/>
</linearGradient>
<linearGradient id="paint6_linear_7_963" x1="169.842" y1="36.86" x2="199.686" y2="21.7008" gradientUnits="userSpaceOnUse">
<stop stop-color="#C1272D"/>
<stop offset="1" stop-color="#FF0000"/>
</linearGradient>
<linearGradient id="paint7_linear_7_963" x1="-26.5397" y1="75.7426" x2="45.3787" y2="-32.9249" gradientUnits="userSpaceOnUse">
<stop stop-color="#C1272D"/>
<stop offset="1" stop-color="#FF0000"/>
</linearGradient>
<linearGradient id="paint8_linear_7_963" x1="31.1203" y1="38.9949" x2="39.0085" y2="37.1793" gradientUnits="userSpaceOnUse">
<stop stop-color="#998675"/>
<stop offset="0.73" stop-color="white"/>
</linearGradient>
<linearGradient id="paint9_linear_7_963" x1="26.5528" y1="20.775" x2="57.5205" y2="-10.3347" gradientUnits="userSpaceOnUse">
<stop stop-color="#998675"/>
<stop offset="0.476" stop-color="white"/>
</linearGradient>
<linearGradient id="paint10_linear_7_963" x1="67.4262" y1="19.6097" x2="58.6979" y2="28.4111" gradientUnits="userSpaceOnUse">
<stop stop-color="#998675"/>
<stop offset="0.476" stop-color="white"/>
</linearGradient>
<linearGradient id="paint11_linear_7_963" x1="71.9118" y1="54.0967" x2="112.757" y2="46.7998" gradientUnits="userSpaceOnUse">
<stop offset="0.364" stop-color="#998675"/>
<stop offset="0.595" stop-color="white"/>
</linearGradient>
<linearGradient id="paint12_linear_7_963" x1="39.7578" y1="15.6428" x2="40.6658" y2="10.2994" gradientUnits="userSpaceOnUse">
<stop stop-color="#C1272D"/>
<stop offset="1" stop-color="#FF0000"/>
</linearGradient>
<linearGradient id="paint13_linear_7_963" x1="53.1897" y1="35.7753" x2="43.9736" y2="26.5805" gradientUnits="userSpaceOnUse">
<stop stop-color="#C1272D"/>
<stop offset="1" stop-color="#FF0000"/>
</linearGradient>
<linearGradient id="paint14_linear_7_963" x1="49.0269" y1="22.5683" x2="48.1257" y2="26.5541" gradientUnits="userSpaceOnUse">
<stop stop-color="#998675"/>
<stop offset="1" stop-color="white"/>
</linearGradient>
<linearGradient id="paint15_linear_7_963" x1="42.5049" y1="38.2989" x2="44.1542" y2="32.3865" gradientUnits="userSpaceOnUse">
<stop stop-color="#998675"/>
<stop offset="1" stop-color="white"/>
</linearGradient>
<linearGradient id="paint16_linear_7_963" x1="-229.358" y1="33.5071" x2="-232.876" y2="35.4229" gradientUnits="userSpaceOnUse">
<stop stop-color="#998675"/>
<stop offset="1" stop-color="white"/>
</linearGradient>
<linearGradient id="paint17_linear_7_963" x1="-235.834" y1="49.2355" x2="-230.128" y2="46.7355" gradientUnits="userSpaceOnUse">
<stop stop-color="#998675"/>
<stop offset="1" stop-color="white"/>
</linearGradient>
<clipPath id="clip0_7_963">
<rect width="199.355" height="60" fill="white"/>
</clipPath>
</defs>
</svg>
