<svg width="162" height="136" viewBox="0 0 162 136" fill="none" xmlns="http://www.w3.org/2000/svg">
<path d="M74.5682 73.4659C74.5682 73.4659 56.9352 78.418 55.4352 86.3C53.9352 94.182 61.2542 99.587 66.0352 96.379C70.8162 93.171 74.5682 73.4659 74.5682 73.4659Z" fill="url(#paint0_linear_7_1026)"/>
<path d="M85.8012 73.4659C85.8012 73.4659 103.436 78.418 104.935 86.3C106.434 94.182 99.1162 99.587 94.3352 96.379C89.5542 93.171 85.8012 73.4659 85.8012 73.4659Z" fill="url(#paint1_linear_7_1026)"/>
<path d="M64.1042 89.392C64.1042 89.392 64.1042 101.417 68.2042 105.425C68.2042 105.425 64.1042 109.434 68.2042 109.434H76.4102C76.4102 109.434 80.5102 109.434 80.5102 105.425V89.392H64.1042Z" fill="url(#paint2_linear_7_1026)"/>
<path d="M96.9281 89.392C96.9281 89.392 96.9282 101.417 92.8282 105.425C92.8282 105.425 96.9282 109.434 92.8282 109.434H84.6221C84.6221 109.434 80.5222 109.434 80.5222 105.425V89.392H96.9281Z" fill="url(#paint3_linear_7_1026)"/>
<path d="M96.9292 89.392C96.8288 93.6783 95.0555 97.7553 91.9885 100.751C88.9215 103.747 84.8042 105.425 80.5167 105.425C76.2292 105.425 72.1118 103.747 69.0448 100.751C65.9778 97.7553 64.2046 93.6783 64.1042 89.392C64.1042 80.537 71.4522 69.35 80.5162 69.35C89.5802 69.35 96.9292 80.537 96.9292 89.392Z" fill="url(#paint4_linear_7_1026)"/>
<path d="M58.1832 81.7589C58.5803 83.2908 59.3664 84.6941 60.4653 85.8329C61.5641 86.9717 62.9385 87.8074 64.4552 88.2589C64.4552 88.2589 63.6952 95.8719 64.4552 97.7279C64.4552 97.7279 85.7422 94.9429 96.1952 98.8419C96.3852 98.8419 98.2862 92.5289 96.7652 88.0729C96.5752 87.8869 103.037 88.073 104.365 84.1729C104.365 84.1729 96.5722 72.4729 82.1272 72.2899C67.6822 72.1069 58.1832 81.7589 58.1832 81.7589Z" fill="#2C2C2C"/>
<path d="M106.352 28.042L101.346 35.283C100.435 34.0047 99.3918 32.8255 98.2342 31.765C99.4015 30.1357 100.57 28.5074 101.74 26.88C101.069 26.2376 100.359 25.6365 99.6152 25.08C99.0772 24.68 98.5532 24.323 98.0522 24.007L94.4962 28.982C93.0009 28.0929 91.4085 27.3786 89.7502 26.853L94.7422 19.453C90.8473 17.801 86.6589 16.9527 82.4282 16.959C65.3552 16.959 51.5142 30.476 51.5142 47.159C51.5142 63.842 65.3552 77.359 82.4282 77.359C99.5012 77.359 113.342 63.838 113.342 47.159C113.34 40.1617 110.864 33.3904 106.352 28.042Z" fill="url(#paint5_linear_7_1026)"/>
<path d="M69.2522 87.499C69.2054 87.9218 69.1814 88.3467 69.1802 88.772C69.2483 91.7334 70.4725 94.5505 72.591 96.6208C74.7095 98.6911 77.554 99.8502 80.5162 99.8502C83.4783 99.8502 86.3228 98.6911 88.4413 96.6208C90.5598 94.5505 91.784 91.7334 91.8522 88.772C91.8515 88.3682 91.8302 87.9647 91.7882 87.563C84.2949 88.3363 76.7409 88.3149 69.2522 87.499Z" fill="white"/>
<path d="M74.5341 92.433C74.5739 92.3517 74.5948 92.2624 74.5952 92.172V92.0239C74.5944 91.9533 74.5797 91.8836 74.5519 91.8187C74.5241 91.7538 74.4838 91.6949 74.4333 91.6456C74.3828 91.5963 74.323 91.5574 74.2574 91.5312C74.1918 91.505 74.1218 91.492 74.0511 91.493H72.7512V91.8049H74.0511C74.0803 91.8046 74.1093 91.8099 74.1363 91.8207C74.1634 91.8315 74.1881 91.8475 74.209 91.8678C74.2299 91.8882 74.2466 91.9124 74.2581 91.9392C74.2696 91.966 74.2758 91.9948 74.2762 92.0239V92.172C74.2762 92.2325 74.2528 92.2907 74.2108 92.3343C74.1689 92.3779 74.1116 92.4036 74.0511 92.406H72.7512V93.6059H74.3732C74.5158 93.6073 74.6531 93.5521 74.7551 93.4523C74.857 93.3526 74.9153 93.2166 74.9172 93.074V92.937C74.9177 92.8225 74.8804 92.7111 74.8112 92.6199C74.7397 92.5312 74.6432 92.4661 74.5341 92.433ZM74.5952 93.074C74.5949 93.1032 74.5889 93.1321 74.5774 93.159C74.5659 93.1859 74.5493 93.2103 74.5284 93.2307C74.5075 93.2511 74.4827 93.2673 74.4556 93.2781C74.4284 93.289 74.3994 93.2944 74.3701 93.294H73.0702V92.7179H74.3701C74.3993 92.7175 74.4283 92.7229 74.4553 92.7337C74.4824 92.7445 74.5071 92.7605 74.528 92.7808C74.5489 92.8012 74.5656 92.8254 74.5771 92.8522C74.5886 92.879 74.5948 92.9078 74.5952 92.937V93.074Z" fill="url(#paint6_linear_7_1026)"/>
<path d="M81.9162 91.493L80.4762 93.22V92.406H80.1591V93.606H80.5591L81.2182 92.819C81.7102 93.383 81.4462 93.084 81.9082 93.606H82.3271L81.4221 92.573L82.3271 91.493H81.9162Z" fill="url(#paint7_linear_7_1026)"/>
<path d="M82.9211 91.493H82.6021V93.606H82.9211V91.493Z" fill="url(#paint8_linear_7_1026)"/>
<path d="M85.0722 93.125L83.5442 91.493H83.2252V91.805H83.4072L85.0932 93.605H85.3932V91.493H85.0742L85.0722 93.125Z" fill="url(#paint9_linear_7_1026)"/>
<path d="M83.5442 92.407H83.2252V93.606H83.5442V92.407Z" fill="url(#paint10_linear_7_1026)"/>
<path d="M86.7791 92.407V92.719H87.5411V93.606H87.8601V92.406L86.7791 92.407Z" fill="url(#paint11_linear_7_1026)"/>
<path d="M86.0142 93.074V92.027C86.0142 91.9973 86.0201 91.9679 86.0316 91.9405C86.0431 91.9131 86.06 91.8883 86.0812 91.8675C86.1025 91.8467 86.1277 91.8304 86.1553 91.8195C86.1829 91.8086 86.2125 91.8033 86.2422 91.804H87.3172C87.3464 91.8033 87.3754 91.8085 87.4026 91.8192C87.4299 91.8299 87.4547 91.8459 87.4756 91.8663C87.4965 91.8867 87.5132 91.9111 87.5247 91.938C87.5361 91.9649 87.542 91.9938 87.5422 92.023H87.8582V92.017C87.8571 91.947 87.8423 91.8779 87.8145 91.8136C87.7868 91.7494 87.7466 91.6912 87.6964 91.6424C87.6462 91.5937 87.5868 91.5553 87.5217 91.5295C87.4567 91.5037 87.3872 91.4909 87.3172 91.492H86.2422C86.0993 91.4901 85.9615 91.545 85.859 91.6445C85.7564 91.744 85.6975 91.8801 85.6952 92.023V93.073C85.6958 93.1437 85.7104 93.2136 85.7381 93.2786C85.7658 93.3436 85.8061 93.4025 85.8567 93.452C85.9072 93.5014 85.967 93.5404 86.0327 93.5666C86.0983 93.5929 86.1685 93.6059 86.2392 93.605H87.2232V93.296H86.2392C86.1799 93.2963 86.123 93.2731 86.0808 93.2314C86.0387 93.1898 86.0147 93.1332 86.0142 93.074Z" fill="url(#paint12_linear_7_1026)"/>
<path d="M79.3152 91.494H78.6322C78.6254 91.358 78.5676 91.2295 78.4703 91.1343C78.373 91.039 78.2433 90.9839 78.1071 90.98H77.0072C76.8676 90.9783 76.7329 91.031 76.6315 91.127C76.5301 91.2229 76.4701 91.3546 76.4642 91.494H75.7642C75.6936 91.4932 75.6237 91.5063 75.5582 91.5326C75.4927 91.5589 75.4331 91.5978 75.3827 91.6471C75.3323 91.6964 75.292 91.7551 75.2643 91.82C75.2366 91.8848 75.2219 91.9545 75.2212 92.025V93.075C75.2211 93.1452 75.2351 93.2146 75.2625 93.2792C75.2898 93.3438 75.3298 93.4022 75.3802 93.451C75.483 93.5516 75.6213 93.6077 75.7652 93.607H76.8652H76.8922H76.9012H76.9192H76.9292H76.9452H76.9562H76.9712H76.9832H76.9971H77.0092H77.0211H77.0332H77.0452L77.0582 93.601H77.0692L77.0822 93.595H77.0932L77.1062 93.588H77.1152L77.1282 93.581L77.1372 93.575L77.1501 93.567L77.1582 93.561L77.1712 93.552H77.1781L77.1911 93.542H77.1972L77.2102 93.531L77.2162 93.525L77.2292 93.513L77.2412 93.5L77.2532 93.486L77.2652 93.471L77.2772 93.455L77.2881 93.438L77.2982 93.42L77.3082 93.401L77.3172 93.381L77.3262 93.361L77.3342 93.339L77.3412 93.317L77.3472 93.294V93.27V93.246V93.221V93.196V92.51H77.0282V93.196V93.215V93.232L77.0222 93.247L77.0162 93.261L77.0092 93.274L77.0012 93.286L76.9922 93.296V93.302L76.9832 93.311H76.9772L76.9682 93.319L76.9612 93.325L76.9521 93.332H76.9442L76.9352 93.338H76.9261H76.9172H76.9072H76.8981H76.8862H76.8782H76.8642H76.8571H76.8352H75.7482C75.6888 93.3382 75.6318 93.3152 75.5892 93.274C75.5682 93.2538 75.5515 93.2296 75.5401 93.2028C75.5288 93.176 75.523 93.1471 75.5231 93.118V92.068C75.5234 92.0389 75.5294 92.0102 75.5408 91.9834C75.5522 91.9566 75.5688 91.9323 75.5896 91.912C75.6105 91.8916 75.6351 91.8756 75.6621 91.8648C75.6892 91.854 75.718 91.8486 75.7471 91.849H77.4472C77.4766 91.8487 77.5058 91.8542 77.5331 91.8652C77.5603 91.8761 77.5852 91.8924 77.6062 91.913C77.627 91.9331 77.6436 91.9572 77.6549 91.9838C77.6662 92.0105 77.6721 92.0391 77.6721 92.068V93.118C77.6721 93.133 77.6721 93.147 77.6721 93.161V93.186V93.211V93.235L77.6781 93.258L77.6852 93.28L77.6932 93.302L77.7021 93.322L77.7112 93.342L77.7222 93.361L77.7332 93.379L77.7442 93.396L77.7561 93.412L77.7682 93.427L77.7812 93.441L77.7932 93.454L77.8062 93.466L77.8121 93.472L77.8251 93.483H77.8312L77.8441 93.493H77.8512L77.8642 93.502L77.8721 93.508L77.8851 93.516L77.8942 93.522L77.9072 93.529H77.9162L77.9292 93.536H77.9402L77.9532 93.542H77.9642L77.9772 93.548H77.9892H78.0012H78.0132H78.0251H78.0392H78.0511H78.0652H78.0771H78.0921H78.1031H78.1212H78.1922H78.2191H79.3811H79.3972H79.4091H79.4241H79.4362H79.4501H79.4632H79.4762H79.4892H79.5012L79.5152 93.542H79.5251L79.5392 93.536H79.5502L79.5641 93.529H79.5732L79.5872 93.522H79.5962L79.6102 93.514H79.6181L79.6322 93.504H79.6392L79.6532 93.493H79.6591L79.6732 93.481H79.6792L79.6932 93.468L79.7072 93.454L79.7212 93.44L79.7352 93.425L79.7482 93.408L79.7601 93.39L79.7722 93.371L79.7832 93.351L79.7942 93.33L79.8031 93.308L79.8121 93.285L79.8192 93.262L79.8262 93.238V93.213V93.188V93.162C79.8262 93.1474 79.8262 93.1324 79.8262 93.117V92.067C79.831 91.9957 79.8216 91.9241 79.7984 91.8564C79.7752 91.7888 79.7388 91.7264 79.6912 91.673C79.6436 91.6197 79.5858 91.5763 79.5212 91.5456C79.4567 91.5149 79.3866 91.4973 79.3152 91.494ZM77.0152 91.294H78.1022C78.1559 91.2963 78.2072 91.3177 78.2466 91.3543C78.286 91.391 78.311 91.4405 78.3172 91.494V91.806V92.563C78.3179 92.6335 78.3326 92.7032 78.3603 92.7681C78.388 92.8329 78.4282 92.8917 78.4787 92.941C78.5291 92.9903 78.5887 93.0292 78.6542 93.0555C78.7196 93.0817 78.7896 93.0948 78.8602 93.094H79.5422V93.114V93.133L79.5361 93.15L79.5292 93.165L79.5222 93.179L79.5132 93.191L79.5042 93.201L79.4942 93.211H79.4882L79.4781 93.219H79.4712L79.4612 93.226H79.4532L79.4432 93.232H79.4342H79.4241H79.4142H79.4042H79.3922H79.3831H79.3692H78.2512H78.2301H78.2232H78.2092H78.2012H78.1891H78.1802H78.1702H78.1611H78.1522L78.1432 93.226H78.1351L78.1262 93.219L78.1192 93.213L78.1102 93.205H78.1042L78.0952 93.196V93.19L78.0862 93.18L78.0782 93.168L78.0712 93.155L78.0652 93.141L78.0592 93.126V93.109V93.09V92.778V92.021C78.0591 91.9509 78.045 91.8815 78.0177 91.8169C77.9904 91.7524 77.9504 91.6939 77.9001 91.645C77.797 91.5451 77.6588 91.4894 77.5152 91.49H76.8342C76.8383 91.4425 76.8577 91.3976 76.8894 91.3619C76.9211 91.3263 76.9634 91.3017 77.0101 91.292L77.0152 91.294ZM78.8622 92.784C78.833 92.7844 78.8041 92.7791 78.7771 92.7683C78.7501 92.7575 78.7255 92.7414 78.7047 92.7211C78.6838 92.7007 78.6672 92.6765 78.6558 92.6497C78.6444 92.6229 78.6384 92.5941 78.6382 92.565V91.808H79.3212C79.3503 91.8076 79.3792 91.813 79.4062 91.8238C79.4332 91.8346 79.4578 91.8506 79.4787 91.871C79.4995 91.8913 79.5161 91.9156 79.5275 91.9424C79.5389 91.9691 79.5449 91.9979 79.5452 92.027V92.784H78.8622Z" fill="url(#paint13_linear_7_1026)"/>
<path style="mix-blend-mode:multiply" d="M75.2261 92.943C75.2261 93.122 75.3941 93.293 75.7191 93.29C75.6789 93.2818 75.6418 93.2625 75.6118 93.2345C75.5818 93.2064 75.5601 93.1706 75.5491 93.131V93.116V93.105V93.096C75.5491 93.089 75.5491 93.082 75.5491 93.075V92.025H75.2331L75.2261 92.943Z" fill="url(#paint14_linear_7_1026)"/>
<path style="mix-blend-mode:multiply" d="M75.9002 91.498C75.7172 91.498 75.5412 91.662 75.5452 91.98V91.968C75.5585 91.9209 75.587 91.8794 75.6262 91.8499C75.6654 91.8205 75.7131 91.8047 75.7622 91.8051H76.8362V91.498H75.9002Z" fill="url(#paint15_linear_7_1026)"/>
<path style="mix-blend-mode:multiply" d="M77.6952 93.0761H78.0101V92.1581C78.0101 91.9791 77.8422 91.8081 77.5172 91.8111C77.5463 91.8174 77.5739 91.8296 77.5982 91.8467C77.6226 91.8639 77.6433 91.8858 77.6591 91.911C77.6819 91.9443 77.6941 91.9837 77.6942 92.0241L77.6952 93.0761Z" fill="url(#paint16_linear_7_1026)"/>
<path style="mix-blend-mode:multiply" d="M79.8552 92.943V92.025H79.5362V93.075C79.5378 93.0897 79.5378 93.1044 79.5362 93.119V93.133C79.525 93.1718 79.5035 93.2067 79.4739 93.2341C79.4442 93.2614 79.4077 93.2801 79.3682 93.288C79.6872 93.293 79.8552 93.122 79.8552 92.943Z" fill="url(#paint17_linear_7_1026)"/>
<path d="M76.3122 91.249H75.8232C75.7685 91.249 75.7242 91.2931 75.7242 91.3475C75.7242 91.4019 75.7685 91.446 75.8232 91.446H76.3122C76.3668 91.446 76.4112 91.4019 76.4112 91.3475C76.4112 91.2931 76.3668 91.249 76.3122 91.249Z" fill="url(#paint18_linear_7_1026)"/>
<path d="M76.3082 91.9571C76.2645 91.957 76.2209 91.9617 76.1782 91.971C76.0626 91.9964 75.9577 92.0567 75.8777 92.1439C75.7977 92.231 75.7465 92.3407 75.7312 92.458C75.7254 92.5025 75.7254 92.5476 75.7312 92.592C75.7418 92.7042 75.7848 92.8108 75.855 92.8989C75.9251 92.987 76.0194 93.0528 76.1263 93.0884C76.2331 93.1239 76.348 93.1276 76.457 93.099C76.5659 93.0705 76.6642 93.0108 76.7399 92.9274C76.8155 92.844 76.8653 92.7404 76.8832 92.6292C76.9011 92.518 76.8862 92.404 76.8405 92.3011C76.7948 92.1982 76.7201 92.1108 76.6256 92.0495C76.5311 91.9882 76.4208 91.9558 76.3082 91.9561V91.9571ZM76.6252 92.593C76.6084 92.6644 76.5679 92.7281 76.5104 92.7735C76.4528 92.8189 76.3815 92.8434 76.3082 92.843C76.2634 92.843 76.2192 92.8338 76.1782 92.816C76.1209 92.7922 76.0719 92.752 76.0374 92.7004C76.003 92.6488 75.9846 92.5881 75.9846 92.5261C75.9846 92.464 76.003 92.4033 76.0374 92.3517C76.0719 92.3001 76.1209 92.2599 76.1782 92.2361C76.2192 92.2183 76.2635 92.2091 76.3082 92.209C76.3816 92.2085 76.4529 92.233 76.5105 92.2784C76.5682 92.3239 76.6086 92.3876 76.6252 92.459C76.63 92.481 76.6324 92.5035 76.6322 92.5261C76.6324 92.5486 76.63 92.5711 76.6252 92.593Z" fill="url(#paint19_linear_7_1026)"/>
<g style="mix-blend-mode:multiply">
<path d="M76.0472 92.209C76.0884 92.2266 76.1328 92.2356 76.1777 92.2356C76.2225 92.2356 76.2669 92.2266 76.3082 92.209C76.3815 92.2085 76.4529 92.233 76.5105 92.2784C76.5682 92.3239 76.6086 92.3876 76.6252 92.459C76.6302 92.3972 76.6224 92.335 76.6022 92.2763C76.5821 92.2176 76.5499 92.1638 76.5079 92.1181C76.4658 92.0725 76.4148 92.0361 76.3579 92.0111C76.3011 91.9862 76.2397 91.9734 76.1777 91.9734C76.1156 91.9734 76.0542 91.9862 75.9974 92.0111C75.9406 92.0361 75.8895 92.0725 75.8475 92.1181C75.8054 92.1638 75.7733 92.2176 75.7531 92.2763C75.7329 92.335 75.7251 92.3972 75.7302 92.459C75.7466 92.3875 75.787 92.3237 75.8446 92.2782C75.9023 92.2327 75.9737 92.2083 76.0472 92.209Z" fill="url(#paint20_linear_7_1026)"/>
</g>
<g style="mix-blend-mode:multiply">
<path d="M76.5682 92.843C76.527 92.8251 76.4826 92.8159 76.4377 92.8159C76.3928 92.8159 76.3484 92.8251 76.3072 92.843C76.234 92.8433 76.1628 92.8188 76.1054 92.7733C76.048 92.7279 76.0077 92.6643 75.9912 92.593C75.9861 92.6549 75.9939 92.7171 76.0141 92.7758C76.0343 92.8344 76.0664 92.8883 76.1085 92.9339C76.1505 92.9796 76.2016 93.016 76.2584 93.0409C76.3152 93.0658 76.3766 93.0787 76.4387 93.0787C76.5007 93.0787 76.5621 93.0658 76.6189 93.0409C76.6758 93.016 76.7268 92.9796 76.7689 92.9339C76.8109 92.8883 76.8431 92.8344 76.8633 92.7758C76.8834 92.7171 76.8913 92.6549 76.8862 92.593C76.8694 92.6646 76.8288 92.7283 76.771 92.7737C76.7132 92.8192 76.6417 92.8436 76.5682 92.843Z" fill="url(#paint21_linear_7_1026)"/>
</g>
<g style="mix-blend-mode:multiply">
<path d="M76.6672 92.319C76.6605 92.3625 76.6448 92.404 76.6212 92.441C76.6331 92.4833 76.6358 92.5276 76.6292 92.571C76.6176 92.6436 76.5815 92.7099 76.5269 92.7591C76.4723 92.8082 76.4025 92.8371 76.3292 92.841C76.448 92.8446 76.565 92.8118 76.6646 92.7469C76.7642 92.682 76.8415 92.5882 76.8862 92.478C76.8747 92.3605 76.8273 92.2495 76.7503 92.16C76.6733 92.0705 76.5706 92.0069 76.4562 91.978C76.5254 92.0017 76.5842 92.0486 76.6227 92.1108C76.6612 92.173 76.6769 92.2466 76.6672 92.319Z" fill="url(#paint22_linear_7_1026)"/>
</g>
<g style="mix-blend-mode:multiply">
<path d="M75.9502 92.7331C75.9568 92.6896 75.9724 92.6481 75.9962 92.6111C75.9837 92.5689 75.9806 92.5246 75.9872 92.4811C75.9987 92.4085 76.0347 92.3419 76.0893 92.2926C76.1439 92.2433 76.2137 92.2142 76.2872 92.2101C76.1682 92.2066 76.0511 92.2394 75.9514 92.3043C75.8517 92.3692 75.7741 92.4629 75.7292 92.5731C75.7407 92.6905 75.7882 92.8015 75.8652 92.891C75.9421 92.9805 76.0448 93.044 76.1592 93.0731C76.0906 93.0489 76.0325 93.002 75.9944 92.9401C75.9564 92.8782 75.9408 92.8051 75.9502 92.7331Z" fill="url(#paint23_linear_7_1026)"/>
</g>
<path d="M81.2382 94.0201C81.2933 94.025 81.3462 94.0447 81.3912 94.077C81.3936 94.0787 81.3955 94.0809 81.3968 94.0836C81.398 94.0862 81.3985 94.0891 81.3982 94.092C81.398 94.0952 81.3972 94.0984 81.3956 94.1011C81.394 94.1039 81.3918 94.1063 81.3892 94.108L81.3372 94.143C81.3335 94.1438 81.3298 94.1438 81.3262 94.143C81.3226 94.144 81.3188 94.144 81.3152 94.143C81.2876 94.1272 81.2569 94.1176 81.2252 94.1151H81.2002C81.1872 94.114 81.1741 94.114 81.1612 94.1151C81.143 94.1189 81.1257 94.126 81.1102 94.136C81.0986 94.1441 81.0889 94.1545 81.0817 94.1666C81.0745 94.1786 81.0698 94.1921 81.0682 94.206C81.0612 94.282 81.1562 94.323 81.2142 94.351C81.3142 94.4 81.4142 94.446 81.4142 94.574C81.4152 94.6208 81.3984 94.6662 81.3672 94.701C81.3323 94.7369 81.2866 94.7604 81.2372 94.768C81.216 94.7716 81.1946 94.7737 81.1732 94.774C81.1429 94.7735 81.1127 94.7698 81.0832 94.763C81.0288 94.7502 80.9781 94.7248 80.9352 94.689C80.933 94.6871 80.9313 94.6848 80.9301 94.6823C80.9289 94.6797 80.9283 94.6769 80.9282 94.674C80.9284 94.671 80.9293 94.668 80.9308 94.6654C80.9324 94.6628 80.9346 94.6606 80.9372 94.659L80.9892 94.625C80.9931 94.6242 80.9972 94.6242 81.0012 94.625C81.0051 94.6244 81.0092 94.6244 81.0132 94.625C81.0414 94.6453 81.0734 94.6599 81.1072 94.668C81.1294 94.6735 81.1522 94.6765 81.1752 94.677C81.1901 94.6779 81.2052 94.6779 81.2202 94.677C81.2481 94.6722 81.2739 94.659 81.2942 94.639C81.3087 94.622 81.3165 94.6004 81.3162 94.578C81.3162 94.508 81.2222 94.4691 81.1672 94.4431C81.0542 94.3881 80.9512 94.343 80.9672 94.201C80.9694 94.1726 80.9783 94.145 80.993 94.1205C81.0078 94.096 81.028 94.0753 81.0522 94.06C81.0784 94.0431 81.1076 94.0312 81.1382 94.025C81.1586 94.0212 81.1794 94.0192 81.2002 94.019L81.2382 94.0201Z" fill="#464644"/>
<path d="M82.4752 94.7671H82.4172C82.4121 94.7671 82.4073 94.7651 82.4037 94.7615C82.4002 94.7579 82.3982 94.7531 82.3982 94.748V94.123H82.1982C82.1932 94.1231 82.1884 94.1212 82.1847 94.1179C82.181 94.1146 82.1787 94.11 82.1782 94.1051V94.0481C82.1784 94.0429 82.1806 94.0381 82.1844 94.0345C82.1881 94.031 82.193 94.029 82.1982 94.0291H82.6982C82.7032 94.0291 82.708 94.0311 82.7116 94.0346C82.7152 94.0382 82.7172 94.043 82.7172 94.0481V94.1051C82.7169 94.1099 82.7148 94.1145 82.7112 94.1179C82.7077 94.1212 82.703 94.1231 82.6982 94.123H82.4982V94.748C82.4982 94.7509 82.4976 94.7538 82.4964 94.7564C82.4953 94.759 82.4935 94.7613 82.4913 94.7631C82.489 94.765 82.4864 94.7663 82.4837 94.7669C82.4809 94.7676 82.478 94.7677 82.4752 94.7671Z" fill="#464644"/>
<path d="M84.0642 94.048V94.489C84.0628 94.5642 84.0323 94.6359 83.9792 94.689C83.924 94.7428 83.8502 94.7732 83.7732 94.774C83.7349 94.7741 83.697 94.7667 83.6617 94.7521C83.6263 94.7375 83.5942 94.7161 83.5672 94.689C83.513 94.6364 83.4817 94.5645 83.4802 94.489V94.048C83.4802 94.0455 83.4807 94.0429 83.4817 94.0405C83.4827 94.0382 83.4842 94.036 83.4861 94.0343C83.488 94.0325 83.4902 94.0311 83.4926 94.0302C83.495 94.0293 83.4976 94.0289 83.5002 94.029H83.5592C83.5642 94.029 83.569 94.0311 83.5726 94.0346C83.5762 94.0382 83.5782 94.043 83.5782 94.048V94.489C83.5779 94.5143 83.5827 94.5394 83.5923 94.5628C83.6019 94.5861 83.6162 94.6073 83.6342 94.625C83.6713 94.6602 83.7205 94.6798 83.7717 94.6798C83.8228 94.6798 83.872 94.6602 83.9092 94.625C83.927 94.6072 83.9412 94.586 83.9508 94.5626C83.9604 94.5393 83.9653 94.5143 83.9652 94.489V94.048C83.9654 94.0429 83.9676 94.0381 83.9714 94.0345C83.9751 94.031 83.98 94.029 83.9852 94.029H84.0432C84.0458 94.0288 84.0485 94.029 84.0511 94.0299C84.0536 94.0307 84.0559 94.0321 84.0579 94.0339C84.0599 94.0357 84.0615 94.0378 84.0625 94.0403C84.0636 94.0427 84.0642 94.0454 84.0642 94.048Z" fill="#464644"/>
<path d="M84.8672 94.029H85.1282C85.1717 94.0294 85.2147 94.0385 85.2547 94.0557C85.2947 94.0729 85.3309 94.0978 85.3612 94.129C85.3925 94.1582 85.4176 94.1934 85.4348 94.2327C85.452 94.2719 85.461 94.3142 85.4612 94.357V94.45C85.4607 94.4926 85.4516 94.5348 85.4344 94.5738C85.4172 94.6128 85.3923 94.6479 85.3612 94.677C85.3309 94.7083 85.2947 94.7332 85.2547 94.7504C85.2147 94.7675 85.1717 94.7766 85.1282 94.777H84.8672C84.8646 94.7772 84.862 94.7768 84.8596 94.7759C84.8572 94.775 84.8549 94.7736 84.8531 94.7718C84.8512 94.77 84.8497 94.7679 84.8487 94.7655C84.8477 94.7632 84.8472 94.7606 84.8472 94.758V94.058C84.8451 94.0549 84.844 94.0511 84.844 94.0474C84.8441 94.0436 84.8452 94.0399 84.8474 94.0368C84.8495 94.0337 84.8526 94.0313 84.8561 94.0299C84.8596 94.0285 84.8635 94.0282 84.8672 94.029ZM84.9442 94.123V94.673H85.1282C85.1898 94.6733 85.2491 94.6492 85.2932 94.606C85.3149 94.5852 85.3323 94.5603 85.3441 94.5326C85.356 94.5049 85.3621 94.4751 85.3622 94.445V94.352C85.3622 94.3219 85.3562 94.2921 85.3443 94.2644C85.3324 94.2367 85.315 94.2118 85.2932 94.191C85.2491 94.1478 85.1898 94.1237 85.1282 94.124L84.9442 94.123Z" fill="#464644"/>
<path d="M86.3362 94.047V94.747C86.3362 94.7496 86.3356 94.7521 86.3346 94.7545C86.3336 94.7569 86.3321 94.759 86.3303 94.7608C86.3284 94.7625 86.3262 94.7639 86.3237 94.7648C86.3213 94.7657 86.3187 94.7661 86.3162 94.766H86.2582C86.2531 94.766 86.2483 94.764 86.2447 94.7604C86.2412 94.7568 86.2392 94.752 86.2392 94.747V94.047C86.2394 94.0421 86.2415 94.0375 86.2451 94.0342C86.2486 94.0308 86.2533 94.029 86.2582 94.029H86.3162C86.3187 94.0288 86.3212 94.0292 86.3235 94.03C86.3259 94.0309 86.3281 94.0321 86.3299 94.0338C86.3318 94.0355 86.3333 94.0375 86.3344 94.0398C86.3354 94.042 86.336 94.0445 86.3362 94.047Z" fill="#464644"/>
<path d="M87.7492 94.13C87.7841 94.1653 87.8117 94.2072 87.8304 94.2531C87.8491 94.2991 87.8585 94.3484 87.8582 94.398C87.8585 94.4982 87.8193 94.5945 87.7492 94.666C87.6967 94.7187 87.6297 94.7546 87.5567 94.769C87.4837 94.7834 87.4081 94.7758 87.3395 94.747C87.2709 94.7182 87.2124 94.6697 87.1716 94.6075C87.1307 94.5453 87.1093 94.4724 87.1102 94.398C87.1098 94.3484 87.1192 94.2991 87.1379 94.2531C87.1566 94.2072 87.1842 94.1653 87.2192 94.13C87.2535 94.0947 87.2947 94.0665 87.3401 94.0474C87.3855 94.0282 87.4343 94.0183 87.4837 94.0183C87.533 94.0183 87.5818 94.0282 87.6272 94.0474C87.6726 94.0665 87.7138 94.0947 87.7482 94.13H87.7492ZM87.4842 94.115C87.4481 94.1149 87.4124 94.1221 87.3792 94.1362C87.3461 94.1503 87.3161 94.171 87.2912 94.197C87.2393 94.2507 87.2104 94.3224 87.2104 94.397C87.2104 94.4716 87.2393 94.5433 87.2912 94.597C87.3162 94.623 87.3463 94.6436 87.3796 94.6577C87.4128 94.6719 87.4485 94.6791 87.4847 94.6791C87.5208 94.6791 87.5565 94.6719 87.5898 94.6577C87.623 94.6436 87.6531 94.623 87.6782 94.597C87.73 94.5433 87.7589 94.4716 87.7589 94.397C87.7589 94.3224 87.73 94.2507 87.6782 94.197C87.6533 94.1712 87.6235 94.1506 87.5905 94.1365C87.5575 94.1225 87.522 94.1151 87.4862 94.115H87.4842Z" fill="#464644"/>
<path d="M75.4382 90.512H75.8822V90.345H75.3681C75.3523 90.3447 75.3366 90.3476 75.3219 90.3534C75.3071 90.3593 75.2937 90.368 75.2824 90.379C75.271 90.3901 75.262 90.4033 75.2558 90.4179C75.2496 90.4325 75.2463 90.4481 75.2462 90.464V91.026H75.4382V90.512Z" fill="#464644"/>
<path d="M79.6322 90.512H79.1882V90.345H79.7022C79.7341 90.3447 79.7648 90.357 79.7877 90.3793C79.8105 90.4016 79.8236 90.432 79.8242 90.464V91.026H79.6322V90.512Z" fill="#464644"/>
<path d="M75.4382 94.6089H75.8822V94.7769H75.3681C75.3523 94.7771 75.3365 94.7741 75.3218 94.7681C75.307 94.7622 75.2936 94.7534 75.2823 94.7422C75.271 94.7311 75.262 94.7178 75.2558 94.7032C75.2496 94.6886 75.2463 94.6728 75.2462 94.657V94.0959H75.4382V94.6089Z" fill="#464644"/>
<path d="M79.6322 94.6089H79.1882V94.7769H79.7022C79.7181 94.7771 79.7338 94.7741 79.7486 94.7681C79.7633 94.7622 79.7767 94.7534 79.788 94.7422C79.7994 94.7311 79.8084 94.7178 79.8146 94.7032C79.8208 94.6886 79.824 94.6728 79.8242 94.657V94.0959H79.6322V94.6089Z" fill="#464644"/>
<g opacity="0.5">
<g style="mix-blend-mode:multiply" opacity="0.3">
<path d="M77.5072 94.398C78.2124 94.398 78.7842 94.3707 78.7842 94.337C78.7842 94.3033 78.2124 94.276 77.5072 94.276C76.8019 94.276 76.2302 94.3033 76.2302 94.337C76.2302 94.3707 76.8019 94.398 77.5072 94.398Z" fill="#464644"/>
</g>
</g>
<path d="M69.5952 32.73C71.6784 32.73 73.3672 31.0802 73.3672 29.045C73.3672 27.0098 71.6784 25.36 69.5952 25.36C67.5119 25.36 65.8232 27.0098 65.8232 29.045C65.8232 31.0802 67.5119 32.73 69.5952 32.73Z" fill="white"/>
<path d="M82.1562 58.6839C89.813 58.6839 96.0202 52.6201 96.0202 45.1399C96.0202 37.6598 89.813 31.5959 82.1562 31.5959C74.4993 31.5959 68.2922 37.6598 68.2922 45.1399C68.2922 52.6201 74.4993 58.6839 82.1562 58.6839Z" fill="white"/>
<path d="M82.1562 52.605C86.3773 52.605 89.7992 49.2623 89.7992 45.139C89.7992 41.0156 86.3773 37.673 82.1562 37.673C77.935 37.673 74.5132 41.0156 74.5132 45.139C74.5132 49.2623 77.935 52.605 82.1562 52.605Z" fill="url(#paint24_linear_7_1026)"/>
<path d="M81.2632 50.1959C82.7902 50.1959 84.0282 48.9867 84.0282 47.4949C84.0282 46.0032 82.7902 44.7939 81.2632 44.7939C79.7361 44.7939 78.4982 46.0032 78.4982 47.4949C78.4982 48.9867 79.7361 50.1959 81.2632 50.1959Z" fill="white"/>
<path d="M84.0272 46.0699C84.7484 46.0699 85.3332 45.4987 85.3332 44.7939C85.3332 44.0892 84.7484 43.5179 84.0272 43.5179C83.3059 43.5179 82.7212 44.0892 82.7212 44.7939C82.7212 45.4987 83.3059 46.0699 84.0272 46.0699Z" fill="white"/>
<path d="M90.9892 63.721C90.8611 63.1781 90.5849 62.6814 90.1914 62.2862C89.7979 61.8909 89.3024 61.6125 88.7602 61.482C88.7673 61.5247 88.7673 61.5683 88.7602 61.611C88.6042 62.438 85.9082 62.811 85.9082 62.811C86.314 62.2813 86.5518 61.6422 86.5912 60.976C84.7246 60.7679 82.8391 60.8015 80.9812 61.076C80.0133 61.2072 79.0568 61.4121 78.1202 61.689C77.8282 62.153 77.2962 63.189 77.8202 63.93C77.8202 63.93 75.5942 63.53 75.4372 62.802C73.7672 63.753 72.7512 65.013 72.9642 66.481C73.3642 69.241 78.4172 72.036 82.8912 71.419C87.3652 70.802 91.3892 66.481 90.9892 63.721Z" fill="#060707"/>
<path d="M82.4342 67.318C82.4342 67.318 76.6602 65.427 77.0412 68.062C77.4222 70.697 80.8102 71.304 82.6592 70.78C84.5082 70.256 87.3592 69.057 85.9772 67.099C84.5952 65.141 82.4342 67.318 82.4342 67.318Z" fill="url(#paint25_linear_7_1026)"/>
<path d="M77.8182 63.925C77.2962 63.186 77.8282 62.148 78.1182 61.684C77.1843 61.9531 76.2836 62.3265 75.4332 62.797C75.5932 63.526 77.8182 63.925 77.8182 63.925Z" fill="#F7F6FB"/>
<path d="M85.9082 62.809C85.9082 62.809 88.6082 62.437 88.7602 61.609C88.7673 61.5663 88.7673 61.5227 88.7602 61.48C88.058 61.2306 87.3301 61.0606 86.5902 60.973C86.5513 61.6394 86.3138 62.2789 85.9082 62.809Z" fill="#F7F6FB"/>
<path d="M102.309 12.662C103.544 10.836 104.035 8.60773 103.682 6.43199C103.659 6.31441 103.661 6.19321 103.687 6.07635C103.714 5.9595 103.765 5.84962 103.838 5.75395C103.91 5.65828 104.001 5.57899 104.106 5.52125C104.212 5.46352 104.328 5.42868 104.447 5.41899C105.561 5.31899 107.179 5.56798 106.792 7.92998C106.276 10.368 105.267 12.6748 103.827 14.709L102.309 12.662Z" fill="#060707"/>
<path d="M63.2611 24.666C63.2611 24.666 64.9982 14.071 63.4802 12.022C61.9622 9.97299 62.8301 4.675 66.7351 3.475C70.6401 2.275 78.7352 -1.89201 85.6802 1.00499C92.6252 3.90199 104.695 9.414 110.768 17.605C116.3 25.071 121.832 32.536 121.241 43.151C121.195 43.8619 120.999 44.5549 120.666 45.1847C120.333 45.8145 119.871 46.3668 119.309 46.8055C118.748 47.2441 118.1 47.5592 117.409 47.7301C116.717 47.901 115.997 47.9238 115.296 47.797C114.602 47.6714 113.944 47.396 113.367 46.99L113.078 48.756C113.078 48.756 97.2452 20.927 63.2611 24.666Z" fill="url(#paint26_linear_7_1026)"/>
<path d="M63.2612 24.665C63.2612 24.665 60.2241 20.565 65.9371 19.65C71.6501 18.735 82.4952 20.43 90.9552 25.376C99.4152 30.322 119.079 46.0759 112.788 50.5259C112.787 50.5259 100.576 23.257 63.2612 24.665Z" fill="#060707"/>
<path d="M70.3132 57.364C70.3132 58.098 68.9582 58.693 67.2872 58.693C65.6162 58.693 64.2602 58.098 64.2602 57.364C64.2602 56.63 65.6152 56.035 67.2872 56.035C68.9592 56.035 70.3132 56.63 70.3132 57.364Z" fill="white"/>
<path d="M97.8152 57.364C97.8152 58.098 96.4602 58.693 94.7882 58.693C93.1162 58.693 91.7612 58.098 91.7612 57.364C91.7612 56.63 93.1162 56.035 94.7882 56.035C96.4602 56.035 97.8152 56.63 97.8152 57.364Z" fill="white"/>
<g filter="url(#filter0_d_7_1026)">
<path d="M150.411 74.5361H11C8.23858 74.5361 6 76.7747 6 79.5361V121.306C6 124.068 8.23858 126.306 11 126.306H150.411C153.172 126.306 155.411 124.068 155.411 121.306V79.5361C155.411 76.7747 153.172 74.5361 150.411 74.5361Z" fill="white"/>
</g>
<path d="M34.8341 83.7102C40.6248 83.7102 45.3191 80.6295 45.3191 76.8292C45.3191 73.029 40.6248 69.9482 34.8341 69.9482C29.0434 69.9482 24.3491 73.029 24.3491 76.8292C24.3491 80.6295 29.0434 83.7102 34.8341 83.7102Z" fill="url(#paint27_linear_7_1026)"/>
<path d="M124.284 83.7102C130.256 83.7102 135.097 80.6295 135.097 76.8292C135.097 73.029 130.256 69.9482 124.284 69.9482C118.312 69.9482 113.471 73.029 113.471 76.8292C113.471 80.6295 118.312 83.7102 124.284 83.7102Z" fill="url(#paint28_linear_7_1026)"/>
<path d="M42.2992 99.5583C42.5623 99.0021 42.6989 98.3946 42.6992 97.7793V96.7683C42.6995 96.2929 42.6062 95.8222 42.4245 95.3829C42.2427 94.9436 41.9762 94.5445 41.6401 94.2084C41.3039 93.8723 40.9048 93.6057 40.4656 93.424C40.0263 93.2422 39.5555 93.1489 39.0802 93.1493H30.4102V95.2753H39.0842C39.2814 95.2744 39.4769 95.3126 39.6593 95.3876C39.8417 95.4627 40.0074 95.5731 40.1469 95.7126C40.2864 95.8521 40.3968 96.0178 40.4719 96.2002C40.5469 96.3826 40.5851 96.5781 40.5842 96.7753V97.7753C40.5894 98.1841 40.4361 98.5791 40.1564 98.8774C39.8768 99.1757 39.4925 99.3541 39.0842 99.3753H30.4102V107.544H41.2102C42.1692 107.542 43.0881 107.16 43.7663 106.481C44.4444 105.803 44.8265 104.884 44.8292 103.925V102.995C44.8335 102.216 44.5851 101.457 44.1212 100.831C43.6566 100.232 43.0213 99.7885 42.2992 99.5583ZM42.6992 103.925C42.7001 104.123 42.6619 104.318 42.5869 104.5C42.5118 104.683 42.4014 104.849 42.2619 104.988C42.1224 105.128 41.9567 105.238 41.7743 105.313C41.5919 105.388 41.3964 105.426 41.1992 105.425H32.5331V101.503H41.2072C41.4044 101.502 41.5999 101.541 41.7823 101.616C41.9647 101.691 42.1304 101.801 42.2699 101.941C42.4094 102.08 42.5198 102.246 42.5949 102.428C42.6699 102.611 42.7081 102.806 42.7072 103.003L42.6992 103.925Z" fill="url(#paint29_linear_7_1026)"/>
<path d="M91.4312 93.1483L81.8521 104.915V99.3753H79.7521V107.523L79.7321 107.543H82.4212L86.8091 102.185C90.0841 106.027 88.3251 103.985 91.3981 107.543H94.1882L88.1522 100.508L94.1772 93.1483H91.4312Z" fill="url(#paint30_linear_7_1026)"/>
<path d="M98.1242 93.1483H96.0012V107.544H98.1242V93.1483Z" fill="url(#paint31_linear_7_1026)"/>
<path d="M112.439 104.269L102.269 93.1483H100.146V95.2753H101.359L112.58 107.548H114.561V93.1483H112.438L112.439 104.269Z" fill="url(#paint32_linear_7_1026)"/>
<path d="M102.268 99.3763H100.145V107.545H102.268V99.3763Z" fill="url(#paint33_linear_7_1026)"/>
<path d="M123.802 99.3763V101.499H128.877V107.545H131V99.3763H123.802Z" fill="url(#paint34_linear_7_1026)"/>
<path d="M118.707 103.925V96.7873C118.705 96.5877 118.743 96.3896 118.818 96.2047C118.894 96.0198 119.005 95.8518 119.146 95.7106C119.288 95.5694 119.456 95.4578 119.641 95.3824C119.825 95.3069 120.023 95.2692 120.223 95.2713H127.381C127.579 95.2687 127.775 95.3056 127.958 95.38C128.142 95.4545 128.308 95.5649 128.448 95.7047C128.588 95.8445 128.698 96.0109 128.772 96.1941C128.847 96.3773 128.884 96.5736 128.881 96.7713H130.981V96.7313C130.978 95.7794 130.597 94.8676 129.922 94.1964C129.247 93.5252 128.333 93.1497 127.381 93.1524H120.223C119.261 93.1508 118.337 93.5309 117.655 94.2094C116.973 94.8878 116.588 95.8092 116.584 96.7713V103.929C116.584 104.405 116.677 104.876 116.859 105.315C117.041 105.754 117.307 106.153 117.644 106.49C117.98 106.826 118.379 107.092 118.818 107.274C119.258 107.456 119.729 107.549 120.204 107.548H126.756V105.448H120.204C120.006 105.447 119.81 105.406 119.627 105.328C119.445 105.251 119.279 105.138 119.14 104.997C119.001 104.855 118.891 104.688 118.817 104.504C118.743 104.32 118.705 104.124 118.707 103.925Z" fill="url(#paint35_linear_7_1026)"/>
<path d="M74.1162 93.1483H69.5711C69.5354 92.2323 69.1559 91.3634 68.5082 90.7148C67.8604 90.0661 66.9921 89.6853 66.0761 89.6483H58.7762C57.8368 89.6476 56.9341 90.0125 56.2591 90.6658C55.5842 91.3191 55.19 92.2095 55.1602 93.1483H50.4991C50.0238 93.1479 49.553 93.2413 49.1137 93.423C48.6745 93.6047 48.2754 93.8713 47.9392 94.2074C47.6031 94.5435 47.3365 94.9427 47.1548 95.3819C46.9731 95.8212 46.8798 96.292 46.8802 96.7673V103.925C46.8798 104.401 46.9731 104.871 47.1548 105.311C47.3365 105.75 47.6031 106.149 47.9392 106.485C48.2754 106.821 48.6745 107.088 49.1137 107.27C49.553 107.451 50.0238 107.545 50.4991 107.544H57.7991C57.8598 107.544 57.9201 107.54 57.9801 107.532L58.0352 107.526L58.1581 107.512L58.2282 107.501L58.3282 107.483L58.4041 107.467L58.5042 107.446L58.5832 107.425L58.6732 107.401L58.7542 107.375L58.8381 107.348L58.9211 107.317L58.9991 107.288L59.0832 107.252L59.1562 107.221L59.2412 107.18L59.3091 107.147L59.3951 107.101L59.4582 107.067L59.5451 107.015L59.6032 106.98L59.6902 106.922L59.7431 106.886L59.8301 106.822L59.8781 106.786L59.9651 106.716L60.0081 106.681L60.0952 106.605L60.1331 106.571C60.1621 106.544 60.1911 106.516 60.2191 106.488L60.2521 106.455C60.2811 106.426 60.3092 106.396 60.3362 106.366L60.3662 106.334C60.3942 106.303 60.4218 106.27 60.4492 106.234L60.4742 106.204C60.5015 106.171 60.5285 106.138 60.5551 106.104L60.5761 106.076C60.6031 106.04 60.6291 106.004 60.6541 105.967L60.6722 105.941C60.6982 105.903 60.7232 105.865 60.7472 105.826L60.7621 105.802C60.7868 105.762 60.8108 105.722 60.8341 105.68L60.8462 105.659C60.8692 105.617 60.8922 105.574 60.9142 105.531L60.9232 105.512C60.9452 105.468 60.9661 105.423 60.9861 105.377L60.9931 105.361C61.0131 105.315 61.0331 105.268 61.0511 105.221L61.0562 105.207C61.0748 105.159 61.0922 105.111 61.1082 105.061V105.049C61.1248 104.999 61.1405 104.949 61.1552 104.898V104.888C61.1692 104.836 61.1832 104.788 61.1952 104.732V104.725C61.2072 104.672 61.2182 104.618 61.2282 104.564V104.559C61.2382 104.504 61.2472 104.449 61.2542 104.394C61.2615 104.338 61.2675 104.282 61.2722 104.225C61.2722 104.168 61.2801 104.11 61.2821 104.053C61.2821 104.013 61.2821 103.972 61.2821 103.932V99.3823H59.1592V103.932C59.1592 103.973 59.1591 104.013 59.1531 104.053C59.1471 104.093 59.1441 104.137 59.1361 104.179V104.192C59.1291 104.231 59.1201 104.269 59.1101 104.307L59.1051 104.327C59.0951 104.363 59.0832 104.398 59.0702 104.432L59.0612 104.458C59.0482 104.491 59.0341 104.523 59.0191 104.558L59.0052 104.588C58.9902 104.618 58.9742 104.647 58.9572 104.676L58.9381 104.709C58.9211 104.736 58.9042 104.762 58.8852 104.788L58.8601 104.823C58.8421 104.847 58.8235 104.871 58.8041 104.894L58.7722 104.93C58.7528 104.952 58.7331 104.972 58.7131 104.992L58.6751 105.028C58.6551 105.046 58.6351 105.065 58.6141 105.082L58.5692 105.118L58.5071 105.164L58.4542 105.198L58.3922 105.236L58.3322 105.268L58.2701 105.299L58.2021 105.327L58.1422 105.351C58.1172 105.36 58.0912 105.367 58.0652 105.375L58.0092 105.391C57.9792 105.398 57.9482 105.404 57.9182 105.409L57.8712 105.418C57.8242 105.425 57.7772 105.43 57.7292 105.432H50.4901C50.2929 105.433 50.0974 105.395 49.915 105.32C49.7326 105.245 49.5669 105.135 49.4274 104.995C49.288 104.856 49.1775 104.69 49.1024 104.507C49.0274 104.325 48.9892 104.13 48.9901 103.932V96.7673C48.9892 96.5701 49.0274 96.3746 49.1024 96.1922C49.1775 96.0098 49.288 95.8441 49.4274 95.7046C49.5669 95.5651 49.7326 95.4547 49.915 95.3796C50.0974 95.3046 50.2929 95.2664 50.4901 95.2673H61.8131C62.0104 95.2664 62.2059 95.3046 62.3883 95.3796C62.5707 95.4547 62.7364 95.5651 62.8759 95.7046C63.0154 95.8441 63.1258 96.0098 63.2009 96.1922C63.2759 96.3746 63.3141 96.5701 63.3131 96.7673V103.925C63.3131 104.025 63.3181 104.125 63.3261 104.22C63.3308 104.278 63.3368 104.334 63.3441 104.39C63.3511 104.446 63.3601 104.501 63.3701 104.556C63.3801 104.611 63.3911 104.665 63.4031 104.718V104.724C63.4151 104.777 63.4285 104.829 63.4431 104.881V104.89C63.4571 104.941 63.4731 104.99 63.4901 105.042V105.053C63.5061 105.102 63.5242 105.153 63.5432 105.199L63.5482 105.213C63.5662 105.26 63.5861 105.307 63.6061 105.354L63.6132 105.37C63.6332 105.415 63.6542 105.46 63.6761 105.505L63.6852 105.523C63.7072 105.567 63.7298 105.61 63.7531 105.652L63.7651 105.673C63.7885 105.715 63.8125 105.755 63.8372 105.795L63.8521 105.819C63.8761 105.858 63.9022 105.897 63.9272 105.935L63.9452 105.961C63.9712 105.998 63.9971 106.035 64.0241 106.071L64.0451 106.099C64.0718 106.134 64.0988 106.167 64.1262 106.199L64.1512 106.229C64.1785 106.262 64.2062 106.295 64.2342 106.329L64.2632 106.36C64.2912 106.39 64.3191 106.42 64.3481 106.45L64.3811 106.483C64.4091 106.511 64.4382 106.539 64.4672 106.566L64.5052 106.601L64.5922 106.677L64.6352 106.712C64.6642 106.736 64.6931 106.759 64.7221 106.782L64.7691 106.817L64.8571 106.881L64.9102 106.917L64.9972 106.975L65.0551 107.01L65.1422 107.062L65.2042 107.096L65.2911 107.143L65.3582 107.176L65.4442 107.217L65.5161 107.248L65.6011 107.284L65.6791 107.313L65.7632 107.344L65.8462 107.37L65.9282 107.396L66.0172 107.42L66.0962 107.441L66.1961 107.462L66.2722 107.478L66.3722 107.495L66.4431 107.507L66.5641 107.521L66.6212 107.528C66.6812 107.534 66.7415 107.538 66.8022 107.54H74.1021C74.1641 107.54 74.2252 107.54 74.2862 107.54H74.3452L74.4691 107.531L74.5381 107.522L74.6482 107.508L74.7252 107.495L74.8251 107.477L74.9071 107.458L74.9981 107.437L75.0822 107.414L75.1682 107.39L75.2542 107.361L75.3341 107.334L75.4232 107.3L75.4962 107.271L75.5862 107.231L75.6541 107.2L75.7451 107.154L75.8081 107.122L75.9001 107.07L75.9572 107.037L76.0501 106.979L76.1021 106.946L76.1952 106.881L76.2412 106.848C76.2732 106.825 76.3041 106.801 76.3341 106.776L76.3752 106.744C76.4072 106.718 76.4371 106.692 76.4681 106.666L76.5042 106.634C76.5352 106.606 76.5662 106.577 76.5962 106.548L76.6281 106.518C76.6588 106.488 76.6891 106.457 76.7191 106.425L76.7462 106.397C76.7762 106.364 76.8061 106.331 76.8351 106.297L76.8582 106.27C76.8882 106.235 76.9172 106.199 76.9452 106.163L76.9641 106.138C76.9931 106.1 77.0211 106.062 77.0491 106.024L77.0641 106.002C77.0921 105.962 77.1192 105.921 77.1462 105.88L77.1592 105.86C77.1862 105.818 77.2111 105.775 77.2361 105.731L77.2462 105.714C77.2715 105.67 77.2958 105.625 77.3192 105.579L77.3272 105.564C77.3512 105.517 77.3741 105.47 77.3951 105.422L77.4001 105.41C77.4221 105.362 77.4431 105.312 77.4631 105.262V105.252C77.4831 105.202 77.5021 105.15 77.5201 105.098V105.09C77.5381 105.038 77.5548 104.984 77.5702 104.93V104.924C77.5862 104.87 77.6005 104.815 77.6132 104.759C77.6265 104.703 77.6382 104.647 77.6482 104.589C77.6588 104.532 77.6678 104.474 77.6751 104.415C77.6831 104.357 77.6895 104.298 77.6942 104.238C77.7022 104.138 77.7072 104.038 77.7072 103.938V96.7673C77.708 95.8121 77.3308 94.8954 76.658 94.2173C75.9851 93.5392 75.0714 93.1549 74.1162 93.1483ZM58.7772 91.7733H66.0151C66.3783 91.7945 66.7219 91.9446 66.9841 92.1967C67.2463 92.4489 67.4098 92.7863 67.4452 93.1483V95.2673H67.4522V100.423C67.4518 100.899 67.5451 101.369 67.7268 101.809C67.9086 102.248 68.1751 102.647 68.5113 102.983C68.8474 103.319 69.2465 103.586 69.6858 103.768C70.125 103.949 70.5958 104.043 71.0711 104.042H75.6071C75.6071 104.03 75.6071 104.019 75.6071 104.007C75.6071 104.019 75.6071 104.03 75.6071 104.042C75.6071 104.088 75.5972 104.133 75.5902 104.178V104.187C75.5822 104.229 75.5731 104.271 75.5621 104.312V104.328C75.5511 104.367 75.5391 104.405 75.5251 104.443L75.5172 104.464C75.5032 104.5 75.4881 104.534 75.4721 104.564L75.4601 104.589C75.4441 104.621 75.4268 104.653 75.4081 104.684L75.3911 104.713C75.3731 104.742 75.3541 104.77 75.3341 104.798L75.3102 104.83C75.2902 104.856 75.2701 104.88 75.2491 104.905L75.2191 104.938C75.1981 104.96 75.1772 104.982 75.1552 105.003L75.1181 105.037C75.0971 105.056 75.0752 105.075 75.0522 105.093L75.0071 105.127C74.9851 105.143 74.9632 105.159 74.9412 105.173L74.8871 105.205C74.8651 105.218 74.8431 105.231 74.8211 105.243L74.7592 105.273L74.6931 105.303C74.6701 105.312 74.6461 105.32 74.6231 105.329L74.5591 105.351C74.5331 105.359 74.5062 105.365 74.4792 105.371L74.4192 105.386C74.3882 105.392 74.3552 105.396 74.3192 105.401L74.2701 105.408C74.2208 105.413 74.1708 105.416 74.1201 105.416H66.8811C66.8331 105.416 66.7811 105.409 66.7391 105.402L66.6921 105.393C66.6611 105.387 66.6311 105.382 66.6011 105.375L66.5451 105.359C66.5191 105.351 66.4931 105.344 66.4681 105.335L66.4081 105.311L66.3402 105.283L66.2781 105.252L66.2181 105.22L66.1562 105.182L66.1032 105.147L66.0411 105.101L65.9962 105.065C65.9752 105.048 65.9552 105.029 65.9352 105.011L65.8972 104.975C65.8772 104.955 65.8575 104.935 65.8381 104.913L65.8062 104.877C65.7868 104.855 65.7682 104.831 65.7502 104.806L65.7252 104.771C65.7072 104.745 65.6892 104.719 65.6722 104.692L65.6531 104.659C65.6361 104.63 65.6201 104.601 65.6051 104.571L65.5912 104.542C65.5762 104.51 65.5621 104.478 65.5491 104.442L65.5402 104.417C65.5272 104.382 65.5152 104.347 65.5052 104.311V104.291C65.4952 104.253 65.4852 104.215 65.4782 104.176V104.164C65.4712 104.122 65.4652 104.08 65.4612 104.037V101.914H65.4542V96.7673C65.4546 96.292 65.3612 95.8212 65.1795 95.3819C64.9977 94.9427 64.7312 94.5435 64.3951 94.2074C64.0589 93.8713 63.6598 93.6047 63.2206 93.423C62.7813 93.2413 62.3105 93.1479 61.8351 93.1483H57.2991C57.3284 92.7758 57.4964 92.4279 57.7699 92.1732C58.0434 91.9186 58.4025 91.7759 58.7762 91.7733H58.7772ZM71.0711 101.923C70.8739 101.924 70.6784 101.886 70.496 101.811C70.3136 101.736 70.1479 101.626 70.0084 101.486C69.869 101.347 69.7585 101.181 69.6834 100.998C69.6084 100.816 69.5702 100.621 69.5711 100.423V95.2673H74.1132C74.3104 95.2664 74.5059 95.3046 74.6883 95.3796C74.8707 95.4547 75.0364 95.5651 75.1759 95.7046C75.3153 95.8441 75.4258 96.0098 75.5009 96.1922C75.5759 96.3746 75.6141 96.5701 75.6132 96.7673V101.923H71.0711Z" fill="url(#paint36_linear_7_1026)"/>
<path style="mix-blend-mode:multiply" d="M46.9032 103.022C46.9032 104.24 48.0202 105.406 50.1852 105.388C49.9151 105.331 49.6663 105.199 49.4666 105.009C49.2669 104.818 49.1241 104.576 49.0542 104.308C49.0452 104.274 49.0372 104.239 49.0302 104.208C49.0232 104.177 49.0221 104.159 49.0191 104.134C49.0161 104.109 49.0132 104.096 49.0112 104.077C49.0112 104.03 49.0042 103.983 49.0042 103.934V96.7764H46.9042L46.9032 103.022Z" fill="url(#paint37_linear_7_1026)"/>
<path style="mix-blend-mode:multiply" d="M51.3901 93.1774C50.1721 93.1774 49.0061 94.2944 49.0241 96.4594C49.0341 96.4324 49.0451 96.4054 49.0561 96.3794C49.141 96.0614 49.3287 95.7805 49.5899 95.5803C49.851 95.3801 50.1711 95.2718 50.5001 95.2724H57.6451V93.1784L51.3901 93.1774Z" fill="url(#paint38_linear_7_1026)"/>
<path style="mix-blend-mode:multiply" d="M63.3391 103.932H65.4392V97.6773C65.4392 96.4603 64.3231 95.2943 62.1611 95.3113C62.3574 95.3567 62.5424 95.4415 62.705 95.5604C62.8676 95.6794 63.0044 95.8301 63.1071 96.0034C63.2604 96.231 63.341 96.4999 63.3382 96.7744L63.3391 103.932Z" fill="url(#paint39_linear_7_1026)"/>
<path style="mix-blend-mode:multiply" d="M77.7121 103.022V96.7673H75.6122V103.925C75.612 104.026 75.6016 104.127 75.5811 104.225V104.238C75.5741 104.271 75.5661 104.303 75.5571 104.338C75.4836 104.599 75.3405 104.835 75.1432 105.02C74.9459 105.206 74.7018 105.334 74.4371 105.391C76.5961 105.406 77.7121 104.24 77.7121 103.022Z" fill="url(#paint40_linear_7_1026)"/>
<path d="M54.1201 91.4813H50.8921C50.5205 91.4813 50.2191 91.7824 50.2191 92.1538C50.2191 92.5252 50.5205 92.8263 50.8921 92.8263H54.1201C54.4918 92.8263 54.7931 92.5252 54.7931 92.1538C54.7931 91.7824 54.4918 91.4813 54.1201 91.4813Z" fill="url(#paint41_linear_7_1026)"/>
<path d="M54.1041 96.3124C53.5955 96.3121 53.0917 96.4121 52.6217 96.6067C52.1517 96.8012 51.7246 97.0865 51.3649 97.4462C51.0053 97.8059 50.72 98.2329 50.5254 98.7029C50.3309 99.173 50.2309 99.6767 50.2312 100.185C50.231 100.338 50.24 100.49 50.2581 100.641C50.346 101.383 50.6463 102.083 51.1229 102.658C51.5994 103.232 52.2319 103.657 52.9442 103.881C53.6565 104.104 54.4182 104.117 55.1377 103.918C55.8572 103.719 56.5037 103.316 56.9996 102.758C57.4954 102.2 57.8194 101.51 57.9325 100.772C58.0456 100.034 57.943 99.2793 57.6371 98.5983C57.3312 97.9173 56.8349 97.3392 56.2081 96.9337C55.5814 96.5281 54.8507 96.3124 54.1041 96.3124ZM56.2132 100.641C56.096 101.182 55.7761 101.657 55.3192 101.968C54.8624 102.28 54.3034 102.404 53.7575 102.316C53.2116 102.228 52.7203 101.934 52.3849 101.494C52.0495 101.055 51.8954 100.503 51.9545 99.9531C52.0136 99.4033 52.2813 98.8971 52.7025 98.5388C53.1237 98.1804 53.6663 97.9973 54.2185 98.027C54.7706 98.0568 55.2904 98.2972 55.6706 98.6988C56.0508 99.1003 56.2625 99.6324 56.2622 100.185C56.2623 100.339 56.2458 100.492 56.2132 100.641Z" fill="url(#paint42_linear_7_1026)"/>
<g style="mix-blend-mode:multiply">
<path d="M52.3672 98.0264C52.6408 98.147 52.9366 98.2093 53.2356 98.2093C53.5347 98.2093 53.8305 98.147 54.1042 98.0264C54.5969 98.0269 55.0747 98.1957 55.4585 98.5049C55.8422 98.814 56.1088 99.245 56.2141 99.7264C56.2655 99.3049 56.2267 98.8774 56.1005 98.472C55.9743 98.0666 55.7635 97.6926 55.482 97.3748C55.2005 97.0569 54.8548 96.8025 54.4676 96.6282C54.0805 96.4539 53.6607 96.3638 53.2361 96.3638C52.8115 96.3638 52.3918 96.4539 52.0047 96.6282C51.6175 96.8025 51.2718 97.0569 50.9903 97.3748C50.7088 97.6926 50.4979 98.0666 50.3717 98.472C50.2455 98.8774 50.2068 99.3049 50.2581 99.7264C50.3634 99.2452 50.6299 98.8143 51.0134 98.5052C51.3969 98.196 51.8745 98.0271 52.3672 98.0264Z" fill="url(#paint43_linear_7_1026)"/>
</g>
<g style="mix-blend-mode:multiply">
<path d="M55.8411 102.343C55.5675 102.223 55.2717 102.16 54.9727 102.16C54.6736 102.16 54.3778 102.223 54.1041 102.343C53.6113 102.343 53.1335 102.174 52.7498 101.865C52.366 101.556 52.0994 101.125 51.9941 100.643C51.9428 101.065 51.9815 101.492 52.1077 101.898C52.2339 102.303 52.4448 102.677 52.7263 102.995C53.0077 103.313 53.3535 103.567 53.7407 103.742C54.1278 103.916 54.5475 104.006 54.9721 104.006C55.3967 104.006 55.8165 103.916 56.2036 103.742C56.5908 103.567 56.9365 103.313 57.218 102.995C57.4995 102.677 57.7103 102.303 57.8365 101.898C57.9628 101.492 58.0015 101.065 57.9501 100.643C57.8449 101.125 57.5784 101.555 57.1949 101.865C56.8114 102.174 56.3337 102.343 55.8411 102.343Z" fill="url(#paint44_linear_7_1026)"/>
</g>
<g style="mix-blend-mode:multiply">
<path d="M56.4882 98.7744C56.3299 99.028 56.2262 99.3119 56.1835 99.6078C56.1408 99.9037 56.1601 100.205 56.2402 100.493C56.1691 100.981 55.9333 101.43 55.5718 101.766C55.2104 102.102 54.7451 102.304 54.2532 102.338C54.663 102.449 55.0916 102.472 55.5108 102.405C55.93 102.338 56.3302 102.183 56.685 101.95C57.0398 101.716 57.341 101.41 57.5688 101.052C57.7966 100.694 57.9457 100.291 58.0063 99.8712C58.067 99.4511 58.0378 99.0228 57.9207 98.6147C57.8035 98.2067 57.601 97.8281 57.3267 97.5041C57.0524 97.1801 56.7124 96.918 56.3293 96.7352C55.9461 96.5523 55.5286 96.4528 55.1041 96.4434C55.5662 96.6157 55.9553 96.9409 56.2071 97.3649C56.4588 97.7889 56.558 98.2862 56.4882 98.7744Z" fill="url(#paint45_linear_7_1026)"/>
</g>
<g style="mix-blend-mode:multiply">
<path d="M51.7191 101.595C51.8776 101.342 51.9814 101.058 52.0241 100.762C52.0668 100.466 52.0474 100.164 51.9671 99.8763C52.0382 99.3883 52.274 98.9392 52.6355 98.6036C52.9969 98.268 53.4621 98.0661 53.9541 98.0313C53.5444 97.9204 53.1158 97.8977 52.6966 97.9648C52.2774 98.0318 51.8773 98.187 51.5225 98.4201C51.1678 98.6532 50.8665 98.959 50.6387 99.3172C50.411 99.6754 50.2618 100.078 50.2011 100.498C50.1403 100.918 50.1695 101.346 50.2865 101.754C50.4036 102.162 50.6059 102.541 50.8801 102.865C51.1543 103.189 51.4942 103.451 51.8772 103.634C52.2603 103.817 52.6777 103.917 53.1021 103.926C52.6404 103.754 52.2516 103.428 52 103.004C51.7485 102.581 51.6494 102.083 51.7191 101.595Z" fill="url(#paint46_linear_7_1026)"/>
</g>
<path d="M86.9222 110.366C87.2907 110.401 87.643 110.535 87.9412 110.754C87.9588 110.766 87.9728 110.782 87.9816 110.801C87.9904 110.82 87.9937 110.841 87.9911 110.862C87.9905 110.883 87.985 110.904 87.9749 110.923C87.9648 110.941 87.9505 110.957 87.9332 110.969L87.5892 111.206C87.568 111.222 87.5432 111.232 87.5171 111.235C87.4915 111.236 87.4664 111.229 87.4452 111.214C87.2618 111.107 87.0569 111.04 86.8451 111.02C86.7903 111.015 86.7353 111.012 86.6802 111.013C86.5934 111.013 86.5067 111.02 86.4212 111.035C86.3006 111.061 86.186 111.109 86.0842 111.178C86.0054 111.233 85.9395 111.305 85.8912 111.388C85.8428 111.471 85.8132 111.564 85.8042 111.659C85.7542 112.176 86.3932 112.459 86.7742 112.643C87.4742 112.981 88.1392 113.289 88.1392 114.165C88.1453 114.482 88.0326 114.79 87.8232 115.027C87.5936 115.27 87.2914 115.431 86.9622 115.486C86.6233 115.544 86.2761 115.532 85.9422 115.45C85.5768 115.365 85.2371 115.193 84.9512 114.95C84.9371 114.936 84.926 114.919 84.9186 114.901C84.9112 114.882 84.9078 114.862 84.9082 114.842C84.9097 114.823 84.9155 114.803 84.9253 114.786C84.9352 114.769 84.9487 114.754 84.9651 114.742L85.3102 114.512C85.3343 114.498 85.3614 114.491 85.3892 114.49C85.4172 114.495 85.444 114.505 85.4682 114.519C85.6545 114.659 85.8671 114.759 86.0932 114.814C86.2415 114.851 86.3935 114.87 86.5462 114.871C86.6448 114.869 86.743 114.859 86.8401 114.842C87.0301 114.812 87.2053 114.722 87.3401 114.584C87.4373 114.468 87.4886 114.319 87.4842 114.167C87.4842 113.686 86.8592 113.42 86.4932 113.241C85.7392 112.868 85.0572 112.559 85.1572 111.597C85.1703 111.405 85.2276 111.218 85.3248 111.051C85.4219 110.884 85.5562 110.742 85.7172 110.635C85.8921 110.521 86.0868 110.441 86.2912 110.398C86.428 110.37 86.5674 110.355 86.7072 110.355C86.7782 110.352 86.8522 110.36 86.9222 110.366Z" fill="#575755"/>
<path d="M95.1511 115.451H94.7632C94.7301 115.45 94.6989 115.435 94.6761 115.411C94.6534 115.387 94.6408 115.355 94.6411 115.322V111.064H93.2981C93.2653 111.064 93.2339 111.051 93.2101 111.028C93.1862 111.006 93.1717 110.975 93.1692 110.942V110.554C93.1702 110.52 93.184 110.488 93.208 110.464C93.232 110.44 93.2642 110.426 93.2981 110.425H96.6162C96.6332 110.425 96.6499 110.428 96.6656 110.435C96.6814 110.441 96.6956 110.451 96.7076 110.463C96.7196 110.475 96.7292 110.489 96.7356 110.505C96.742 110.52 96.7453 110.537 96.7451 110.554V110.942C96.7438 110.975 96.7297 111.007 96.7056 111.03C96.6815 111.052 96.6494 111.065 96.6162 111.064H95.2802V115.319C95.2806 115.337 95.2775 115.354 95.2712 115.37C95.2649 115.386 95.2554 115.4 95.2434 115.412C95.2314 115.425 95.217 115.435 95.2012 115.441C95.1853 115.448 95.1683 115.451 95.1511 115.451Z" fill="#575755"/>
<path d="M105.73 110.553V113.562C105.727 114.08 105.524 114.577 105.163 114.948C104.984 115.13 104.77 115.274 104.535 115.372C104.299 115.471 104.046 115.522 103.791 115.522C103.536 115.523 103.283 115.473 103.047 115.374C102.812 115.276 102.599 115.131 102.42 114.948C102.054 114.58 101.848 114.082 101.845 113.562V110.553C101.845 110.519 101.859 110.486 101.883 110.462C101.907 110.438 101.94 110.424 101.974 110.424H102.374C102.408 110.424 102.441 110.438 102.465 110.462C102.49 110.486 102.503 110.519 102.503 110.553V113.562C102.503 113.904 102.639 114.232 102.881 114.474C103.122 114.715 103.45 114.851 103.792 114.851C104.134 114.851 104.462 114.715 104.704 114.474C104.945 114.232 105.081 113.904 105.081 113.562V110.553C105.083 110.518 105.098 110.485 105.123 110.461C105.149 110.437 105.182 110.424 105.217 110.424H105.605C105.639 110.425 105.671 110.439 105.694 110.464C105.717 110.488 105.73 110.52 105.73 110.553Z" fill="#575755"/>
<path d="M111.072 110.419H112.811C113.394 110.421 113.953 110.654 114.365 111.066C114.777 111.478 115.009 112.036 115.011 112.619V113.251C115.009 113.834 114.777 114.393 114.365 114.805C113.953 115.217 113.394 115.449 112.811 115.451H111.072C111.038 115.451 111.005 115.438 110.981 115.414C110.957 115.389 110.943 115.357 110.943 115.322V110.547C110.943 110.53 110.946 110.514 110.953 110.498C110.959 110.482 110.969 110.468 110.981 110.456C110.993 110.444 111.007 110.435 111.023 110.428C111.038 110.422 111.055 110.419 111.072 110.419ZM111.59 111.058V114.807H112.811C113.223 114.804 113.618 114.639 113.909 114.348C114.201 114.056 114.366 113.662 114.369 113.249V112.619C114.366 112.207 114.201 111.813 113.909 111.521C113.618 111.23 113.223 111.064 112.811 111.061L111.59 111.058Z" fill="#575755"/>
<path d="M120.852 110.546V115.319C120.852 115.336 120.849 115.353 120.843 115.369C120.836 115.385 120.827 115.399 120.815 115.411C120.803 115.423 120.788 115.432 120.773 115.439C120.757 115.445 120.74 115.449 120.723 115.448H120.335C120.302 115.447 120.271 115.433 120.248 115.408C120.225 115.384 120.213 115.353 120.213 115.319V110.544C120.214 110.512 120.227 110.482 120.25 110.459C120.273 110.437 120.303 110.423 120.335 110.422H120.723C120.757 110.422 120.789 110.435 120.813 110.458C120.837 110.481 120.851 110.513 120.852 110.546Z" fill="#575755"/>
<path d="M130.275 111.113C130.741 111.607 131 112.259 131 112.937C131 113.615 130.741 114.268 130.275 114.761C130.049 115.002 129.775 115.193 129.472 115.324C129.169 115.455 128.842 115.523 128.512 115.523C128.181 115.523 127.855 115.455 127.551 115.324C127.248 115.193 126.975 115.002 126.748 114.761C126.283 114.268 126.023 113.615 126.023 112.937C126.023 112.259 126.283 111.607 126.748 111.113C126.975 110.873 127.248 110.681 127.551 110.55C127.855 110.419 128.181 110.352 128.512 110.352C128.842 110.352 129.169 110.419 129.472 110.55C129.775 110.681 130.049 110.873 130.275 111.113ZM128.508 111.013C128.267 111.013 128.028 111.063 127.807 111.16C127.586 111.256 127.387 111.397 127.222 111.573C126.877 111.944 126.684 112.431 126.684 112.938C126.684 113.444 126.877 113.932 127.222 114.302C127.387 114.479 127.587 114.62 127.808 114.716C128.03 114.812 128.269 114.862 128.511 114.862C128.753 114.862 128.992 114.812 129.214 114.716C129.436 114.62 129.635 114.479 129.8 114.302C130.146 113.932 130.338 113.444 130.338 112.938C130.338 112.431 130.146 111.944 129.8 111.573C129.635 111.396 129.435 111.254 129.213 111.158C128.99 111.061 128.751 111.012 128.508 111.012V111.013Z" fill="#575755"/>
<path d="M48.3152 86.4624H51.2751V85.3184H47.8512C47.6353 85.3184 47.4282 85.4041 47.2756 85.5568C47.1229 85.7094 47.0372 85.9165 47.0372 86.1324V89.9604H48.3152V86.4624Z" fill="#575755"/>
<path d="M76.2331 86.4624H73.2732V85.3184H76.6971C76.804 85.3184 76.9099 85.3394 77.0086 85.3803C77.1074 85.4212 77.1971 85.4812 77.2727 85.5568C77.3483 85.6324 77.4083 85.7221 77.4492 85.8209C77.4901 85.9196 77.5112 86.0255 77.5112 86.1324V89.9604H76.2331V86.4624Z" fill="#575755"/>
<path d="M48.3152 114.379H51.2751V115.523H47.8512C47.6353 115.523 47.4282 115.438 47.2756 115.285C47.1229 115.132 47.0372 114.925 47.0372 114.709V110.881H48.3152V114.379Z" fill="#575755"/>
<path d="M76.2331 114.379H73.2732V115.523H76.6971C76.804 115.523 76.9099 115.502 77.0086 115.461C77.1074 115.42 77.1971 115.36 77.2727 115.285C77.3483 115.209 77.4083 115.12 77.4492 115.021C77.4901 114.922 77.5112 114.816 77.5112 114.709V110.881H76.2331V114.379Z" fill="#575755"/>
<g opacity="0.5">
<g style="mix-blend-mode:multiply" opacity="0.3">
<path d="M62.0862 112.935C66.7789 112.935 70.5832 112.75 70.5832 112.521C70.5832 112.293 66.7789 112.107 62.0862 112.107C57.3934 112.107 53.5892 112.293 53.5892 112.521C53.5892 112.75 57.3934 112.935 62.0862 112.935Z" fill="#575755"/>
</g>
</g>
<path d="M25.7037 27.6672C25.5406 27.6674 25.3831 27.608 25.2607 27.5002L15.8707 19.2002C15.3039 18.7022 14.8419 18.0964 14.5117 17.4181C14.1814 16.7398 13.9894 16.0025 13.947 15.2492C13.9045 14.496 14.0125 13.7418 14.2645 13.0306C14.5164 12.3195 14.9075 11.6657 15.4147 11.1072C16.4478 9.97309 17.8851 9.29032 19.4169 9.20596C20.9487 9.12159 22.4523 9.64241 23.6037 10.6562L25.7037 12.5132L28.0257 10.4592C29.1773 9.44535 30.681 8.9245 32.213 9.00886C33.7449 9.09322 35.1824 9.77604 36.2157 10.9102C36.7231 11.4686 37.1142 12.1224 37.3662 12.8336C37.6183 13.5447 37.7263 14.2989 37.6838 15.0522C37.6414 15.8055 37.4494 16.5429 37.119 17.2212C36.7887 17.8995 36.3266 18.5053 35.7597 19.0032L26.1467 27.5032C26.0239 27.61 25.8664 27.6683 25.7037 27.6672Z" fill="url(#paint47_linear_7_1026)"/>
<defs>
<filter id="filter0_d_7_1026" x="0" y="71.5361" width="161.411" height="63.77" filterUnits="userSpaceOnUse" color-interpolation-filters="sRGB">
<feFlood flood-opacity="0" result="BackgroundImageFix"/>
<feColorMatrix in="SourceAlpha" type="matrix" values="0 0 0 0 0 0 0 0 0 0 0 0 0 0 0 0 0 0 127 0" result="hardAlpha"/>
<feOffset dy="3"/>
<feGaussianBlur stdDeviation="3"/>
<feColorMatrix type="matrix" values="0 0 0 0 0 0 0 0 0 0 0 0 0 0 0 0 0 0 0.161 0"/>
<feBlend mode="normal" in2="BackgroundImageFix" result="effect1_dropShadow_7_1026"/>
<feBlend mode="normal" in="SourceGraphic" in2="effect1_dropShadow_7_1026" result="shape"/>
</filter>
<linearGradient id="paint0_linear_7_1026" x1="69.2905" y1="85.3449" x2="43.6936" y2="87.0567" gradientUnits="userSpaceOnUse">
<stop offset="0.141" stop-color="#B21320"/>
<stop offset="1" stop-color="#E60019"/>
</linearGradient>
<linearGradient id="paint1_linear_7_1026" x1="109.039" y1="89.4715" x2="94.7619" y2="87.3158" gradientUnits="userSpaceOnUse">
<stop stop-color="#B21320"/>
<stop offset="1" stop-color="#E60019"/>
</linearGradient>
<linearGradient id="paint2_linear_7_1026" x1="64.1042" y1="99.413" x2="80.5102" y2="99.413" gradientUnits="userSpaceOnUse">
<stop stop-color="#B21320"/>
<stop offset="1" stop-color="#E60019"/>
</linearGradient>
<linearGradient id="paint3_linear_7_1026" x1="80.5222" y1="99.413" x2="96.9281" y2="99.413" gradientUnits="userSpaceOnUse">
<stop stop-color="#B21320"/>
<stop offset="1" stop-color="#E60019"/>
</linearGradient>
<linearGradient id="paint4_linear_7_1026" x1="64.1042" y1="87.3873" x2="96.9292" y2="87.3873" gradientUnits="userSpaceOnUse">
<stop stop-color="#B21320"/>
<stop offset="1" stop-color="#E60019"/>
</linearGradient>
<linearGradient id="paint5_linear_7_1026" x1="51.5142" y1="47.159" x2="113.342" y2="47.159" gradientUnits="userSpaceOnUse">
<stop stop-color="#B21320"/>
<stop offset="1" stop-color="#E60019"/>
</linearGradient>
<linearGradient id="paint6_linear_7_1026" x1="72.5042" y1="93.1221" x2="74.6384" y2="91.9799" gradientUnits="userSpaceOnUse">
<stop stop-color="#B21320"/>
<stop offset="1" stop-color="#E60019"/>
</linearGradient>
<linearGradient id="paint7_linear_7_1026" x1="80.1375" y1="93.5616" x2="82.682" y2="92.1936" gradientUnits="userSpaceOnUse">
<stop stop-color="#B21320"/>
<stop offset="1" stop-color="#E60019"/>
</linearGradient>
<linearGradient id="paint8_linear_7_1026" x1="82.2075" y1="92.8327" x2="83.3222" y2="92.8197" gradientUnits="userSpaceOnUse">
<stop stop-color="#B21320"/>
<stop offset="1" stop-color="#E60019"/>
</linearGradient>
<linearGradient id="paint9_linear_7_1026" x1="83.7498" y1="92.8342" x2="85.5759" y2="91.8551" gradientUnits="userSpaceOnUse">
<stop stop-color="#B21320"/>
<stop offset="1" stop-color="#E60019"/>
</linearGradient>
<linearGradient id="paint10_linear_7_1026" x1="83.0156" y1="93.1947" x2="83.7664" y2="93.1676" gradientUnits="userSpaceOnUse">
<stop stop-color="#B21320"/>
<stop offset="1" stop-color="#E60019"/>
</linearGradient>
<linearGradient id="paint11_linear_7_1026" x1="87.0072" y1="93.1656" x2="88.0243" y2="92.7447" gradientUnits="userSpaceOnUse">
<stop stop-color="#B21320"/>
<stop offset="1" stop-color="#E60019"/>
</linearGradient>
<linearGradient id="paint12_linear_7_1026" x1="85.6324" y1="93.0747" x2="87.8549" y2="91.889" gradientUnits="userSpaceOnUse">
<stop stop-color="#B21320"/>
<stop offset="1" stop-color="#E60019"/>
</linearGradient>
<linearGradient id="paint13_linear_7_1026" x1="70.7853" y1="96.0055" x2="75.9763" y2="87.8216" gradientUnits="userSpaceOnUse">
<stop stop-color="#B21320"/>
<stop offset="1" stop-color="#E60019"/>
</linearGradient>
<linearGradient id="paint14_linear_7_1026" x1="75.1152" y1="93.2268" x2="75.7048" y2="93.0843" gradientUnits="userSpaceOnUse">
<stop stop-color="#887362"/>
<stop offset="0.73" stop-color="white"/>
</linearGradient>
<linearGradient id="paint15_linear_7_1026" x1="74.7653" y1="91.8846" x2="77.0116" y2="89.5249" gradientUnits="userSpaceOnUse">
<stop stop-color="#887362"/>
<stop offset="0.476" stop-color="white"/>
</linearGradient>
<linearGradient id="paint16_linear_7_1026" x1="77.8568" y1="91.7946" x2="77.2174" y2="92.4723" gradientUnits="userSpaceOnUse">
<stop stop-color="#887362"/>
<stop offset="0.476" stop-color="white"/>
</linearGradient>
<linearGradient id="paint17_linear_7_1026" x1="78.2471" y1="94.3479" x2="81.2678" y2="93.7871" gradientUnits="userSpaceOnUse">
<stop offset="0.364" stop-color="#887362"/>
<stop offset="0.595" stop-color="white"/>
</linearGradient>
<linearGradient id="paint18_linear_7_1026" x1="75.7839" y1="91.4917" x2="75.8439" y2="91.1212" gradientUnits="userSpaceOnUse">
<stop stop-color="#B21320"/>
<stop offset="1" stop-color="#E60019"/>
</linearGradient>
<linearGradient id="paint19_linear_7_1026" x1="76.7765" y1="93.0146" x2="76.0886" y2="92.3095" gradientUnits="userSpaceOnUse">
<stop stop-color="#B21320"/>
<stop offset="1" stop-color="#E60019"/>
</linearGradient>
<linearGradient id="paint20_linear_7_1026" x1="76.4623" y1="92.0098" x2="76.3987" y2="92.3073" gradientUnits="userSpaceOnUse">
<stop stop-color="#887362"/>
<stop offset="1" stop-color="white"/>
</linearGradient>
<linearGradient id="paint21_linear_7_1026" x1="75.9762" y1="93.1783" x2="76.0931" y2="92.7375" gradientUnits="userSpaceOnUse">
<stop stop-color="#887362"/>
<stop offset="1" stop-color="white"/>
</linearGradient>
<linearGradient id="paint22_linear_7_1026" x1="-2078.03" y1="-70.7044" x2="-2078.29" y2="-70.5544" gradientUnits="userSpaceOnUse">
<stop stop-color="#887362"/>
<stop offset="1" stop-color="white"/>
</linearGradient>
<linearGradient id="paint23_linear_7_1026" x1="-2079.97" y1="-69.4142" x2="-2079.55" y2="-69.6098" gradientUnits="userSpaceOnUse">
<stop stop-color="#887362"/>
<stop offset="1" stop-color="white"/>
</linearGradient>
<linearGradient id="paint24_linear_7_1026" x1="74.5132" y1="45.139" x2="89.7992" y2="45.139" gradientUnits="userSpaceOnUse">
<stop stop-color="#B21320"/>
<stop offset="1" stop-color="#E60019"/>
</linearGradient>
<linearGradient id="paint25_linear_7_1026" x1="77.0231" y1="68.6172" x2="86.3427" y2="68.6172" gradientUnits="userSpaceOnUse">
<stop stop-color="#B21320"/>
<stop offset="1" stop-color="#E60019"/>
</linearGradient>
<linearGradient id="paint26_linear_7_1026" x1="48.4993" y1="20.6725" x2="111.689" y2="20.6725" gradientUnits="userSpaceOnUse">
<stop stop-color="#B21320"/>
<stop offset="1" stop-color="#E60019"/>
</linearGradient>
<linearGradient id="paint27_linear_7_1026" x1="34.8341" y1="69.9482" x2="34.8341" y2="83.7102" gradientUnits="userSpaceOnUse">
<stop stop-color="#C1272D"/>
<stop offset="1" stop-color="#FF0000"/>
</linearGradient>
<linearGradient id="paint28_linear_7_1026" x1="124.284" y1="69.9482" x2="124.284" y2="83.7102" gradientUnits="userSpaceOnUse">
<stop stop-color="#C1272D"/>
<stop offset="1" stop-color="#FF0000"/>
</linearGradient>
<linearGradient id="paint29_linear_7_1026" x1="28.6943" y1="104.19" x2="43.161" y2="96.8005" gradientUnits="userSpaceOnUse">
<stop stop-color="#C1272D"/>
<stop offset="1" stop-color="#FF0000"/>
</linearGradient>
<linearGradient id="paint30_linear_7_1026" x1="79.5153" y1="107.126" x2="96.7887" y2="98.2424" gradientUnits="userSpaceOnUse">
<stop stop-color="#C1272D"/>
<stop offset="1" stop-color="#FF0000"/>
</linearGradient>
<linearGradient id="paint31_linear_7_1026" x1="93.3092" y1="102.261" x2="100.858" y2="102.177" gradientUnits="userSpaceOnUse">
<stop stop-color="#C1272D"/>
<stop offset="1" stop-color="#FF0000"/>
</linearGradient>
<linearGradient id="paint32_linear_7_1026" x1="103.678" y1="102.22" x2="115.983" y2="95.9315" gradientUnits="userSpaceOnUse">
<stop stop-color="#C1272D"/>
<stop offset="1" stop-color="#FF0000"/>
</linearGradient>
<linearGradient id="paint33_linear_7_1026" x1="98.7121" y1="104.735" x2="103.783" y2="104.56" gradientUnits="userSpaceOnUse">
<stop stop-color="#C1272D"/>
<stop offset="1" stop-color="#FF0000"/>
</linearGradient>
<linearGradient id="paint34_linear_7_1026" x1="125.335" y1="104.515" x2="132.163" y2="101.813" gradientUnits="userSpaceOnUse">
<stop stop-color="#C1272D"/>
<stop offset="1" stop-color="#FF0000"/>
</linearGradient>
<linearGradient id="paint35_linear_7_1026" x1="116.109" y1="103.877" x2="131.154" y2="96.2179" gradientUnits="userSpaceOnUse">
<stop stop-color="#C1272D"/>
<stop offset="1" stop-color="#FF0000"/>
</linearGradient>
<linearGradient id="paint36_linear_7_1026" x1="17.0396" y1="123.436" x2="53.2065" y2="68.6843" gradientUnits="userSpaceOnUse">
<stop stop-color="#C1272D"/>
<stop offset="1" stop-color="#FF0000"/>
</linearGradient>
<linearGradient id="paint37_linear_7_1026" x1="46.1122" y1="104.949" x2="50.0911" y2="104.03" gradientUnits="userSpaceOnUse">
<stop stop-color="#998675"/>
<stop offset="0.73" stop-color="white"/>
</linearGradient>
<linearGradient id="paint38_linear_7_1026" x1="43.8081" y1="95.7767" x2="59.3976" y2="80.0801" gradientUnits="userSpaceOnUse">
<stop stop-color="#998675"/>
<stop offset="0.476" stop-color="white"/>
</linearGradient>
<linearGradient id="paint39_linear_7_1026" x1="64.4328" y1="95.1905" x2="60.0387" y2="99.6309" gradientUnits="userSpaceOnUse">
<stop stop-color="#998675"/>
<stop offset="0.476" stop-color="white"/>
</linearGradient>
<linearGradient id="paint40_linear_7_1026" x1="66.7211" y1="112.558" x2="87.2798" y2="108.888" gradientUnits="userSpaceOnUse">
<stop offset="0.364" stop-color="#998675"/>
<stop offset="0.595" stop-color="white"/>
</linearGradient>
<linearGradient id="paint41_linear_7_1026" x1="50.4707" y1="93.1922" x2="50.9266" y2="90.5027" gradientUnits="userSpaceOnUse">
<stop stop-color="#C1272D"/>
<stop offset="1" stop-color="#FF0000"/>
</linearGradient>
<linearGradient id="paint42_linear_7_1026" x1="57.2491" y1="103.33" x2="52.6092" y2="98.6904" gradientUnits="userSpaceOnUse">
<stop stop-color="#C1272D"/>
<stop offset="1" stop-color="#FF0000"/>
</linearGradient>
<linearGradient id="paint43_linear_7_1026" x1="55.1621" y1="96.6361" x2="54.7011" y2="98.6684" gradientUnits="userSpaceOnUse">
<stop stop-color="#998675"/>
<stop offset="1" stop-color="white"/>
</linearGradient>
<linearGradient id="paint44_linear_7_1026" x1="51.8521" y1="104.655" x2="52.7007" y2="101.642" gradientUnits="userSpaceOnUse">
<stop stop-color="#998675"/>
<stop offset="1" stop-color="white"/>
</linearGradient>
<linearGradient id="paint45_linear_7_1026" x1="-88.0729" y1="102.287" x2="-89.8793" y2="103.275" gradientUnits="userSpaceOnUse">
<stop stop-color="#998675"/>
<stop offset="1" stop-color="white"/>
</linearGradient>
<linearGradient id="paint46_linear_7_1026" x1="-91.3971" y1="110.213" x2="-88.4654" y2="108.923" gradientUnits="userSpaceOnUse">
<stop stop-color="#998675"/>
<stop offset="1" stop-color="white"/>
</linearGradient>
<linearGradient id="paint47_linear_7_1026" x1="13.938" y1="18.3336" x2="37.6928" y2="18.3336" gradientUnits="userSpaceOnUse">
<stop stop-color="#B21320"/>
<stop offset="1" stop-color="#E60019"/>
</linearGradient>
</defs>
</svg>
