<svg width="18" height="16" viewBox="0 0 18 16" fill="none" xmlns="http://www.w3.org/2000/svg">
<path d="M9.00085 1.77544C9.95299 0.923107 11.1954 0.46783 12.4728 0.503168C13.7503 0.538505 14.9656 1.06177 15.8692 1.96544C16.772 2.8681 17.2953 4.08189 17.3319 5.35801C17.3684 6.63413 16.9155 7.8759 16.0659 8.82877L8.99919 15.9054L1.93419 8.82877C1.08357 7.8754 0.630188 6.63257 0.667132 5.35543C0.704076 4.07828 1.22854 2.86373 2.13285 1.96113C3.03716 1.05853 4.25269 0.536361 5.52991 0.501828C6.80712 0.467296 8.04909 0.92302 9.00085 1.77544ZM14.6892 3.14294C14.0872 2.54138 13.2778 2.19301 12.427 2.1693C11.5763 2.14559 10.7488 2.44834 10.1142 3.01544L9.00169 4.01377L7.88835 3.01627C7.25339 2.44849 6.42511 2.14541 5.57365 2.16928C4.72218 2.19315 3.91218 2.54215 3.31002 3.14461C2.71357 3.74103 2.3654 4.54139 2.33571 5.38436C2.30602 6.22732 2.59701 7.0502 3.15002 7.68711L9.00002 13.5463L14.85 7.68794C15.4036 7.05078 15.6949 6.22731 15.6651 5.38375C15.6352 4.54019 15.2865 3.73937 14.6892 3.14294Z" fill="#616161"/>
</svg>
