<svg width="16" height="18" viewBox="0 0 16 18" fill="none" xmlns="http://www.w3.org/2000/svg">
<path d="M15.5 6.45521C15.4913 6.37865 15.4746 6.30323 15.45 6.23021V6.15521C15.4099 6.06952 15.3565 5.99076 15.2917 5.92188L10.2917 0.921875C10.2228 0.857055 10.144 0.803609 10.0583 0.763542C10.0335 0.760008 10.0082 0.760008 9.98333 0.763542C9.89868 0.714993 9.80519 0.683829 9.70833 0.671875H6.33333C5.67029 0.671875 5.03441 0.935267 4.56557 1.40411C4.09673 1.87295 3.83333 2.50883 3.83333 3.17188V4.00521H3C2.33696 4.00521 1.70107 4.2686 1.23223 4.73744C0.763392 5.20628 0.5 5.84217 0.5 6.50521V14.8385C0.5 15.5016 0.763392 16.1375 1.23223 16.6063C1.70107 17.0752 2.33696 17.3385 3 17.3385H9.66667C10.3297 17.3385 10.9656 17.0752 11.4344 16.6063C11.9033 16.1375 12.1667 15.5016 12.1667 14.8385V14.0052H13C13.663 14.0052 14.2989 13.7418 14.7678 13.273C15.2366 12.8041 15.5 12.1683 15.5 11.5052V6.50521V6.45521ZM10.5 3.51354L12.6583 5.67188H11.3333C11.1123 5.67188 10.9004 5.58408 10.7441 5.4278C10.5878 5.27152 10.5 5.05956 10.5 4.83854V3.51354ZM10.5 14.8385C10.5 15.0596 10.4122 15.2715 10.2559 15.4278C10.0996 15.5841 9.88768 15.6719 9.66667 15.6719H3C2.77899 15.6719 2.56702 15.5841 2.41074 15.4278C2.25446 15.2715 2.16667 15.0596 2.16667 14.8385V6.50521C2.16667 6.28419 2.25446 6.07223 2.41074 5.91595C2.56702 5.75967 2.77899 5.67188 3 5.67188H3.83333V11.5052C3.83333 12.1683 4.09673 12.8041 4.56557 13.273C5.03441 13.7418 5.67029 14.0052 6.33333 14.0052H10.5V14.8385ZM13.8333 11.5052C13.8333 11.7262 13.7455 11.9382 13.5893 12.0945C13.433 12.2507 13.221 12.3385 13 12.3385H6.33333C6.11232 12.3385 5.90036 12.2507 5.74408 12.0945C5.5878 11.9382 5.5 11.7262 5.5 11.5052V3.17188C5.5 2.95086 5.5878 2.7389 5.74408 2.58262C5.90036 2.42634 6.11232 2.33854 6.33333 2.33854H8.83333V4.83854C8.83333 5.50158 9.09672 6.13747 9.56557 6.60631C10.0344 7.07515 10.6703 7.33854 11.3333 7.33854H13.8333V11.5052Z" fill="#616161"/>
</svg>
