<svg width="18" height="18" viewBox="0 0 18 18" fill="none" xmlns="http://www.w3.org/2000/svg">
<path d="M9.83268 8.17188H4.83268C4.61167 8.17188 4.39971 8.25967 4.24343 8.41595C4.08715 8.57223 3.99935 8.7842 3.99935 9.00521C3.99935 9.22622 4.08715 9.43818 4.24343 9.59447C4.39971 9.75074 4.61167 9.83854 4.83268 9.83854H9.83268C10.0537 9.83854 10.2657 9.75074 10.4219 9.59447C10.5782 9.43818 10.666 9.22622 10.666 9.00521C10.666 8.7842 10.5782 8.57223 10.4219 8.41595C10.2657 8.25967 10.0537 8.17188 9.83268 8.17188ZM13.166 4.83854H4.83268C4.61167 4.83854 4.39971 4.92634 4.24343 5.08262C4.08715 5.2389 3.99935 5.45086 3.99935 5.67188C3.99935 5.89289 4.08715 6.10485 4.24343 6.26113C4.39971 6.41741 4.61167 6.50521 4.83268 6.50521H13.166C13.387 6.50521 13.599 6.41741 13.7553 6.26113C13.9116 6.10485 13.9993 5.89289 13.9993 5.67188C13.9993 5.45086 13.9116 5.2389 13.7553 5.08262C13.599 4.92634 13.387 4.83854 13.166 4.83854ZM14.8327 0.671875H3.16602C2.50297 0.671875 1.86709 0.935267 1.39825 1.40411C0.929408 1.87295 0.666016 2.50883 0.666016 3.17188V11.5052C0.666016 12.1683 0.929408 12.8041 1.39825 13.273C1.86709 13.7418 2.50297 14.0052 3.16602 14.0052H12.8243L15.9077 17.0969C15.9856 17.1741 16.0779 17.2352 16.1794 17.2767C16.281 17.3182 16.3897 17.3392 16.4993 17.3385C16.6087 17.3414 16.7171 17.3185 16.816 17.2719C16.9682 17.2094 17.0985 17.1032 17.1904 16.9668C17.2824 16.8303 17.3319 16.6697 17.3327 16.5052V3.17188C17.3327 2.50883 17.0693 1.87295 16.6005 1.40411C16.1316 0.935267 15.4957 0.671875 14.8327 0.671875ZM15.666 14.4969L13.7577 12.5802C13.6798 12.503 13.5875 12.4419 13.4859 12.4004C13.3844 12.3589 13.2757 12.3379 13.166 12.3385H3.16602C2.945 12.3385 2.73304 12.2507 2.57676 12.0945C2.42048 11.9382 2.33268 11.7262 2.33268 11.5052V3.17188C2.33268 2.95086 2.42048 2.7389 2.57676 2.58262C2.73304 2.42634 2.945 2.33854 3.16602 2.33854H14.8327C15.0537 2.33854 15.2657 2.42634 15.4219 2.58262C15.5782 2.7389 15.666 2.95086 15.666 3.17188V14.4969Z" fill="#616161"/>
</svg>
