<svg width="14" height="18" viewBox="0 0 14 18" fill="none" xmlns="http://www.w3.org/2000/svg">
<path d="M4.50065 7.33073H5.33398C5.555 7.33073 5.76696 7.24293 5.92324 7.08665C6.07952 6.93037 6.16732 6.71841 6.16732 6.4974C6.16732 6.27638 6.07952 6.06442 5.92324 5.90814C5.76696 5.75186 5.555 5.66406 5.33398 5.66406H4.50065C4.27964 5.66406 4.06768 5.75186 3.9114 5.90814C3.75512 6.06442 3.66732 6.27638 3.66732 6.4974C3.66732 6.71841 3.75512 6.93037 3.9114 7.08665C4.06768 7.24293 4.27964 7.33073 4.50065 7.33073ZM4.50065 8.9974C4.27964 8.9974 4.06768 9.08519 3.9114 9.24148C3.75512 9.39776 3.66732 9.60972 3.66732 9.83073C3.66732 10.0517 3.75512 10.2637 3.9114 10.42C4.06768 10.5763 4.27964 10.6641 4.50065 10.6641H9.50065C9.72167 10.6641 9.93363 10.5763 10.0899 10.42C10.2462 10.2637 10.334 10.0517 10.334 9.83073C10.334 9.60972 10.2462 9.39776 10.0899 9.24148C9.93363 9.08519 9.72167 8.9974 9.50065 8.9974H4.50065ZM13.6673 6.4474C13.6586 6.37084 13.6419 6.29542 13.6173 6.2224V6.1474C13.5773 6.06171 13.5238 5.98295 13.459 5.91406L8.45898 0.914062C8.3901 0.849243 8.31134 0.795797 8.22565 0.755729C8.20078 0.752196 8.17553 0.752196 8.15065 0.755729C8.066 0.70718 7.9725 0.676016 7.87565 0.664062H2.83398C2.17094 0.664063 1.53506 0.927455 1.06622 1.3963C0.597377 1.86514 0.333984 2.50102 0.333984 3.16406V14.8307C0.333984 15.4938 0.597377 16.1297 1.06622 16.5985C1.53506 17.0673 2.17094 17.3307 2.83398 17.3307H11.1673C11.8304 17.3307 12.4662 17.0673 12.9351 16.5985C13.4039 16.1297 13.6673 15.4938 13.6673 14.8307V6.4974V6.4474ZM8.66732 3.50573L10.8257 5.66406H9.50065C9.27964 5.66406 9.06768 5.57627 8.9114 5.41999C8.75512 5.26371 8.66732 5.05174 8.66732 4.83073V3.50573ZM12.0007 14.8307C12.0007 15.0517 11.9129 15.2637 11.7566 15.42C11.6003 15.5763 11.3883 15.6641 11.1673 15.6641H2.83398C2.61297 15.6641 2.40101 15.5763 2.24473 15.42C2.08845 15.2637 2.00065 15.0517 2.00065 14.8307V3.16406C2.00065 2.94305 2.08845 2.73109 2.24473 2.57481C2.40101 2.41853 2.61297 2.33073 2.83398 2.33073H7.00065V4.83073C7.00065 5.49377 7.26404 6.12966 7.73288 6.5985C8.20173 7.06734 8.83761 7.33073 9.50065 7.33073H12.0007V14.8307ZM9.50065 12.3307H4.50065C4.27964 12.3307 4.06768 12.4185 3.9114 12.5748C3.75512 12.7311 3.66732 12.9431 3.66732 13.1641C3.66732 13.3851 3.75512 13.597 3.9114 13.7533C4.06768 13.9096 4.27964 13.9974 4.50065 13.9974H9.50065C9.72167 13.9974 9.93363 13.9096 10.0899 13.7533C10.2462 13.597 10.334 13.3851 10.334 13.1641C10.334 12.9431 10.2462 12.7311 10.0899 12.5748C9.93363 12.4185 9.72167 12.3307 9.50065 12.3307Z" fill="#616161"/>
</svg>
