<svg width="14" height="18" viewBox="0 0 14 18" fill="none" xmlns="http://www.w3.org/2000/svg">
<path d="M13.3585 2.0455C13.2617 1.96719 13.1486 1.91157 13.0274 1.88272C12.9063 1.85388 12.7802 1.85255 12.6585 1.87884C11.768 2.06546 10.8488 2.06784 9.95736 1.88582C9.06594 1.70381 8.2212 1.34127 7.47517 0.820505C7.33567 0.723732 7.16994 0.671875 7.00017 0.671875C6.83039 0.671875 6.66466 0.723732 6.52517 0.820505C5.77913 1.34127 4.9344 1.70381 4.04297 1.88582C3.15155 2.06784 2.2323 2.06546 1.34183 1.87884C1.22012 1.85255 1.09406 1.85388 0.972918 1.88272C0.851781 1.91157 0.738647 1.96719 0.641834 2.0455C0.54515 2.12394 0.467268 2.22303 0.413911 2.33552C0.360554 2.448 0.333078 2.57101 0.333501 2.6955V8.90384C0.33276 10.0986 0.617478 11.2763 1.16395 12.3388C1.71041 13.4013 2.50282 14.3179 3.47517 15.0122L6.51683 17.1788C6.65797 17.2793 6.82691 17.3333 7.00017 17.3333C7.17342 17.3333 7.34237 17.2793 7.4835 17.1788L10.5252 15.0122C11.4975 14.3179 12.2899 13.4013 12.8364 12.3388C13.3829 11.2763 13.6676 10.0986 13.6668 8.90384V2.6955C13.6673 2.57101 13.6398 2.448 13.5864 2.33552C13.5331 2.22303 13.4552 2.12394 13.3585 2.0455ZM12.0002 8.90384C12.0008 9.8328 11.7796 10.7485 11.3549 11.5747C10.9302 12.4009 10.3143 13.1137 9.5585 13.6538L7.00017 15.4788L4.44183 13.6538C3.68603 13.1137 3.07015 12.4009 2.64546 11.5747C2.22076 10.7485 1.99953 9.8328 2.00017 8.90384V3.65384C3.74719 3.80337 5.49687 3.39802 7.00017 2.4955C8.50347 3.39802 10.2531 3.80337 12.0002 3.65384V8.90384ZM8.2835 6.9955L6.04183 9.2455L5.30017 8.4955C5.14325 8.33858 4.93042 8.25043 4.7085 8.25043C4.48658 8.25043 4.27375 8.33858 4.11683 8.4955C3.95991 8.65242 3.87176 8.86525 3.87176 9.08717C3.87176 9.30909 3.95991 9.52192 4.11683 9.67884L5.45017 11.0122C5.52764 11.0903 5.6198 11.1523 5.72135 11.1946C5.8229 11.2369 5.93182 11.2587 6.04183 11.2587C6.15184 11.2587 6.26077 11.2369 6.36231 11.1946C6.46386 11.1523 6.55603 11.0903 6.6335 11.0122L9.50017 8.17051C9.65709 8.01359 9.74524 7.80076 9.74524 7.57884C9.74524 7.35692 9.65709 7.14409 9.50017 6.98717C9.34325 6.83025 9.13042 6.7421 8.9085 6.7421C8.68658 6.7421 8.47375 6.83025 8.31683 6.98717L8.2835 6.9955Z" fill="#3F3F3F"/>
</svg>
