<svg width="18" height="14" viewBox="0 0 18 14" fill="none" xmlns="http://www.w3.org/2000/svg">
<path d="M17.267 6.66927C15.5836 2.76094 12.417 0.335938 9.0003 0.335938C5.58363 0.335938 2.41697 2.76094 0.733633 6.66927C0.687747 6.77441 0.664062 6.88789 0.664062 7.0026C0.664063 7.11732 0.687747 7.2308 0.733633 7.33594C2.41697 11.2443 5.58363 13.6693 9.0003 13.6693C12.417 13.6693 15.5836 11.2443 17.267 7.33594C17.3129 7.2308 17.3365 7.11732 17.3365 7.0026C17.3365 6.88789 17.3129 6.77441 17.267 6.66927ZM9.0003 12.0026C6.35863 12.0026 3.85863 10.0943 2.41697 7.0026C3.85863 3.91094 6.35863 2.0026 9.0003 2.0026C11.642 2.0026 14.142 3.91094 15.5836 7.0026C14.142 10.0943 11.642 12.0026 9.0003 12.0026ZM9.0003 3.66927C8.34103 3.66927 7.69656 3.86477 7.1484 4.23104C6.60024 4.59731 6.17299 5.11791 5.9207 5.72699C5.66841 6.33608 5.6024 7.0063 5.73102 7.65291C5.85963 8.29951 6.1771 8.89345 6.64328 9.35963C7.10945 9.8258 7.7034 10.1433 8.35 10.2719C8.9966 10.4005 9.66683 10.3345 10.2759 10.0822C10.885 9.82991 11.4056 9.40267 11.7719 8.85451C12.1381 8.30634 12.3336 7.66188 12.3336 7.0026C12.3336 6.11855 11.9824 5.2707 11.3573 4.64558C10.7322 4.02046 9.88436 3.66927 9.0003 3.66927ZM9.0003 8.66927C8.67066 8.66927 8.34843 8.57152 8.07435 8.38839C7.80027 8.20525 7.58665 7.94495 7.4605 7.64041C7.33435 7.33587 7.30135 7.00076 7.36566 6.67745C7.42997 6.35415 7.5887 6.05718 7.82179 5.82409C8.05488 5.59101 8.35185 5.43227 8.67515 5.36796C8.99845 5.30365 9.33356 5.33666 9.63811 5.46281C9.94265 5.58895 10.2029 5.80257 10.3861 6.07665C10.5692 6.35074 10.667 6.67297 10.667 7.0026C10.667 7.44463 10.4914 7.86856 10.1788 8.18112C9.86625 8.49368 9.44233 8.66927 9.0003 8.66927Z" fill="#616161"/>
</svg>
