<svg width="18" height="18" viewBox="0 0 18 18" fill="none" xmlns="http://www.w3.org/2000/svg">
<path d="M15.1749 9.83073C14.9916 9.83073 14.7999 9.7724 14.6166 9.73073C14.2456 9.64778 13.8808 9.53918 13.5249 9.40573C13.1383 9.26509 12.7134 9.27239 12.3318 9.42623C11.9503 9.58008 11.6391 9.86959 11.4582 10.2391L11.2749 10.6224C10.4656 10.1634 9.71792 9.60335 9.0499 8.95573C8.40228 8.28771 7.84223 7.54004 7.38323 6.73073L7.76657 6.55573C8.13604 6.37483 8.42555 6.06367 8.57939 5.68214C8.73324 5.30061 8.74054 4.87566 8.5999 4.48906C8.46756 4.12992 8.35899 3.76246 8.2749 3.38906C8.23323 3.20573 8.1999 3.01406 8.1749 2.83073C8.0737 2.24375 7.76625 1.71218 7.30792 1.33176C6.84958 0.951343 6.27048 0.74707 5.6749 0.755729H3.16657C2.81427 0.755268 2.46586 0.829269 2.14416 0.972882C1.82247 1.1165 1.53476 1.32648 1.2999 1.58906C1.06017 1.85877 0.881662 2.17719 0.776652 2.52243C0.671642 2.86766 0.642615 3.23154 0.691566 3.58906C1.14456 7.05751 2.72924 10.2796 5.1999 12.7557C7.67602 15.2264 10.8981 16.8111 14.3666 17.2641C14.4747 17.2723 14.5834 17.2723 14.6916 17.2641C15.3061 17.265 15.8994 17.0395 16.3582 16.6307C16.6208 16.3959 16.8308 16.1082 16.9744 15.7865C17.118 15.4648 17.192 15.1164 17.1916 14.7641V12.2641C17.1871 11.6883 16.9839 11.1317 16.6165 10.6883C16.2491 10.245 15.7399 9.94204 15.1749 9.83073ZM15.5832 14.8307C15.583 14.947 15.5583 15.062 15.511 15.1682C15.4636 15.2744 15.3946 15.3695 15.3082 15.4474C15.2169 15.5306 15.1082 15.5925 14.99 15.6285C14.8718 15.6645 14.7471 15.6738 14.6249 15.6557C11.5151 15.2496 8.62511 13.8324 6.3999 11.6224C4.17279 9.39528 2.74326 6.4952 2.33323 3.3724C2.31513 3.25017 2.32443 3.12546 2.36046 3.00727C2.39649 2.88909 2.45835 2.7804 2.54157 2.68906C2.62042 2.60169 2.71688 2.53201 2.82461 2.48461C2.93233 2.43721 3.04888 2.41317 3.16657 2.41406H5.66657C5.8592 2.40935 6.04751 2.47155 6.19945 2.59006C6.35139 2.70857 6.45756 2.87608 6.4999 3.06406C6.4999 3.28906 6.5749 3.5224 6.6249 3.7474C6.72121 4.18395 6.84933 4.61287 7.00823 5.03073L5.84157 5.58073C5.64104 5.67278 5.4852 5.84061 5.40823 6.0474C5.32488 6.25028 5.32488 6.47784 5.40823 6.68073C6.60757 9.24969 8.6726 11.3147 11.2416 12.5141C11.4444 12.5974 11.672 12.5974 11.8749 12.5141C12.0817 12.4371 12.2495 12.2813 12.3416 12.0807L12.8666 10.9141C13.2965 11.0708 13.7363 11.1989 14.1832 11.2974C14.3999 11.3474 14.6332 11.3891 14.8582 11.4224C15.0462 11.4647 15.2137 11.5709 15.3322 11.7228C15.4507 11.8748 15.5129 12.0631 15.5082 12.2557L15.5832 14.8307ZM10.6666 0.664062H10.0832C9.86222 0.682849 9.65772 0.788663 9.51472 0.958227C9.37173 1.12779 9.30195 1.34722 9.32073 1.56823C9.33952 1.78924 9.44533 1.99374 9.6149 2.13674C9.78446 2.27973 10.0039 2.34952 10.2249 2.33073H10.6666C11.9926 2.33073 13.2644 2.85751 14.2021 3.7952C15.1398 4.73288 15.6666 6.00465 15.6666 7.33073V7.7724C15.6481 7.99224 15.7175 8.21043 15.8597 8.37915C16.0019 8.54786 16.2051 8.65332 16.4249 8.6724H16.4916C16.7002 8.67324 16.9015 8.59581 17.0558 8.45541C17.2101 8.315 17.3061 8.12183 17.3249 7.91406V7.33073C17.3249 5.56406 16.6237 3.86963 15.3752 2.61963C14.1268 1.36962 12.4332 0.666271 10.6666 0.664062ZM12.3332 7.33073C12.3332 7.55174 12.421 7.7637 12.5773 7.91998C12.7336 8.07626 12.9456 8.16406 13.1666 8.16406C13.3876 8.16406 13.5995 8.07626 13.7558 7.91998C13.9121 7.7637 13.9999 7.55174 13.9999 7.33073C13.9999 6.44667 13.6487 5.59883 13.0236 4.97371C12.3985 4.34859 11.5506 3.9974 10.6666 3.9974C10.4456 3.9974 10.2336 4.08519 10.0773 4.24147C9.92103 4.39775 9.83323 4.60972 9.83323 4.83073C9.83323 5.05174 9.92103 5.2637 10.0773 5.41998C10.2336 5.57626 10.4456 5.66406 10.6666 5.66406C11.1086 5.66406 11.5325 5.83966 11.8451 6.15222C12.1576 6.46478 12.3332 6.8887 12.3332 7.33073Z" fill="#3F3F3F"/>
</svg>
