<svg width="18" height="14" viewBox="0 0 18 14" fill="none" xmlns="http://www.w3.org/2000/svg">
<path d="M17.3332 6.11927C17.3245 6.04272 17.3077 5.9673 17.2832 5.89427V5.81927C17.2431 5.73359 17.1897 5.65483 17.1248 5.58594L12.1248 0.585938C12.056 0.521118 11.9772 0.467672 11.8915 0.427604H11.8082C11.7271 0.384274 11.6401 0.353372 11.5498 0.335938H3.1665C2.50346 0.335938 1.86758 0.59933 1.39874 1.06817C0.929896 1.53701 0.666504 2.1729 0.666504 2.83594V11.1693C0.666504 11.8323 0.929896 12.4682 1.39874 12.937C1.86758 13.4059 2.50346 13.6693 3.1665 13.6693H14.8332C15.4962 13.6693 16.1321 13.4059 16.6009 12.937C17.0698 12.4682 17.3332 11.8323 17.3332 11.1693V6.16927V6.11927ZM12.3332 3.1776L14.4915 5.33594H13.1665C12.9455 5.33594 12.7335 5.24814 12.5772 5.09186C12.421 4.93558 12.3332 4.72362 12.3332 4.5026V3.1776ZM15.6665 11.1693C15.6665 11.3903 15.5787 11.6022 15.4224 11.7585C15.2661 11.9148 15.0542 12.0026 14.8332 12.0026H3.1665C2.94549 12.0026 2.73353 11.9148 2.57725 11.7585C2.42097 11.6022 2.33317 11.3903 2.33317 11.1693V2.83594C2.33317 2.61492 2.42097 2.40296 2.57725 2.24668C2.73353 2.0904 2.94549 2.0026 3.1665 2.0026H10.6665V4.5026C10.6665 5.16565 10.9299 5.80153 11.3987 6.27037C11.8676 6.73921 12.5035 7.0026 13.1665 7.0026H15.6665V11.1693ZM4.83317 7.0026H8.1665C8.38752 7.0026 8.59948 6.91481 8.75576 6.75853C8.91204 6.60225 8.99984 6.39029 8.99984 6.16927C8.99984 5.94826 8.91204 5.7363 8.75576 5.58002C8.59948 5.42374 8.38752 5.33594 8.1665 5.33594H4.83317C4.61216 5.33594 4.4002 5.42374 4.24392 5.58002C4.08764 5.7363 3.99984 5.94826 3.99984 6.16927C3.99984 6.39029 4.08764 6.60225 4.24392 6.75853C4.4002 6.91481 4.61216 7.0026 4.83317 7.0026ZM4.83317 8.66927C4.61216 8.66927 4.4002 8.75707 4.24392 8.91335C4.08764 9.06963 3.99984 9.28159 3.99984 9.50261C3.99984 9.72362 4.08764 9.93558 4.24392 10.0919C4.4002 10.2481 4.61216 10.3359 4.83317 10.3359H13.1665C13.3875 10.3359 13.5995 10.2481 13.7558 10.0919C13.912 9.93558 13.9998 9.72362 13.9998 9.50261C13.9998 9.28159 13.912 9.06963 13.7558 8.91335C13.5995 8.75707 13.3875 8.66927 13.1665 8.66927H4.83317Z" fill="#3F3F3F"/>
</svg>
