<svg width="18" height="18" viewBox="0 0 18 18" fill="none" xmlns="http://www.w3.org/2000/svg">
<path d="M12.0919 9.58583C12.9089 8.94305 13.5052 8.0616 13.7979 7.06412C14.0906 6.06663 14.0652 5.00272 13.7251 4.02039C13.385 3.03805 12.7471 2.18616 11.9003 1.58321C11.0535 0.980262 10.0398 0.65625 9.00024 0.65625C7.9607 0.65625 6.947 0.980262 6.10018 1.58321C5.25336 2.18616 4.61553 3.03805 4.27542 4.02039C3.93531 5.00272 3.90984 6.06663 4.20254 7.06412C4.49525 8.0616 5.09158 8.94305 5.90858 9.58583C4.50864 10.1467 3.28715 11.077 2.37432 12.2774C1.46149 13.4779 0.891544 14.9036 0.725241 16.4025C0.713204 16.5119 0.722838 16.6227 0.753596 16.7284C0.784353 16.8341 0.835631 16.9327 0.904501 17.0186C1.04359 17.1921 1.24589 17.3032 1.46691 17.3275C1.68792 17.3518 1.90954 17.2873 2.08301 17.1482C2.25648 17.0091 2.3676 16.8068 2.39191 16.5858C2.5749 14.9568 3.35165 13.4523 4.57376 12.3598C5.79587 11.2673 7.37766 10.6634 9.01691 10.6634C10.6562 10.6634 12.2379 11.2673 13.4601 12.3598C14.6822 13.4523 15.4589 14.9568 15.6419 16.5858C15.6646 16.7906 15.7623 16.9797 15.9162 17.1167C16.0701 17.2536 16.2692 17.3287 16.4752 17.3275H16.5669C16.7854 17.3024 16.985 17.1919 17.1224 17.0202C17.2597 16.8485 17.3237 16.6295 17.3002 16.4108C17.1332 14.9077 16.5601 13.4783 15.6426 12.276C14.7251 11.0737 13.4977 10.1437 12.0919 9.58583ZM9.00024 8.99416C8.34097 8.99416 7.69651 8.79867 7.14834 8.4324C6.60018 8.06612 6.17294 7.54553 5.92064 6.93644C5.66835 6.32735 5.60234 5.65713 5.73096 5.01053C5.85957 4.36393 6.17704 3.76998 6.64322 3.30381C7.10939 2.83763 7.70334 2.52016 8.34994 2.39155C8.99654 2.26293 9.66677 2.32894 10.2759 2.58123C10.8849 2.83352 11.4055 3.26077 11.7718 3.80893C12.1381 4.35709 12.3336 5.00156 12.3336 5.66083C12.3336 6.54489 11.9824 7.39273 11.3573 8.01785C10.7321 8.64297 9.8843 8.99416 9.00024 8.99416Z" fill="#616161"/>
</svg>
