<svg width="18" height="18" viewBox="0 0 18 18" fill="none" xmlns="http://www.w3.org/2000/svg">
<path d="M8.99999 0.666748C7.69871 0.667689 6.41573 0.97336 5.25382 1.55928C4.09192 2.1452 3.08337 2.99507 2.30897 4.04084C1.53456 5.08661 1.01583 6.2992 0.794309 7.58149C0.572791 8.86377 0.654647 10.1801 1.03332 11.4251C1.02849 11.4527 1.02849 11.4808 1.03332 11.5084C1.34729 12.5183 1.85384 13.4578 2.52499 14.2751L0.858319 15.9417C0.742688 16.0589 0.664358 16.2077 0.633213 16.3694C0.602068 16.5311 0.619503 16.6983 0.683319 16.8501C0.754105 17.0042 0.87021 17.133 1.01613 17.2193C1.16206 17.3057 1.33085 17.3455 1.49999 17.3334H8.99999C10.7393 17.3321 12.4346 16.7867 13.8483 15.7734C15.262 14.7602 16.3233 13.3301 16.8833 11.6834V11.6167C17.1737 10.7746 17.3257 9.89089 17.3333 9.00008C17.3333 7.90573 17.1178 6.8221 16.699 5.81105C16.2802 4.80001 15.6664 3.88135 14.8925 3.10752C14.1187 2.3337 13.2001 1.71987 12.189 1.30109C11.178 0.882296 10.0943 0.666748 8.99999 0.666748ZM8.99999 15.6667H3.50832L3.75832 15.4251L10.7667 8.40841C10.9224 8.25573 11.1319 8.1702 11.35 8.1702C11.5681 8.1702 11.7775 8.25573 11.9333 8.40841L14.95 11.4084L15.1417 11.5917C14.632 12.7996 13.7776 13.8304 12.6852 14.5552C11.5928 15.28 10.311 15.6666 8.99999 15.6667ZM2.78332 11.3917L4.09999 10.0751C4.25612 9.91987 4.46733 9.83276 4.68749 9.83276C4.90764 9.83276 5.11885 9.91987 5.27499 10.0751L5.99999 10.8001L3.73332 13.0834C3.33242 12.5712 3.01206 12.0007 2.78332 11.3917ZM15.625 9.72508L13.125 7.22508C12.6562 6.75691 12.0208 6.49395 11.3583 6.49395C10.6958 6.49395 10.0604 6.75691 9.59165 7.22508L7.18332 9.63342L6.44999 8.90842C5.98158 8.44279 5.34795 8.18143 4.68749 8.18143C4.02702 8.18143 3.39339 8.44279 2.92499 8.90842L2.33332 9.46675C2.32502 9.3113 2.32502 9.15553 2.33332 9.00008C2.33332 7.23197 3.0357 5.53628 4.28594 4.28604C5.53618 3.03579 7.23188 2.33341 8.99999 2.33341C10.7681 2.33341 12.4638 3.03579 13.714 4.28604C14.9643 5.53628 15.6667 7.23197 15.6667 9.00008C15.6791 9.23881 15.6791 9.47802 15.6667 9.71675L15.625 9.72508Z" fill="#828282"/>
</svg>
