<svg width="18" height="16" viewBox="0 0 18 16" fill="none" xmlns="http://www.w3.org/2000/svg">
<path d="M9.00085 1.77422C9.95299 0.921886 11.1954 0.46661 12.4728 0.501947C13.7503 0.537285 14.9656 1.06055 15.8692 1.96422C16.772 2.86688 17.2953 4.08067 17.3319 5.35679C17.3684 6.63291 16.9155 7.87468 16.0659 8.82755L8.99919 15.9042L1.93419 8.82755C1.08357 7.87418 0.630188 6.63135 0.667132 5.3542C0.704076 4.07706 1.22854 2.86251 2.13285 1.95991C3.03716 1.05731 4.25269 0.53514 5.52991 0.500608C6.80712 0.466075 8.04909 0.921799 9.00085 1.77422ZM14.6892 3.14172C14.0872 2.54016 13.2778 2.19179 12.427 2.16808C11.5763 2.14437 10.7488 2.44712 10.1142 3.01422L9.00169 4.01255L7.88835 3.01505C7.25339 2.44727 6.42511 2.14419 5.57365 2.16806C4.72218 2.19193 3.91218 2.54093 3.31002 3.14339C2.71357 3.7398 2.3654 4.54017 2.33571 5.38314C2.30602 6.2261 2.59701 7.04898 3.15002 7.68589L9.00002 13.5451L14.85 7.68672C15.4036 7.04956 15.6949 6.22609 15.6651 5.38253C15.6352 4.53897 15.2865 3.73815 14.6892 3.14172Z" fill="#828282"/>
</svg>
