<svg width="18" height="18" viewBox="0 0 18 18" fill="none" xmlns="http://www.w3.org/2000/svg">
<path d="M8.99988 0.666748C7.38361 0.669819 5.80311 1.14284 4.4509 2.0282C3.09869 2.91355 2.03312 4.17303 1.384 5.65322C0.734867 7.13341 0.530191 8.77043 0.7949 10.3649C1.05961 11.9593 1.78228 13.4424 2.87488 14.6334C3.65523 15.4793 4.60233 16.1544 5.65649 16.6161C6.71066 17.0778 7.84903 17.3162 8.99988 17.3162C10.1507 17.3162 11.2891 17.0778 12.3433 16.6161C13.3974 16.1544 14.3445 15.4793 15.1249 14.6334C16.2175 13.4424 16.9401 11.9593 17.2049 10.3649C17.4696 8.77043 17.2649 7.13341 16.6158 5.65322C15.9666 4.17303 14.9011 2.91355 13.5489 2.0282C12.1966 1.14284 10.6161 0.669819 8.99988 0.666748ZM8.99988 15.6667C7.2736 15.6641 5.61564 14.992 4.37488 13.7917C4.75158 12.8747 5.39241 12.0903 6.21592 11.5383C7.03944 10.9863 8.00847 10.6916 8.99988 10.6916C9.99129 10.6916 10.9603 10.9863 11.7838 11.5383C12.6074 12.0903 13.2482 12.8747 13.6249 13.7917C12.3841 14.992 10.7262 15.6641 8.99988 15.6667ZM7.33321 7.33342C7.33321 7.00378 7.43096 6.68155 7.6141 6.40746C7.79723 6.13338 8.05753 5.91976 8.36207 5.79362C8.66662 5.66747 9.00173 5.63446 9.32503 5.69877C9.64833 5.76308 9.9453 5.92182 10.1784 6.1549C10.4115 6.38799 10.5702 6.68496 10.6345 7.00826C10.6988 7.33157 10.6658 7.66668 10.5397 7.97122C10.4135 8.27576 10.1999 8.53606 9.92583 8.7192C9.65175 8.90233 9.32951 9.00008 8.99988 9.00008C8.55785 9.00008 8.13393 8.82449 7.82137 8.51193C7.50881 8.19937 7.33321 7.77544 7.33321 7.33342ZM14.7582 12.3334C14.0137 11.0599 12.8677 10.0693 11.4999 9.51675C11.9242 9.03563 12.2007 8.4423 12.2961 7.80795C12.3916 7.1736 12.3019 6.52518 12.038 5.9405C11.7741 5.35582 11.347 4.85971 10.8081 4.51172C10.2692 4.16373 9.64137 3.97862 8.99988 3.97862C8.35839 3.97862 7.73052 4.16373 7.19162 4.51172C6.65272 4.85971 6.22569 5.35582 5.96175 5.9405C5.69782 6.52518 5.6082 7.1736 5.70365 7.80795C5.7991 8.4423 6.07557 9.03563 6.49988 9.51675C5.13204 10.0693 3.9861 11.0599 3.24154 12.3334C2.64816 11.3227 2.33464 10.1721 2.33321 9.00008C2.33321 7.23197 3.03559 5.53628 4.28583 4.28604C5.53608 3.03579 7.23177 2.33341 8.99988 2.33341C10.768 2.33341 12.4637 3.03579 13.7139 4.28604C14.9642 5.53628 15.6665 7.23197 15.6665 9.00008C15.6651 10.1721 15.3516 11.3227 14.7582 12.3334Z" fill="#828282"/>
</svg>
