<svg width="16" height="16" viewBox="0 0 16 16" fill="none" xmlns="http://www.w3.org/2000/svg">
<path d="M14.2501 6.75121H4.76261L8.88761 2.63871C9.12299 2.40333 9.25523 2.08409 9.25523 1.75121C9.25523 1.41833 9.12299 1.09909 8.88761 0.863708C8.65223 0.628329 8.33299 0.496094 8.00011 0.496094C7.66724 0.496094 7.34799 0.628329 7.11261 0.863708L0.862615 7.11371C0.748814 7.23259 0.659607 7.37277 0.600115 7.52621C0.475092 7.83054 0.475092 8.17188 0.600115 8.47621C0.659607 8.62965 0.748814 8.76983 0.862615 8.88871L7.11261 15.1387C7.22882 15.2559 7.36707 15.3489 7.51939 15.4123C7.67172 15.4758 7.8351 15.5085 8.00011 15.5085C8.16513 15.5085 8.32851 15.4758 8.48083 15.4123C8.63316 15.3489 8.77141 15.2559 8.88761 15.1387C9.00477 15.0225 9.09777 14.8843 9.16123 14.7319C9.22469 14.5796 9.25736 14.4162 9.25736 14.2512C9.25736 14.0862 9.22469 13.9228 9.16123 13.7705C9.09777 13.6182 9.00477 13.4799 8.88761 13.3637L4.76261 9.25121H14.2501C14.5816 9.25121 14.8996 9.11951 15.134 8.88509C15.3684 8.65067 15.5001 8.33273 15.5001 8.00121C15.5001 7.66969 15.3684 7.35175 15.134 7.11733C14.8996 6.88291 14.5816 6.75121 14.2501 6.75121Z" fill="#616161"/>
</svg>
