<svg width="16" height="12" viewBox="0 0 16 12" fill="none" xmlns="http://www.w3.org/2000/svg">
<path fill-rule="evenodd" clip-rule="evenodd" d="M2.58579 0.585786C2.96086 0.210714 3.46957 0 4 0H12C12.5304 0 13.0391 0.210714 13.4142 0.585786C13.7893 0.960859 14 1.46957 14 2V4C14 4.36819 13.7015 4.66667 13.3333 4.66667C12.9651 4.66667 12.6667 4.36819 12.6667 4V2C12.6667 1.82319 12.5964 1.65362 12.4714 1.5286C12.3464 1.40357 12.1768 1.33333 12 1.33333H4C3.82319 1.33333 3.65362 1.40357 3.5286 1.5286C3.40357 1.65362 3.33333 1.82319 3.33333 2V4C3.33333 4.36819 3.03486 4.66667 2.66667 4.66667C2.29848 4.66667 2 4.36819 2 4V2C2 1.46957 2.21071 0.960859 2.58579 0.585786Z" fill="#3F3F3F"/>
<path fill-rule="evenodd" clip-rule="evenodd" d="M8.00033 0C8.36852 0 8.66699 0.298477 8.66699 0.666667V6H11.3337V5.33333C11.3337 4.8029 11.5444 4.29419 11.9194 3.91912C12.2945 3.54405 12.8032 3.33333 13.3337 3.33333C13.8641 3.33333 14.3728 3.54405 14.7479 3.91912C15.1229 4.29419 15.3337 4.8029 15.3337 5.33333V8.66667C15.3337 9.1971 15.1229 9.70581 14.7479 10.0809C14.5349 10.2938 14.2789 10.4538 14.0003 10.5523V11.3333C14.0003 11.7015 13.7018 12 13.3337 12C12.9655 12 12.667 11.7015 12.667 11.3333V10.6667H3.33366V11.3333C3.33366 11.7015 3.03518 12 2.66699 12C2.2988 12 2.00033 11.7015 2.00033 11.3333V10.5523C1.72172 10.4538 1.46572 10.2938 1.25278 10.0809C0.877706 9.70581 0.666992 9.1971 0.666992 8.66667V5.33333C0.666992 4.8029 0.877706 4.29419 1.25278 3.91912C1.62785 3.54405 2.13656 3.33333 2.66699 3.33333C3.19743 3.33333 3.70613 3.54405 4.08121 3.91912C4.45628 4.29419 4.66699 4.8029 4.66699 5.33333V6H7.33366V0.666667C7.33366 0.298477 7.63214 0 8.00033 0ZM4.00033 7.33333C3.63214 7.33333 3.33366 7.03486 3.33366 6.66667V5.33333C3.33366 5.15652 3.26342 4.98695 3.1384 4.86193C3.01337 4.7369 2.8438 4.66667 2.66699 4.66667C2.49018 4.66667 2.32061 4.7369 2.19559 4.86193C2.07056 4.98695 2.00033 5.15652 2.00033 5.33333V8.66667C2.00033 8.84348 2.07056 9.01305 2.19559 9.13807C2.32061 9.2631 2.49018 9.33333 2.66699 9.33333H13.3337C13.5105 9.33333 13.68 9.2631 13.8051 9.13807C13.9301 9.01305 14.0003 8.84348 14.0003 8.66667V5.33333C14.0003 5.15652 13.9301 4.98695 13.8051 4.86193C13.68 4.7369 13.5105 4.66667 13.3337 4.66667C13.1568 4.66667 12.9873 4.7369 12.8623 4.86193C12.7372 4.98695 12.667 5.15652 12.667 5.33333V6.66667C12.667 7.03486 12.3685 7.33333 12.0003 7.33333H4.00033Z" fill="#3F3F3F"/>
</svg>
