<svg width="20" height="16" viewBox="0 0 20 16" fill="none" xmlns="http://www.w3.org/2000/svg">
<path d="M19.5058 1.21421C19.3741 1.08143 19.2174 0.976039 19.0448 0.904117C18.8722 0.832195 18.687 0.795166 18.5 0.795166C18.313 0.795166 18.1278 0.832195 17.9552 0.904117C17.7825 0.976039 17.6258 1.08143 17.4941 1.21421L6.93997 11.7825L2.5058 7.33421C2.36906 7.20212 2.20765 7.09826 2.03077 7.02856C1.85389 6.95885 1.66502 6.92467 1.47493 6.92796C1.28484 6.93124 1.09726 6.97194 0.922896 7.04772C0.748535 7.12351 0.590807 7.23289 0.458719 7.36963C0.326631 7.50637 0.22277 7.66778 0.153064 7.84466C0.0833588 8.02154 0.049174 8.21042 0.0524627 8.40051C0.0557515 8.59059 0.0964492 8.77817 0.172232 8.95254C0.248014 9.1269 0.357397 9.28462 0.494136 9.41671L5.93414 14.8567C6.06583 14.9895 6.22252 15.0949 6.39515 15.1668C6.56779 15.2387 6.75295 15.2758 6.93997 15.2758C7.12699 15.2758 7.31215 15.2387 7.48479 15.1668C7.65742 15.0949 7.81411 14.9895 7.9458 14.8567L19.5058 3.29671C19.6496 3.16405 19.7644 3.00305 19.8429 2.82384C19.9213 2.64463 19.9619 2.45111 19.9619 2.25546C19.9619 2.05982 19.9213 1.8663 19.8429 1.68709C19.7644 1.50788 19.6496 1.34687 19.5058 1.21421Z" fill="#E22828"/>
</svg>
