<svg width="16" height="12" viewBox="0 0 16 12" fill="none" xmlns="http://www.w3.org/2000/svg">
<path fill-rule="evenodd" clip-rule="evenodd" d="M0.666992 1.33333C0.666992 0.596954 1.26395 0 2.00033 0H14.0003C14.7367 0 15.3337 0.596954 15.3337 1.33333V6.66667C15.3337 7.40305 14.7367 8 14.0003 8H2.00033C1.26395 8 0.666992 7.40305 0.666992 6.66667V1.33333ZM14.0003 1.33333H2.00033V6.66667H14.0003V1.33333Z" fill="#3F3F3F"/>
<path fill-rule="evenodd" clip-rule="evenodd" d="M10.0007 2.66667C10.0007 2.29848 10.2991 2 10.6673 2H12.0007C12.3688 2 12.6673 2.29848 12.6673 2.66667C12.6673 3.03486 12.3688 3.33333 12.0007 3.33333H10.6673C10.2991 3.33333 10.0007 3.03486 10.0007 2.66667ZM3.33398 4.66667C3.33398 4.29848 3.63246 4 4.00065 4H12.0007C12.3688 4 12.6673 4.29848 12.6673 4.66667V7.33333C12.6673 7.70152 12.3688 8 12.0007 8H4.00065C3.63246 8 3.33398 7.70152 3.33398 7.33333V4.66667ZM4.66732 5.33333V6.66667H11.334V5.33333H4.66732ZM8.00065 8.66667C8.36884 8.66667 8.66732 8.96514 8.66732 9.33333V11.3333C8.66732 11.7015 8.36884 12 8.00065 12C7.63246 12 7.33398 11.7015 7.33398 11.3333V9.33333C7.33398 8.96514 7.63246 8.66667 8.00065 8.66667ZM5.33398 9.33333C5.70217 9.33333 6.00065 9.63181 6.00065 10V10.6667C6.00065 11.0349 5.70217 11.3333 5.33398 11.3333C4.96579 11.3333 4.66732 11.0349 4.66732 10.6667V10C4.66732 9.63181 4.96579 9.33333 5.33398 9.33333ZM10.6673 9.33333C11.0355 9.33333 11.334 9.63181 11.334 10V10.6667C11.334 11.0349 11.0355 11.3333 10.6673 11.3333C10.2991 11.3333 10.0007 11.0349 10.0007 10.6667V10C10.0007 9.63181 10.2991 9.33333 10.6673 9.33333Z" fill="#3F3F3F"/>
</svg>
