<svg width="14" height="14" viewBox="0 0 14 14" fill="none" xmlns="http://www.w3.org/2000/svg">
<path d="M5.33333 6.00037H7C7.17681 6.00037 7.34638 5.93013 7.4714 5.80511C7.59643 5.68008 7.66667 5.51052 7.66667 5.3337C7.66667 5.15689 7.59643 4.98732 7.4714 4.8623C7.34638 4.73728 7.17681 4.66704 7 4.66704H6.33333V4.3337C6.33333 4.15689 6.2631 3.98732 6.13807 3.8623C6.01305 3.73728 5.84348 3.66704 5.66667 3.66704C5.48986 3.66704 5.32029 3.73728 5.19526 3.8623C5.07024 3.98732 5 4.15689 5 4.3337V4.70037C4.59495 4.78262 4.23491 5.01244 3.98977 5.34521C3.74463 5.67799 3.63189 6.08998 3.67343 6.5012C3.71497 6.91243 3.90782 7.29355 4.21456 7.57058C4.52129 7.84761 4.92002 8.00079 5.33333 8.00037H6C6.08841 8.00037 6.17319 8.03549 6.2357 8.098C6.29821 8.16051 6.33333 8.2453 6.33333 8.3337C6.33333 8.42211 6.29821 8.5069 6.2357 8.56941C6.17319 8.63192 6.08841 8.66704 6 8.66704H4.33333C4.15652 8.66704 3.98695 8.73728 3.86193 8.8623C3.73691 8.98732 3.66667 9.15689 3.66667 9.3337C3.66667 9.51052 3.73691 9.68009 3.86193 9.80511C3.98695 9.93013 4.15652 10.0004 4.33333 10.0004H5V10.3337C5 10.5105 5.07024 10.6801 5.19526 10.8051C5.32029 10.9301 5.48986 11.0004 5.66667 11.0004C5.84348 11.0004 6.01305 10.9301 6.13807 10.8051C6.2631 10.6801 6.33333 10.5105 6.33333 10.3337V9.96704C6.73838 9.88479 7.09843 9.65497 7.34356 9.3222C7.5887 8.98942 7.70144 8.57743 7.6599 8.16621C7.61837 7.75498 7.42551 7.37386 7.11878 7.09683C6.81204 6.8198 6.41332 6.66662 6 6.66704H5.33333C5.24493 6.66704 5.16014 6.63192 5.09763 6.56941C5.03512 6.5069 5 6.42211 5 6.3337C5 6.2453 5.03512 6.16051 5.09763 6.098C5.16014 6.03549 5.24493 6.00037 5.33333 6.00037ZM13 7.00037H11V1.00037C11.0005 0.882898 10.9699 0.767387 10.9113 0.665535C10.8528 0.563683 10.7684 0.479107 10.6667 0.420371C10.5653 0.361859 10.4504 0.331055 10.3333 0.331055C10.2163 0.331055 10.1013 0.361859 10 0.420371L8 1.56704L6 0.420371C5.89865 0.361859 5.78369 0.331055 5.66667 0.331055C5.54964 0.331055 5.43468 0.361859 5.33333 0.420371L3.33333 1.56704L1.33333 0.420371C1.23199 0.361859 1.11702 0.331055 1 0.331055C0.882976 0.331055 0.768013 0.361859 0.666667 0.420371C0.564931 0.479107 0.480521 0.563683 0.421986 0.665535C0.36345 0.767387 0.332867 0.882898 0.333334 1.00037V11.667C0.333334 12.1975 0.544047 12.7062 0.91912 13.0813C1.29419 13.4563 1.8029 13.667 2.33333 13.667H11.6667C12.1971 13.667 12.7058 13.4563 13.0809 13.0813C13.456 12.7062 13.6667 12.1975 13.6667 11.667V7.66704C13.6667 7.49023 13.5964 7.32066 13.4714 7.19563C13.3464 7.07061 13.1768 7.00037 13 7.00037ZM2.33333 12.3337C2.15652 12.3337 1.98695 12.2635 1.86193 12.1384C1.7369 12.0134 1.66667 11.8438 1.66667 11.667V2.1537L3 2.9137C3.10289 2.96745 3.21725 2.99551 3.33333 2.99551C3.44941 2.99551 3.56378 2.96745 3.66667 2.9137L5.66667 1.76704L7.66667 2.9137C7.76956 2.96745 7.88392 2.99551 8 2.99551C8.11608 2.99551 8.23044 2.96745 8.33333 2.9137L9.66667 2.1537V11.667C9.66847 11.8945 9.70905 12.1199 9.78667 12.3337H2.33333ZM12.3333 11.667C12.3333 11.8438 12.2631 12.0134 12.1381 12.1384C12.013 12.2635 11.8435 12.3337 11.6667 12.3337C11.4899 12.3337 11.3203 12.2635 11.1953 12.1384C11.0702 12.0134 11 11.8438 11 11.667V8.3337H12.3333V11.667Z" fill="#3F3F3F"/>
</svg>
