<svg width="14" height="14" viewBox="0 0 14 14" fill="none" xmlns="http://www.w3.org/2000/svg">
<path d="M13.4735 6.52728L11.9068 5.00061V2.76061C11.9068 2.5838 11.8366 2.41423 11.7115 2.28921C11.5865 2.16418 11.4169 2.09394 11.2401 2.09394H9.03346L7.47346 0.527277C7.41148 0.464791 7.33775 0.415195 7.25651 0.381349C7.17527 0.347504 7.08813 0.330078 7.00012 0.330078C6.91211 0.330078 6.82498 0.347504 6.74374 0.381349C6.6625 0.415195 6.58876 0.464791 6.52679 0.527277L5.00012 2.09394H2.76012C2.58331 2.09394 2.41374 2.16418 2.28872 2.28921C2.16369 2.41423 2.09346 2.5838 2.09346 2.76061V5.00061L0.526789 6.52728C0.464303 6.58925 0.414707 6.66299 0.380861 6.74423C0.347015 6.82547 0.32959 6.9126 0.32959 7.00061C0.32959 7.08862 0.347015 7.17576 0.380861 7.257C0.414707 7.33823 0.464303 7.41197 0.526789 7.47394L2.09346 9.03394V11.2406C2.09346 11.4174 2.16369 11.587 2.28872 11.712C2.41374 11.837 2.58331 11.9073 2.76012 11.9073H5.00012L6.56012 13.4739C6.6221 13.5364 6.69583 13.586 6.77707 13.6199C6.85831 13.6537 6.94545 13.6711 7.03346 13.6711C7.12146 13.6711 7.2086 13.6537 7.28984 13.6199C7.37108 13.586 7.44481 13.5364 7.50679 13.4739L9.06679 11.9073H11.2735C11.4503 11.9073 11.6198 11.837 11.7449 11.712C11.8699 11.587 11.9401 11.4174 11.9401 11.2406V9.03394L13.5068 7.47394C13.5671 7.40979 13.6142 7.33432 13.6452 7.25189C13.6762 7.16945 13.6906 7.08168 13.6875 6.99366C13.6844 6.90564 13.6639 6.8191 13.6271 6.73905C13.5904 6.659 13.5382 6.58702 13.4735 6.52728ZM10.7735 8.28728C10.7105 8.34902 10.6603 8.42265 10.626 8.5039C10.5917 8.58515 10.5738 8.67241 10.5735 8.76061V10.5739H8.76012C8.67192 10.5743 8.58466 10.5922 8.50341 10.6265C8.42216 10.6608 8.34853 10.711 8.28679 10.7739L7.00012 12.0606L5.71346 10.7739C5.65171 10.711 5.57808 10.6608 5.49683 10.6265C5.41558 10.5922 5.32833 10.5743 5.24012 10.5739H3.42679V8.76061C3.42642 8.67241 3.40856 8.58515 3.37423 8.5039C3.33989 8.42265 3.28978 8.34902 3.22679 8.28728L1.94012 7.00061L3.22679 5.71394C3.28978 5.6522 3.33989 5.57857 3.37423 5.49732C3.40856 5.41607 3.42642 5.32882 3.42679 5.24061V3.42728H5.24012C5.32833 3.42691 5.41558 3.40904 5.49683 3.37471C5.57808 3.34038 5.65171 3.29027 5.71346 3.22728L7.00012 1.94061L8.28679 3.22728C8.34853 3.29027 8.42216 3.34038 8.50341 3.37471C8.58466 3.40904 8.67192 3.42691 8.76012 3.42728H10.5735V5.24061C10.5738 5.32882 10.5917 5.41607 10.626 5.49732C10.6603 5.57857 10.7105 5.6522 10.7735 5.71394L12.0601 7.00061L10.7735 8.28728Z" fill="#3F3F3F"/>
</svg>
