<svg width="12" height="16" viewBox="0 0 12 16" fill="none" xmlns="http://www.w3.org/2000/svg">
<path fill-rule="evenodd" clip-rule="evenodd" d="M0.630337 0.667025C0.997979 0.646951 1.31229 0.928711 1.33236 1.29635C1.40313 2.59247 1.87865 4.58366 2.73241 6.23479C3.60926 7.93057 4.73577 8.99937 6.00002 8.99937C7.27785 8.99937 8.43992 7.94826 9.32856 6.28344C10.1981 4.65446 10.6667 2.67821 10.6667 1.3327C10.6667 0.96451 10.9652 0.666033 11.3334 0.666033C11.7015 0.666033 12 0.96451 12 1.3327C12 2.91519 11.4686 5.10561 10.5048 6.91129C9.87551 8.09025 8.99777 9.21672 7.87424 9.83748L8.62531 10.2034C8.85456 10.315 9.00002 10.5477 9.00002 10.8027V13.3027C9.00002 13.5396 8.87426 13.7588 8.66967 13.8783L6.33634 15.2416C6.12856 15.3631 5.87148 15.3631 5.6637 15.2416L3.33036 13.8783C3.12578 13.7588 3.00002 13.5396 3.00002 13.3027V10.8027C3.00002 10.5477 3.14548 10.315 3.37472 10.2034L4.14116 9.83C3.02089 9.19332 2.1624 8.03534 1.54804 6.8472C0.606383 5.02608 0.0819054 2.8506 0.00100939 1.36905C-0.0190647 1.00141 0.262695 0.687099 0.630337 0.667025ZM6.00002 10.4076L4.33335 11.2195V12.9201L6.00002 13.8939L7.66668 12.9201V11.2195L6.00002 10.4076Z" fill="#3F3F3F"/>
</svg>
