<svg width="22" height="21" viewBox="0 0 22 21" fill="none" xmlns="http://www.w3.org/2000/svg">
<path d="M17 11.9989C16.7348 11.9989 16.4804 12.1043 16.2929 12.2918C16.1054 12.4793 16 12.7337 16 12.9989V13.3789L14.52 11.8989C13.9974 11.3805 13.2911 11.0895 12.555 11.0895C11.8189 11.0895 11.1126 11.3805 10.59 11.8989L9.89 12.5989L7.41 10.1189C6.88012 9.61452 6.17657 9.3332 5.445 9.3332C4.71343 9.3332 4.00988 9.61452 3.48 10.1189L2 11.5989V5.99892C2 5.7337 2.10536 5.47935 2.29289 5.29181C2.48043 5.10428 2.73478 4.99892 3 4.99892H10C10.2652 4.99892 10.5196 4.89356 10.7071 4.70603C10.8946 4.51849 11 4.26414 11 3.99892C11 3.7337 10.8946 3.47935 10.7071 3.29181C10.5196 3.10428 10.2652 2.99892 10 2.99892H3C2.20435 2.99892 1.44129 3.31499 0.87868 3.8776C0.316071 4.44021 0 5.20327 0 5.99892V17.9989C0 18.7946 0.316071 19.5576 0.87868 20.1202C1.44129 20.6828 2.20435 20.9989 3 20.9989H15C15.7957 20.9989 16.5587 20.6828 17.1213 20.1202C17.6839 19.5576 18 18.7946 18 17.9989V12.9989C18 12.7337 17.8946 12.4793 17.7071 12.2918C17.5196 12.1043 17.2652 11.9989 17 11.9989ZM3 18.9989C2.73478 18.9989 2.48043 18.8936 2.29289 18.706C2.10536 18.5185 2 18.2641 2 17.9989V14.4289L4.9 11.5289C5.04691 11.3889 5.24206 11.3108 5.445 11.3108C5.64794 11.3108 5.84309 11.3889 5.99 11.5289L9.16 14.6989L13.46 18.9989H3ZM16 17.9989C15.9986 18.1903 15.9354 18.3762 15.82 18.5289L11.31 13.9989L12.01 13.2989C12.0817 13.2257 12.1673 13.1676 12.2617 13.1279C12.3562 13.0882 12.4576 13.0678 12.56 13.0678C12.6624 13.0678 12.7639 13.0882 12.8583 13.1279C12.9527 13.1676 13.0383 13.2257 13.11 13.2989L16 16.2089V17.9989ZM20.71 3.28892L17.71 0.28892C17.6149 0.197879 17.5028 0.126514 17.38 0.0789198C17.1365 -0.0210983 16.8635 -0.0210983 16.62 0.0789198C16.4973 0.126514 16.3851 0.197879 16.29 0.28892L13.29 3.28892C13.1017 3.47722 12.9959 3.73262 12.9959 3.99892C12.9959 4.26522 13.1017 4.52062 13.29 4.70892C13.4783 4.89722 13.7337 5.00301 14 5.00301C14.2663 5.00301 14.5217 4.89722 14.71 4.70892L16 3.40892V8.99892C16 9.26413 16.1054 9.51849 16.2929 9.70603C16.4804 9.89356 16.7348 9.99892 17 9.99892C17.2652 9.99892 17.5196 9.89356 17.7071 9.70603C17.8946 9.51849 18 9.26413 18 8.99892V3.40892L19.29 4.70892C19.383 4.80265 19.4936 4.87704 19.6154 4.92781C19.7373 4.97858 19.868 5.00472 20 5.00472C20.132 5.00472 20.2627 4.97858 20.3846 4.92781C20.5064 4.87704 20.617 4.80265 20.71 4.70892C20.8037 4.61596 20.8781 4.50535 20.9289 4.3835C20.9797 4.26164 21.0058 4.13093 21.0058 3.99892C21.0058 3.86691 20.9797 3.7362 20.9289 3.61434C20.8781 3.49248 20.8037 3.38188 20.71 3.28892Z" fill="#616161"/>
</svg>
