<svg width="16" height="18" viewBox="0 0 16 18" fill="none" xmlns="http://www.w3.org/2000/svg">
<path d="M13 0.666748H3C2.33696 0.666748 1.70107 0.93014 1.23223 1.39898C0.763392 1.86782 0.5 2.50371 0.5 3.16675V12.3334C0.5 12.9965 0.763392 13.6323 1.23223 14.1012C1.70107 14.57 2.33696 14.8334 3 14.8334H5.15833L7.40833 17.0918C7.4862 17.169 7.57855 17.2301 7.68008 17.2716C7.78161 17.313 7.89033 17.3341 8 17.3334C8.19862 17.3334 8.39071 17.2625 8.54167 17.1334L11.225 14.8334H13C13.663 14.8334 14.2989 14.57 14.7678 14.1012C15.2366 13.6323 15.5 12.9965 15.5 12.3334V3.16675C15.5 2.50371 15.2366 1.86782 14.7678 1.39898C14.2989 0.93014 13.663 0.666748 13 0.666748ZM13.8333 12.3334C13.8333 12.5544 13.7455 12.7664 13.5893 12.9227C13.433 13.079 13.221 13.1668 13 13.1668H10.9167C10.718 13.1667 10.526 13.2377 10.375 13.3668L8.04167 15.3668L6.09167 13.4084C6.0138 13.3312 5.92145 13.2701 5.81992 13.2286C5.71839 13.1871 5.60967 13.1661 5.5 13.1668H3C2.77899 13.1668 2.56702 13.079 2.41074 12.9227C2.25446 12.7664 2.16667 12.5544 2.16667 12.3334V3.16675C2.16667 2.94573 2.25446 2.73377 2.41074 2.57749C2.56702 2.42121 2.77899 2.33342 3 2.33342H13C13.221 2.33342 13.433 2.42121 13.5893 2.57749C13.7455 2.73377 13.8333 2.94573 13.8333 3.16675V12.3334Z" fill="#828282"/>
</svg>
