<svg width="13" height="16" viewBox="0 0 13 16" fill="none" xmlns="http://www.w3.org/2000/svg">
<path d="M11.75 4.25H9.5V3.5C9.5 2.70435 9.18393 1.94129 8.62132 1.37868C8.05871 0.816071 7.29565 0.5 6.5 0.5C5.70435 0.5 4.94129 0.816071 4.37868 1.37868C3.81607 1.94129 3.5 2.70435 3.5 3.5V4.25H1.25C1.05109 4.25 0.860322 4.32902 0.71967 4.46967C0.579018 4.61032 0.5 4.80109 0.5 5V13.25C0.5 13.8467 0.737053 14.419 1.15901 14.841C1.58097 15.2629 2.15326 15.5 2.75 15.5H10.25C10.8467 15.5 11.419 15.2629 11.841 14.841C12.2629 14.419 12.5 13.8467 12.5 13.25V5C12.5 4.80109 12.421 4.61032 12.2803 4.46967C12.1397 4.32902 11.9489 4.25 11.75 4.25ZM5 3.5C5 3.10218 5.15804 2.72064 5.43934 2.43934C5.72065 2.15804 6.10218 2 6.5 2C6.89783 2 7.27936 2.15804 7.56066 2.43934C7.84197 2.72064 8 3.10218 8 3.5V4.25H5V3.5ZM11 13.25C11 13.4489 10.921 13.6397 10.7803 13.7803C10.6397 13.921 10.4489 14 10.25 14H2.75C2.55109 14 2.36032 13.921 2.21967 13.7803C2.07902 13.6397 2 13.4489 2 13.25V5.75H3.5V6.5C3.5 6.69891 3.57902 6.88968 3.71967 7.03033C3.86032 7.17098 4.05109 7.25 4.25 7.25C4.44891 7.25 4.63968 7.17098 4.78033 7.03033C4.92098 6.88968 5 6.69891 5 6.5V5.75H8V6.5C8 6.69891 8.07902 6.88968 8.21967 7.03033C8.36032 7.17098 8.55109 7.25 8.75 7.25C8.94891 7.25 9.13968 7.17098 9.28033 7.03033C9.42098 6.88968 9.5 6.69891 9.5 6.5V5.75H11V13.25Z" fill="#3F3F3F"/>
</svg>
