<svg width="25" height="28" viewBox="0 0 25 28" fill="none" xmlns="http://www.w3.org/2000/svg">
<path d="M14.6667 13.9974H6.66667C6.31305 13.9974 5.97391 14.1379 5.72386 14.3879C5.47381 14.638 5.33333 14.9771 5.33333 15.3307C5.33333 15.6844 5.47381 16.0235 5.72386 16.2735C5.97391 16.5236 6.31305 16.6641 6.66667 16.6641H14.6667C15.0203 16.6641 15.3594 16.5236 15.6095 16.2735C15.8595 16.0235 16 15.6844 16 15.3307C16 14.9771 15.8595 14.638 15.6095 14.3879C15.3594 14.1379 15.0203 13.9974 14.6667 13.9974ZM21.88 23.3307L23.6133 21.6107C23.8644 21.3597 24.0055 21.0191 24.0055 20.6641C24.0055 20.309 23.8644 19.9685 23.6133 19.7174C23.3623 19.4663 23.0217 19.3253 22.6667 19.3253C22.3116 19.3253 21.9711 19.4663 21.72 19.7174L20 21.4507L18.28 19.7174C18.0289 19.4663 17.6884 19.3253 17.3333 19.3253C16.9783 19.3253 16.6377 19.4663 16.3867 19.7174C16.1356 19.9685 15.9945 20.309 15.9945 20.6641C15.9945 21.0191 16.1356 21.3597 16.3867 21.6107L18.12 23.3307L16.3867 25.0507C16.2617 25.1747 16.1625 25.3221 16.0948 25.4846C16.0271 25.6471 15.9923 25.8214 15.9923 25.9974C15.9923 26.1734 16.0271 26.3477 16.0948 26.5102C16.1625 26.6726 16.2617 26.8201 16.3867 26.9441C16.5106 27.069 16.6581 27.1682 16.8206 27.2359C16.983 27.3036 17.1573 27.3385 17.3333 27.3385C17.5093 27.3385 17.6836 27.3036 17.8461 27.2359C18.0086 27.1682 18.156 27.069 18.28 26.9441L20 25.2107L21.72 26.9441C21.844 27.069 21.9914 27.1682 22.1539 27.2359C22.3164 27.3036 22.4907 27.3385 22.6667 27.3385C22.8427 27.3385 23.017 27.3036 23.1794 27.2359C23.3419 27.1682 23.4894 27.069 23.6133 26.9441C23.7383 26.8201 23.8375 26.6726 23.9052 26.5102C23.9729 26.3477 24.0077 26.1734 24.0077 25.9974C24.0077 25.8214 23.9729 25.6471 23.9052 25.4846C23.8375 25.3221 23.7383 25.1747 23.6133 25.0507L21.88 23.3307ZM12 24.6641H4C3.64638 24.6641 3.30724 24.5236 3.05719 24.2735C2.80714 24.0235 2.66667 23.6844 2.66667 23.3307V4.66406C2.66667 4.31044 2.80714 3.9713 3.05719 3.72125C3.30724 3.47121 3.64638 3.33073 4 3.33073H10.6667V7.33073C10.6667 8.3916 11.0881 9.40901 11.8382 10.1592C12.5884 10.9093 13.6058 11.3307 14.6667 11.3307H18.6667V15.3307C18.6667 15.6844 18.8071 16.0235 19.0572 16.2735C19.3072 16.5236 19.6464 16.6641 20 16.6641C20.3536 16.6641 20.6928 16.5236 20.9428 16.2735C21.1929 16.0235 21.3333 15.6844 21.3333 15.3307V9.9974V9.9174C21.3194 9.79491 21.2926 9.67424 21.2533 9.5574V9.4374C21.1892 9.3003 21.1037 9.17428 21 9.06406L13 1.06406C12.8898 0.960351 12.7638 0.874837 12.6267 0.810729C12.5826 0.803008 12.5374 0.803008 12.4933 0.810729C12.3637 0.7414 12.2244 0.691958 12.08 0.664062H4C2.93913 0.664063 1.92172 1.08549 1.17157 1.83564C0.421427 2.58578 0 3.6032 0 4.66406V23.3307C0 24.3916 0.421427 25.409 1.17157 26.1592C1.92172 26.9093 2.93913 27.3307 4 27.3307H12C12.3536 27.3307 12.6928 27.1903 12.9428 26.9402C13.1929 26.6902 13.3333 26.351 13.3333 25.9974C13.3333 25.6438 13.1929 25.3046 12.9428 25.0546C12.6928 24.8045 12.3536 24.6641 12 24.6641ZM13.3333 5.21073L16.7867 8.66406H14.6667C14.313 8.66406 13.9739 8.52359 13.7239 8.27354C13.4738 8.02349 13.3333 7.68435 13.3333 7.33073V5.21073ZM6.66667 8.66406C6.31305 8.66406 5.97391 8.80454 5.72386 9.05459C5.47381 9.30464 5.33333 9.64377 5.33333 9.9974C5.33333 10.351 5.47381 10.6902 5.72386 10.9402C5.97391 11.1903 6.31305 11.3307 6.66667 11.3307H8C8.35362 11.3307 8.69276 11.1903 8.94281 10.9402C9.19286 10.6902 9.33333 10.351 9.33333 9.9974C9.33333 9.64377 9.19286 9.30464 8.94281 9.05459C8.69276 8.80454 8.35362 8.66406 8 8.66406H6.66667ZM12 19.3307H6.66667C6.31305 19.3307 5.97391 19.4712 5.72386 19.7213C5.47381 19.9713 5.33333 20.3104 5.33333 20.6641C5.33333 21.0177 5.47381 21.3568 5.72386 21.6069C5.97391 21.8569 6.31305 21.9974 6.66667 21.9974H12C12.3536 21.9974 12.6928 21.8569 12.9428 21.6069C13.1929 21.3568 13.3333 21.0177 13.3333 20.6641C13.3333 20.3104 13.1929 19.9713 12.9428 19.7213C12.6928 19.4712 12.3536 19.3307 12 19.3307Z" fill="#828282"/>
</svg>
