<svg width="18" height="14" viewBox="0 0 18 14" fill="none" xmlns="http://www.w3.org/2000/svg">
<path d="M17.2665 6.66927C15.5831 2.76094 12.4165 0.335938 8.99981 0.335938C5.58315 0.335938 2.41648 2.76094 0.733145 6.66927C0.687259 6.77441 0.663574 6.88789 0.663574 7.0026C0.663574 7.11732 0.687259 7.2308 0.733145 7.33594C2.41648 11.2443 5.58315 13.6693 8.99981 13.6693C12.4165 13.6693 15.5831 11.2443 17.2665 7.33594C17.3124 7.2308 17.3361 7.11732 17.3361 7.0026C17.3361 6.88789 17.3124 6.77441 17.2665 6.66927ZM8.99981 12.0026C6.35815 12.0026 3.85814 10.0943 2.41648 7.0026C3.85814 3.91094 6.35815 2.0026 8.99981 2.0026C11.6415 2.0026 14.1415 3.91094 15.5831 7.0026C14.1415 10.0943 11.6415 12.0026 8.99981 12.0026ZM8.99981 3.66927C8.34054 3.66927 7.69608 3.86477 7.14791 4.23104C6.59975 4.59731 6.1725 5.11791 5.92021 5.72699C5.66792 6.33608 5.60191 7.0063 5.73053 7.65291C5.85914 8.29951 6.17661 8.89345 6.64279 9.35963C7.10896 9.8258 7.70291 10.1433 8.34951 10.2719C8.99611 10.4005 9.66634 10.3345 10.2754 10.0822C10.8845 9.82991 11.4051 9.40267 11.7714 8.85451C12.1376 8.30634 12.3331 7.66188 12.3331 7.0026C12.3331 6.11855 11.982 5.2707 11.3568 4.64558C10.7317 4.02046 9.88387 3.66927 8.99981 3.66927ZM8.99981 8.66927C8.67018 8.66927 8.34794 8.57152 8.07386 8.38839C7.79978 8.20525 7.58616 7.94495 7.46001 7.64041C7.33387 7.33587 7.30086 7.00076 7.36517 6.67745C7.42948 6.35415 7.58821 6.05718 7.8213 5.82409C8.05439 5.59101 8.35136 5.43227 8.67466 5.36796C8.99796 5.30365 9.33307 5.33666 9.63762 5.46281C9.94216 5.58895 10.2025 5.80257 10.3856 6.07665C10.5687 6.35074 10.6665 6.67297 10.6665 7.0026C10.6665 7.44463 10.4909 7.86856 10.1783 8.18112C9.86576 8.49368 9.44184 8.66927 8.99981 8.66927Z" fill="#3F3F3F"/>
</svg>
