<svg width="14" height="18" viewBox="0 0 14 18" fill="none" xmlns="http://www.w3.org/2000/svg">
<path d="M4.50016 7.33073H5.3335C5.55451 7.33073 5.76647 7.24293 5.92275 7.08665C6.07903 6.93037 6.16683 6.71841 6.16683 6.4974C6.16683 6.27638 6.07903 6.06442 5.92275 5.90814C5.76647 5.75186 5.55451 5.66406 5.3335 5.66406H4.50016C4.27915 5.66406 4.06719 5.75186 3.91091 5.90814C3.75463 6.06442 3.66683 6.27638 3.66683 6.4974C3.66683 6.71841 3.75463 6.93037 3.91091 7.08665C4.06719 7.24293 4.27915 7.33073 4.50016 7.33073ZM4.50016 8.9974C4.27915 8.9974 4.06719 9.08519 3.91091 9.24148C3.75463 9.39776 3.66683 9.60972 3.66683 9.83073C3.66683 10.0517 3.75463 10.2637 3.91091 10.42C4.06719 10.5763 4.27915 10.6641 4.50016 10.6641H9.50016C9.72118 10.6641 9.93314 10.5763 10.0894 10.42C10.2457 10.2637 10.3335 10.0517 10.3335 9.83073C10.3335 9.60972 10.2457 9.39776 10.0894 9.24148C9.93314 9.08519 9.72118 8.9974 9.50016 8.9974H4.50016ZM13.6668 6.4474C13.6581 6.37084 13.6414 6.29542 13.6168 6.2224V6.1474C13.5768 6.06171 13.5233 5.98295 13.4585 5.91406L8.4585 0.914062C8.38961 0.849243 8.31085 0.795797 8.22516 0.755729C8.20029 0.752196 8.17504 0.752196 8.15016 0.755729C8.06551 0.70718 7.97202 0.676016 7.87516 0.664062H2.8335C2.17045 0.664063 1.53457 0.927455 1.06573 1.3963C0.596888 1.86514 0.333496 2.50102 0.333496 3.16406V14.8307C0.333496 15.4938 0.596888 16.1297 1.06573 16.5985C1.53457 17.0673 2.17045 17.3307 2.8335 17.3307H11.1668C11.8299 17.3307 12.4658 17.0673 12.9346 16.5985C13.4034 16.1297 13.6668 15.4938 13.6668 14.8307V6.4974V6.4474ZM8.66683 3.50573L10.8252 5.66406H9.50016C9.27915 5.66406 9.06719 5.57627 8.91091 5.41999C8.75463 5.26371 8.66683 5.05174 8.66683 4.83073V3.50573ZM12.0002 14.8307C12.0002 15.0517 11.9124 15.2637 11.7561 15.42C11.5998 15.5763 11.3878 15.6641 11.1668 15.6641H2.8335C2.61248 15.6641 2.40052 15.5763 2.24424 15.42C2.08796 15.2637 2.00016 15.0517 2.00016 14.8307V3.16406C2.00016 2.94305 2.08796 2.73109 2.24424 2.57481C2.40052 2.41853 2.61248 2.33073 2.8335 2.33073H7.00016V4.83073C7.00016 5.49377 7.26356 6.12966 7.7324 6.5985C8.20124 7.06734 8.83712 7.33073 9.50016 7.33073H12.0002V14.8307ZM9.50016 12.3307H4.50016C4.27915 12.3307 4.06719 12.4185 3.91091 12.5748C3.75463 12.7311 3.66683 12.9431 3.66683 13.1641C3.66683 13.3851 3.75463 13.597 3.91091 13.7533C4.06719 13.9096 4.27915 13.9974 4.50016 13.9974H9.50016C9.72118 13.9974 9.93314 13.9096 10.0894 13.7533C10.2457 13.597 10.3335 13.3851 10.3335 13.1641C10.3335 12.9431 10.2457 12.7311 10.0894 12.5748C9.93314 12.4185 9.72118 12.3307 9.50016 12.3307Z" fill="#3F3F3F"/>
</svg>
