<svg width="14" height="18" viewBox="0 0 14 18" fill="none" xmlns="http://www.w3.org/2000/svg">
<path d="M13.3585 2.0416C13.2617 1.96328 13.1486 1.90766 13.0274 1.87882C12.9063 1.84998 12.7802 1.84865 12.6585 1.87493C11.768 2.06155 10.8488 2.06393 9.95736 1.88192C9.06594 1.69991 8.2212 1.33736 7.47517 0.816598C7.33567 0.719825 7.16994 0.667969 7.00017 0.667969C6.83039 0.667969 6.66466 0.719825 6.52517 0.816598C5.77913 1.33736 4.9344 1.69991 4.04297 1.88192C3.15155 2.06393 2.2323 2.06155 1.34183 1.87493C1.22012 1.84865 1.09406 1.84998 0.972918 1.87882C0.851781 1.90766 0.738647 1.96328 0.641834 2.0416C0.54515 2.12003 0.467268 2.21913 0.413911 2.33161C0.360554 2.44409 0.333078 2.5671 0.333501 2.6916V8.89993C0.33276 10.0947 0.617478 11.2724 1.16395 12.3349C1.71041 13.3974 2.50282 14.314 3.47517 15.0083L6.51683 17.1749C6.65797 17.2754 6.82691 17.3294 7.00017 17.3294C7.17342 17.3294 7.34237 17.2754 7.4835 17.1749L10.5252 15.0083C11.4975 14.314 12.2899 13.3974 12.8364 12.3349C13.3829 11.2724 13.6676 10.0947 13.6668 8.89993V2.6916C13.6673 2.5671 13.6398 2.44409 13.5864 2.33161C13.5331 2.21913 13.4552 2.12003 13.3585 2.0416ZM12.0002 8.89993C12.0008 9.8289 11.7796 10.7446 11.3549 11.5708C10.9302 12.397 10.3143 13.1098 9.5585 13.6499L7.00017 15.4749L4.44183 13.6499C3.68603 13.1098 3.07015 12.397 2.64546 11.5708C2.22076 10.7446 1.99953 9.8289 2.00017 8.89993V3.64993C3.74719 3.79946 5.49687 3.39412 7.00017 2.4916C8.50347 3.39412 10.2531 3.79946 12.0002 3.64993V8.89993ZM8.2835 6.9916L6.04183 9.2416L5.30017 8.4916C5.14325 8.33468 4.93042 8.24652 4.7085 8.24652C4.48658 8.24652 4.27375 8.33468 4.11683 8.4916C3.95991 8.64852 3.87176 8.86135 3.87176 9.08327C3.87176 9.30518 3.95991 9.51801 4.11683 9.67493L5.45017 11.0083C5.52764 11.0864 5.6198 11.1484 5.72135 11.1907C5.8229 11.233 5.93182 11.2548 6.04183 11.2548C6.15184 11.2548 6.26077 11.233 6.36231 11.1907C6.46386 11.1484 6.55603 11.0864 6.6335 11.0083L9.50017 8.1666C9.65709 8.00968 9.74524 7.79685 9.74524 7.57493C9.74524 7.35301 9.65709 7.14018 9.50017 6.98326C9.34325 6.82635 9.13042 6.73819 8.9085 6.73819C8.68658 6.73819 8.47375 6.82635 8.31683 6.98326L8.2835 6.9916Z" fill="#3F3F3F"/>
</svg>
