<svg width="28" height="28" viewBox="0 0 28 28" fill="none" xmlns="http://www.w3.org/2000/svg">
<path d="M15.3332 12.6641H7.33317C6.97955 12.6641 6.64041 12.8045 6.39036 13.0546C6.14031 13.3046 5.99984 13.6438 5.99984 13.9974C5.99984 14.351 6.14031 14.6902 6.39036 14.9402C6.64041 15.1903 6.97955 15.3307 7.33317 15.3307H15.3332C15.6868 15.3307 16.0259 15.1903 16.276 14.9402C16.526 14.6902 16.6665 14.351 16.6665 13.9974C16.6665 13.6438 16.526 13.3046 16.276 13.0546C16.0259 12.8045 15.6868 12.6641 15.3332 12.6641ZM20.6665 7.33073H7.33317C6.97955 7.33073 6.64041 7.47121 6.39036 7.72125C6.14031 7.9713 5.99984 8.31044 5.99984 8.66406C5.99984 9.01768 6.14031 9.35682 6.39036 9.60687C6.64041 9.85692 6.97955 9.9974 7.33317 9.9974H20.6665C21.0201 9.9974 21.3593 9.85692 21.6093 9.60687C21.8594 9.35682 21.9998 9.01768 21.9998 8.66406C21.9998 8.31044 21.8594 7.9713 21.6093 7.72125C21.3593 7.47121 21.0201 7.33073 20.6665 7.33073ZM23.3332 0.664062H4.6665C3.60564 0.664063 2.58822 1.08549 1.83808 1.83564C1.08793 2.58578 0.666504 3.6032 0.666504 4.66406V17.9974C0.666504 19.0583 1.08793 20.0757 1.83808 20.8258C2.58822 21.576 3.60564 21.9974 4.6665 21.9974H20.1198L25.0532 26.9441C25.1778 27.0676 25.3255 27.1654 25.488 27.2318C25.6504 27.2981 25.8244 27.3317 25.9998 27.3307C26.1747 27.3352 26.3483 27.2987 26.5065 27.2241C26.75 27.124 26.9584 26.9542 27.1055 26.7359C27.2527 26.5176 27.3319 26.2606 27.3332 25.9974V4.66406C27.3332 3.6032 26.9117 2.58578 26.1616 1.83564C25.4115 1.08549 24.394 0.664063 23.3332 0.664062ZM24.6665 22.7841L21.6132 19.7174C21.4886 19.5938 21.3408 19.4961 21.1784 19.4297C21.0159 19.3633 20.842 19.3297 20.6665 19.3307H4.6665C4.31288 19.3307 3.97374 19.1903 3.7237 18.9402C3.47365 18.6902 3.33317 18.351 3.33317 17.9974V4.66406C3.33317 4.31044 3.47365 3.9713 3.7237 3.72125C3.97374 3.47121 4.31288 3.33073 4.6665 3.33073H23.3332C23.6868 3.33073 24.0259 3.47121 24.276 3.72125C24.526 3.9713 24.6665 4.31044 24.6665 4.66406V22.7841Z" fill="#828282"/>
</svg>
