<svg width="16" height="16" viewBox="0 0 16 16" fill="none" xmlns="http://www.w3.org/2000/svg">
<path d="M15.2583 5.74167L10.2583 0.741667C10.1815 0.666708 10.091 0.607286 9.99167 0.566667C9.88835 0.524681 9.77817 0.502082 9.66667 0.5H3C2.33696 0.5 1.70107 0.763392 1.23223 1.23223C0.763392 1.70107 0.5 2.33696 0.5 3V13C0.5 13.663 0.763392 14.2989 1.23223 14.7678C1.70107 15.2366 2.33696 15.5 3 15.5H13C13.663 15.5 14.2989 15.2366 14.7678 14.7678C15.2366 14.2989 15.5 13.663 15.5 13V6.33333C15.5006 6.22366 15.4796 6.11494 15.4381 6.01341C15.3967 5.91188 15.3356 5.81953 15.2583 5.74167ZM5.5 2.16667H8.83333V3.83333H5.5V2.16667ZM10.5 13.8333H5.5V11.3333C5.5 11.1123 5.5878 10.9004 5.74408 10.7441C5.90036 10.5878 6.11232 10.5 6.33333 10.5H9.66667C9.88768 10.5 10.0996 10.5878 10.2559 10.7441C10.4122 10.9004 10.5 11.1123 10.5 11.3333V13.8333ZM13.8333 13C13.8333 13.221 13.7455 13.433 13.5893 13.5893C13.433 13.7455 13.221 13.8333 13 13.8333H12.1667V11.3333C12.1667 10.6703 11.9033 10.0344 11.4344 9.56557C10.9656 9.09672 10.3297 8.83333 9.66667 8.83333H6.33333C5.67029 8.83333 5.03441 9.09672 4.56557 9.56557C4.09673 10.0344 3.83333 10.6703 3.83333 11.3333V13.8333H3C2.77899 13.8333 2.56702 13.7455 2.41074 13.5893C2.25446 13.433 2.16667 13.221 2.16667 13V3C2.16667 2.77899 2.25446 2.56702 2.41074 2.41074C2.56702 2.25446 2.77899 2.16667 3 2.16667H3.83333V4.66667C3.83333 4.88768 3.92113 5.09964 4.07741 5.25592C4.23369 5.4122 4.44565 5.5 4.66667 5.5H9.66667C9.88768 5.5 10.0996 5.4122 10.2559 5.25592C10.4122 5.09964 10.5 4.88768 10.5 4.66667V3.34167L13.8333 6.675V13Z" fill="#3F3F3F"/>
</svg>
