<svg width="26" height="28" viewBox="0 0 26 28" fill="none" xmlns="http://www.w3.org/2000/svg">
<path d="M12.3335 24.6641H4.3335C3.97987 24.6641 3.64074 24.5236 3.39069 24.2735C3.14064 24.0235 3.00016 23.6844 3.00016 23.3307V4.66406C3.00016 4.31044 3.14064 3.9713 3.39069 3.72125C3.64074 3.47121 3.97987 3.33073 4.3335 3.33073H11.0002V7.33073C11.0002 8.3916 11.4216 9.40901 12.1717 10.1592C12.9219 10.9093 13.9393 11.3307 15.0002 11.3307H19.0002V17.9974C19.0002 18.351 19.1406 18.6902 19.3907 18.9402C19.6407 19.1903 19.9799 19.3307 20.3335 19.3307C20.6871 19.3307 21.0263 19.1903 21.2763 18.9402C21.5264 18.6902 21.6668 18.351 21.6668 17.9974V9.9974V9.9174C21.6529 9.79491 21.6261 9.67424 21.5868 9.5574V9.4374C21.5227 9.3003 21.4372 9.17428 21.3335 9.06406L13.3335 1.06406C13.2233 0.960351 13.0973 0.874837 12.9602 0.810729C12.9161 0.803008 12.8709 0.803008 12.8268 0.810729C12.6972 0.7414 12.5578 0.691958 12.4135 0.664062H4.3335C3.27263 0.664063 2.25521 1.08549 1.50507 1.83564C0.754924 2.58578 0.333496 3.6032 0.333496 4.66406V23.3307C0.333496 24.3916 0.754924 25.409 1.50507 26.1592C2.25521 26.9093 3.27263 27.3307 4.3335 27.3307H12.3335C12.6871 27.3307 13.0263 27.1903 13.2763 26.9402C13.5264 26.6902 13.6668 26.351 13.6668 25.9974C13.6668 25.6438 13.5264 25.3046 13.2763 25.0546C13.0263 24.8045 12.6871 24.6641 12.3335 24.6641ZM13.6668 5.21073L17.1202 8.66406H15.0002C14.6465 8.66406 14.3074 8.52359 14.0574 8.27354C13.8073 8.02349 13.6668 7.68435 13.6668 7.33073V5.21073ZM7.00016 16.6641H15.0002C15.3538 16.6641 15.6929 16.5236 15.943 16.2735C16.193 16.0235 16.3335 15.6844 16.3335 15.3307C16.3335 14.9771 16.193 14.638 15.943 14.3879C15.6929 14.1379 15.3538 13.9974 15.0002 13.9974H7.00016C6.64654 13.9974 6.3074 14.1379 6.05735 14.3879C5.80731 14.638 5.66683 14.9771 5.66683 15.3307C5.66683 15.6844 5.80731 16.0235 6.05735 16.2735C6.3074 16.5236 6.64654 16.6641 7.00016 16.6641ZM12.3335 19.3307H7.00016C6.64654 19.3307 6.3074 19.4712 6.05735 19.7213C5.80731 19.9713 5.66683 20.3104 5.66683 20.6641C5.66683 21.0177 5.80731 21.3568 6.05735 21.6069C6.3074 21.8569 6.64654 21.9974 7.00016 21.9974H12.3335C12.6871 21.9974 13.0263 21.8569 13.2763 21.6069C13.5264 21.3568 13.6668 21.0177 13.6668 20.6641C13.6668 20.3104 13.5264 19.9713 13.2763 19.7213C13.0263 19.4712 12.6871 19.3307 12.3335 19.3307ZM7.00016 11.3307H8.3335C8.68712 11.3307 9.02626 11.1903 9.27631 10.9402C9.52635 10.6902 9.66683 10.351 9.66683 9.9974C9.66683 9.64377 9.52635 9.30464 9.27631 9.05459C9.02626 8.80454 8.68712 8.66406 8.3335 8.66406H7.00016C6.64654 8.66406 6.3074 8.80454 6.05735 9.05459C5.80731 9.30464 5.66683 9.64377 5.66683 9.9974C5.66683 10.351 5.80731 10.6902 6.05735 10.9402C6.3074 11.1903 6.64654 11.3307 7.00016 11.3307ZM25.2802 19.7174C25.1562 19.5924 25.0087 19.4932 24.8463 19.4255C24.6838 19.3578 24.5095 19.323 24.3335 19.323C24.1575 19.323 23.9832 19.3578 23.8207 19.4255C23.6582 19.4932 23.5108 19.5924 23.3868 19.7174L19.0002 24.1174L17.2802 22.3841C17.1558 22.2597 17.0083 22.1611 16.8458 22.0938C16.6834 22.0266 16.5093 21.9919 16.3335 21.9919C16.1577 21.9919 15.9836 22.0266 15.8212 22.0938C15.6587 22.1611 15.5111 22.2597 15.3868 22.3841C15.2625 22.5084 15.1639 22.656 15.0966 22.8184C15.0293 22.9808 14.9947 23.1549 14.9947 23.3307C14.9947 23.5065 15.0293 23.6806 15.0966 23.8431C15.1639 24.0055 15.2625 24.1531 15.3868 24.2774L18.0535 26.9441C18.1774 27.069 18.3249 27.1682 18.4874 27.2359C18.6499 27.3036 18.8241 27.3385 19.0002 27.3385C19.1762 27.3385 19.3505 27.3036 19.5129 27.2359C19.6754 27.1682 19.8229 27.069 19.9468 26.9441L25.2802 21.6107C25.4051 21.4868 25.5043 21.3393 25.572 21.1768C25.6397 21.0144 25.6746 20.8401 25.6746 20.6641C25.6746 20.488 25.6397 20.3138 25.572 20.1513C25.5043 19.9888 25.4051 19.8413 25.2802 19.7174Z" fill="#828282"/>
</svg>
