<svg width="28" height="28" viewBox="0 0 28 28" fill="none" xmlns="http://www.w3.org/2000/svg">
<path d="M10.6665 12.0027H13.9998C14.3535 12.0027 14.6926 11.8622 14.9427 11.6122C15.1927 11.3621 15.3332 11.023 15.3332 10.6694C15.3332 10.3157 15.1927 9.9766 14.9427 9.72655C14.6926 9.4765 14.3535 9.33603 13.9998 9.33603H12.6665V8.66936C12.6665 8.31574 12.526 7.9766 12.276 7.72655C12.0259 7.4765 11.6868 7.33603 11.3332 7.33603C10.9796 7.33603 10.6404 7.4765 10.3904 7.72655C10.1403 7.9766 9.99985 8.31574 9.99985 8.66936V9.4027C9.18975 9.56719 8.46966 10.0268 7.97939 10.6924C7.48912 11.3579 7.26363 12.1819 7.34671 13.0044C7.42978 13.8268 7.81549 14.5891 8.42896 15.1431C9.04243 15.6972 9.83988 16.0035 10.6665 16.0027H11.9998C12.1767 16.0027 12.3462 16.0729 12.4713 16.198C12.5963 16.323 12.6665 16.4926 12.6665 16.6694C12.6665 16.8462 12.5963 17.0157 12.4713 17.1408C12.3462 17.2658 12.1767 17.336 11.9998 17.336H8.66652C8.31289 17.336 7.97375 17.4765 7.72371 17.7266C7.47366 17.9766 7.33318 18.3157 7.33318 18.6694C7.33318 19.023 7.47366 19.3621 7.72371 19.6122C7.97375 19.8622 8.31289 20.0027 8.66652 20.0027H9.99985V20.6694C9.99985 21.023 10.1403 21.3621 10.3904 21.6122C10.6404 21.8622 10.9796 22.0027 11.3332 22.0027C11.6868 22.0027 12.0259 21.8622 12.276 21.6122C12.526 21.3621 12.6665 21.023 12.6665 20.6694V19.936C13.4766 19.7715 14.1967 19.3119 14.687 18.6463C15.1772 17.9808 15.4027 17.1568 15.3197 16.3344C15.2366 15.5119 14.8509 14.7497 14.2374 14.1956C13.6239 13.6416 12.8265 13.3352 11.9998 13.336H10.6665C10.4897 13.336 10.3201 13.2658 10.1951 13.1408C10.0701 13.0157 9.99985 12.8462 9.99985 12.6694C9.99985 12.4926 10.0701 12.323 10.1951 12.198C10.3201 12.0729 10.4897 12.0027 10.6665 12.0027ZM25.9998 14.0027H21.9998V2.0027C22.0008 1.76775 21.9396 1.53673 21.8225 1.33302C21.7055 1.12932 21.5367 0.960168 21.3332 0.842695C21.1305 0.725671 20.9006 0.664062 20.6665 0.664062C20.4325 0.664062 20.2025 0.725671 19.9998 0.842695L15.9998 3.13603L11.9998 0.842695C11.7972 0.725671 11.5672 0.664062 11.3332 0.664062C11.0991 0.664062 10.8692 0.725671 10.6665 0.842695L6.66651 3.13603L2.66651 0.842695C2.46382 0.725671 2.2339 0.664062 1.99985 0.664062C1.7658 0.664062 1.53587 0.725671 1.33318 0.842695C1.12971 0.960168 0.96089 1.12932 0.843819 1.33302C0.726748 1.53673 0.665582 1.76775 0.666514 2.0027V23.336C0.666514 24.3969 1.08794 25.4143 1.83809 26.1645C2.58823 26.9146 3.60565 27.336 4.66651 27.336H23.3332C24.394 27.336 25.4115 26.9146 26.1616 26.1645C26.9118 25.4143 27.3332 24.3969 27.3332 23.336V15.336C27.3332 14.9824 27.1927 14.6433 26.9427 14.3932C26.6926 14.1432 26.3535 14.0027 25.9998 14.0027ZM4.66651 24.6694C4.31289 24.6694 3.97375 24.5289 3.72371 24.2788C3.47366 24.0288 3.33318 23.6897 3.33318 23.336V4.30936L5.99985 5.82936C6.20563 5.93684 6.43435 5.99298 6.66651 5.99298C6.89868 5.99298 7.1274 5.93684 7.33318 5.82936L11.3332 3.53603L15.3332 5.82936C15.539 5.93684 15.7677 5.99298 15.9998 5.99298C16.232 5.99298 16.4607 5.93684 16.6665 5.82936L19.3332 4.30936V23.336C19.3368 23.7909 19.418 24.2418 19.5732 24.6694H4.66651ZM24.6665 23.336C24.6665 23.6897 24.526 24.0288 24.276 24.2788C24.0259 24.5289 23.6868 24.6694 23.3332 24.6694C22.9796 24.6694 22.6404 24.5289 22.3904 24.2788C22.1403 24.0288 21.9998 23.6897 21.9998 23.336V16.6694H24.6665V23.336Z" fill="#828282"/>
</svg>
