<svg width="40" height="40" viewBox="0 0 40 40" fill="none" xmlns="http://www.w3.org/2000/svg">
<g clip-path="url(#clip0_7705_10542)">
<path d="M38.4892 16.5242L22.1736 16.5234C21.4531 16.5234 20.8691 17.1073 20.8691 17.8278V23.0399C20.8691 23.7602 21.4531 24.3443 22.1735 24.3443H31.3615C30.3554 26.9553 28.4776 29.142 26.0818 30.5313L29.9995 37.3133C36.2841 33.6787 39.9995 27.3014 39.9995 20.1625C39.9995 19.146 39.9246 18.4194 39.7748 17.6012C39.6609 16.9795 39.1212 16.5242 38.4892 16.5242Z" fill="#167EE6"/>
<path d="M20.0001 32.1702C15.5037 32.1702 11.5784 29.7135 9.47019 26.0781L2.68848 29.987C6.13965 35.9684 12.6048 39.9963 20.0001 39.9963C23.628 39.9963 27.0512 39.0195 30.0001 37.3173V37.308L26.0824 30.5259C24.2903 31.5653 22.2166 32.1702 20.0001 32.1702Z" fill="#12B347"/>
<path d="M30 37.3226V37.3133L26.0823 30.5312C24.2902 31.5705 22.2166 32.1755 20 32.1755V40.0016C23.6279 40.0016 27.0512 39.0248 30 37.3226Z" fill="#0F993E"/>
<path d="M7.82609 19.9985C7.82609 17.7822 8.43094 15.7087 9.47008 13.9167L2.68836 10.0078C0.976719 12.9474 0 16.3613 0 19.9985C0 23.6357 0.976719 27.0496 2.68836 29.9892L9.47008 26.0803C8.43094 24.2884 7.82609 22.2148 7.82609 19.9985Z" fill="#FFD500"/>
<path d="M20.0001 7.82609C22.9322 7.82609 25.6255 8.86797 27.7292 10.601C28.2482 11.0285 29.0025 10.9977 29.4779 10.5223L33.1708 6.8293C33.7102 6.28992 33.6718 5.40703 33.0956 4.90719C29.571 1.84945 24.985 0 20.0001 0C12.6048 0 6.13965 4.02789 2.68848 10.0093L9.4702 13.9182C11.5784 10.2828 15.5037 7.82609 20.0001 7.82609Z" fill="#FF4B26"/>
<path d="M27.7291 10.601C28.248 11.0285 29.0024 10.9977 29.4777 10.5223L33.1707 6.8293C33.71 6.28992 33.6716 5.40703 33.0955 4.90719C29.5709 1.84938 24.9849 0 20 0V7.82609C22.932 7.82609 25.6254 8.86797 27.7291 10.601Z" fill="#D93F21"/>
</g>
<defs>
<clipPath id="clip0_7705_10542">
<rect width="40" height="40" fill="white"/>
</clipPath>
</defs>
</svg>
