<svg width="18" height="14" viewBox="0 0 18 14" fill="none" xmlns="http://www.w3.org/2000/svg">
<path d="M17.3327 6.11927C17.324 6.04272 17.3072 5.9673 17.2827 5.89427V5.81927C17.2426 5.73359 17.1892 5.65483 17.1243 5.58594L12.1243 0.585938C12.0555 0.521118 11.9767 0.467672 11.891 0.427604H11.8077C11.7267 0.384274 11.6396 0.353372 11.5493 0.335938H3.16602C2.50297 0.335938 1.86709 0.59933 1.39825 1.06817C0.929408 1.53701 0.666016 2.1729 0.666016 2.83594V11.1693C0.666016 11.8323 0.929408 12.4682 1.39825 12.937C1.86709 13.4059 2.50297 13.6693 3.16602 13.6693H14.8327C15.4957 13.6693 16.1316 13.4059 16.6005 12.937C17.0693 12.4682 17.3327 11.8323 17.3327 11.1693V6.16927V6.11927ZM12.3327 3.1776L14.491 5.33594H13.166C12.945 5.33594 12.733 5.24814 12.5768 5.09186C12.4205 4.93558 12.3327 4.72362 12.3327 4.5026V3.1776ZM15.666 11.1693C15.666 11.3903 15.5782 11.6022 15.4219 11.7585C15.2657 11.9148 15.0537 12.0026 14.8327 12.0026H3.16602C2.945 12.0026 2.73304 11.9148 2.57676 11.7585C2.42048 11.6022 2.33268 11.3903 2.33268 11.1693V2.83594C2.33268 2.61492 2.42048 2.40296 2.57676 2.24668C2.73304 2.0904 2.945 2.0026 3.16602 2.0026H10.666V4.5026C10.666 5.16565 10.9294 5.80153 11.3982 6.27037C11.8671 6.73921 12.503 7.0026 13.166 7.0026H15.666V11.1693ZM4.83268 7.0026H8.16602C8.38703 7.0026 8.59899 6.91481 8.75527 6.75853C8.91155 6.60225 8.99935 6.39029 8.99935 6.16927C8.99935 5.94826 8.91155 5.7363 8.75527 5.58002C8.59899 5.42374 8.38703 5.33594 8.16602 5.33594H4.83268C4.61167 5.33594 4.39971 5.42374 4.24343 5.58002C4.08715 5.7363 3.99935 5.94826 3.99935 6.16927C3.99935 6.39029 4.08715 6.60225 4.24343 6.75853C4.39971 6.91481 4.61167 7.0026 4.83268 7.0026ZM4.83268 8.66927C4.61167 8.66927 4.39971 8.75707 4.24343 8.91335C4.08715 9.06963 3.99935 9.28159 3.99935 9.50261C3.99935 9.72362 4.08715 9.93558 4.24343 10.0919C4.39971 10.2481 4.61167 10.3359 4.83268 10.3359H13.166C13.387 10.3359 13.599 10.2481 13.7553 10.0919C13.9116 9.93558 13.9993 9.72362 13.9993 9.50261C13.9993 9.28159 13.9116 9.06963 13.7553 8.91335C13.599 8.75707 13.387 8.66927 13.166 8.66927H4.83268Z" fill="#3F3F3F"/>
</svg>
